<svg viewBox="0 0 18 42" xmlns="http://www.w3.org/2000/svg">
<path d="M16.9887 0L12.6975 12.6744L17.3764 11.9069L18 14.2153L12.6456 24.5533L16.547 24.0889L17.1486 26.3773L0 42L13.6069 18.1205L10.479 13.0013L16.9887 0Z" fill="url(#paint0_linear)"/>
<path d="M2.78458 16.8424L3.39217 19.1249L8.53474 18.7163L2.4668 28.0616L3.07239 30.3401L6.73795 30.0929L12.696 18.6066L10.1197 16.1348L2.78458 16.8424Z" fill="url(#paint1_linear)"/>
<path d="M16.9887 0L10.7608 12.8458L17.3764 11.9069L10.1892 24.7646L16.547 24.0889L0 42L7.99667 27.6133L2.46636 28.0618L9.05396 16.2546L2.78414 16.8427L16.9887 0Z" fill="url(#paint2_linear)"/>
<defs>
<linearGradient id="paint0_linear" x1="8.7326" y1="21.0806" x2="19.3275" y2="24.6908" gradientUnits="userSpaceOnUse">
<stop stop-color="#F29222"/>
<stop offset="0.4515" stop-color="#F7AC20"/>
<stop offset="1" stop-color="#F8E82F"/>
</linearGradient>
<linearGradient id="paint1_linear" x1="0.364277" y1="21.7446" x2="9.39526" y2="23.9199" gradientUnits="userSpaceOnUse">
<stop stop-color="#F8E82F"/>
<stop offset="0.5485" stop-color="#F7AC20"/>
<stop offset="1" stop-color="#F29222"/>
</linearGradient>
<linearGradient id="paint2_linear" x1="8.68782" y1="41.999" x2="8.68782" y2="0.000300398" gradientUnits="userSpaceOnUse">
<stop stop-color="#F8AF3C"/>
<stop offset="0.5" stop-color="#F8E82F"/>
<stop offset="1" stop-color="#F8AF3C"/>
</linearGradient>
</defs>
</svg>
