<svg viewBox="0 0 15 15" opacity="0.5" xmlns="http://www.w3.org/2000/svg">
<path d="M14.4013 4.58039C13.6104 2.73664 12.2666 1.39573 10.4074 0.602815C9.47821 0.206516 8.50471 0.00408936 7.48767 0.00408936C6.47081 0.00408936 5.50449 0.204604 4.5763 0.602815C2.73255 1.39362 1.38272 2.73367 0.59049 4.58039C0.193505 5.50558 0 6.47487 0 7.49174C0 8.5088 0.193505 9.48612 0.59049 10.4115C1.38272 12.2582 2.73272 13.6063 4.5763 14.3973C5.50466 14.7955 6.47078 14.9959 7.48767 14.9959C8.50456 14.9959 9.47821 14.7934 10.4073 14.3973C12.2664 13.6044 13.6103 12.2551 14.4013 10.4115C14.7995 9.48316 15 8.5088 15 7.49174C15 6.47487 14.7997 5.50872 14.4013 4.58039ZM13.204 10.8052C12.6153 11.8149 11.8087 12.6159 10.7929 13.2081C9.78319 13.7969 8.67689 14.0938 7.48784 14.0938C6.59397 14.0938 5.74103 13.9216 4.92902 13.5689C4.11703 13.2163 3.41596 12.7529 2.82949 12.1666C2.24301 11.5801 1.77623 10.8722 1.42718 10.0588C1.07917 9.24838 0.910515 8.38581 0.910515 7.49176C0.910515 6.30255 1.2027 5.20186 1.78814 4.19497C2.37566 3.18441 3.1824 2.38255 4.19105 1.79203C5.19953 1.20154 6.29865 0.906197 7.48767 0.906197C8.67689 0.906197 9.78299 1.20328 10.7927 1.79203C11.8085 2.38429 12.6134 3.18612 13.2038 4.19495C13.7943 5.2036 14.0895 6.30255 14.0895 7.49174C14.0895 8.68098 13.7963 9.78916 13.204 10.8052Z" fill="black"/>
<path d="M7.96335 7.42615V3.17789C7.96335 2.92368 7.74186 2.71863 7.48761 2.71863C7.24984 2.71863 7.03656 2.92368 7.03656 3.17789V7.49174C7.03656 7.49998 7.05301 7.53287 7.05301 7.55738C7.03656 7.70503 7.07769 7.82804 7.17602 7.92654L9.6283 10.3787C9.7924 10.5427 10.0958 10.5427 10.2598 10.3787C10.4483 10.19 10.4359 9.9164 10.2598 9.73897L7.96335 7.42615Z" fill="black"/>
</svg>
