<svg viewBox="0 0 38 14" xmlns="http://www.w3.org/2000/svg">
<path d="M37.0587 5.68398L15.8303 5.68398L4.625 5.68398L8.14752 2.1305C8.32001 1.95701 8.41463 1.72199 8.41463 1.47533C8.41463 1.22867 8.32001 0.995293 8.14752 0.821395L7.59942 0.269414C7.42706 0.0959264 7.19739 1.25843e-06 6.95247 1.21561e-06C6.70742 1.17276e-06 6.47761 0.0952411 6.30526 0.268729L0.266976 6.34613C0.0939401 6.52031 -0.00067824 6.75231 2.42365e-06 6.99911C-0.000678327 7.24728 0.0939399 7.47942 0.266976 7.65332L6.30525 13.7313C6.47761 13.9046 6.70728 14 6.95247 14C7.19739 14 7.42706 13.9045 7.59941 13.7313L8.14752 13.1793C8.32001 13.0061 8.41463 12.7748 8.41463 12.5281C8.41463 12.2816 8.32001 12.0625 8.14752 11.8891L4.58524 8.31575L37.0712 8.32151C37.5759 8.32151 38 7.88368 38 7.37597L38 6.59527C38 6.08755 37.5634 5.68398 37.0587 5.68398Z" fill="#333333"/>
</svg>
