<svg viewBox="0 0 155 155" xmlns="http://www.w3.org/2000/svg">
<path d="M35.8547 13.5507C35.7645 13.3869 35.8347 13.1634 35.9969 13.0883L38.3033 11.8419C38.467 11.7517 38.6754 11.8203 38.7656 11.9841L40.9231 15.9907C41.3727 16.8248 41.8431 17.3222 42.3919 17.5199C42.9711 17.7209 43.649 17.5781 44.5 17.115C45.53 16.5632 46.4355 15.7361 47.1283 15.0248L43.9813 9.18608C43.8911 9.0223 43.9597 8.81407 44.1404 8.71023L46.43 7.47732C46.6106 7.37349 46.8173 7.45734 46.8923 7.61947L53.9982 20.7709C54.0885 20.9346 54.0351 21.1446 53.8561 21.2332L51.5665 22.4661C51.3858 22.5699 51.1623 22.4997 51.0873 22.3376L48.596 17.7094C47.7531 18.5278 46.7442 19.313 45.7311 19.8511C43.997 20.7894 42.4079 21.0961 41.0019 20.5597C39.8907 20.1475 38.901 19.1783 38.053 17.608L35.8547 13.5507Z" fill="white"/>
<path d="M64.0895 8.45187L58.8785 17.3669L59.2869 19.0132C59.3298 19.1873 59.2324 19.377 59.0414 19.4335L56.5248 20.0566C56.3186 20.1114 56.132 19.9835 56.0891 19.8094L52.4581 5.29058C52.4152 5.11649 52.5295 4.91312 52.7341 4.87349L55.2508 4.25048C55.457 4.19562 55.6283 4.32189 55.6712 4.49598L57.902 13.4101L63.113 4.49509L62.6839 2.75411C62.629 2.54792 62.7569 2.3614 62.931 2.31849L65.4798 1.6835C65.6539 1.64059 65.8574 1.75495 65.897 1.9595L69.5312 16.4478C69.5861 16.654 69.4598 16.8253 69.2857 16.8682L66.7521 17.5048C66.578 17.5477 66.3882 17.4503 66.3317 17.2593L64.0895 8.45187Z" fill="white"/>
<path d="M83.3686 0.957203C83.5699 0.948033 83.7363 1.12002 83.7319 1.30443L83.7517 3.55593C83.7472 3.74034 83.5906 3.90838 83.3909 3.90232L78.7033 3.93757L78.7911 16.3034C78.7867 16.4879 78.63 16.6559 78.4456 16.6515L75.8235 16.6777C75.6391 16.6733 75.4711 16.5165 75.4755 16.3321L75.3878 3.96622L70.7002 4.00137C70.5158 3.99695 70.3477 3.8402 70.3521 3.65579L70.3324 1.40428C70.3368 1.21988 70.4935 1.05185 70.6779 1.05627L83.3686 0.957203Z" fill="white"/>
<path d="M86.7455 16.8353C86.5958 17.0811 86.3864 17.1664 86.1003 17.1048L83.5846 16.5724C83.3594 16.5174 83.2964 16.3873 83.328 16.2367C83.3345 16.1757 83.3731 16.1029 83.4134 16.0148L91.7415 2.61247C91.8607 2.36337 92.0669 2.30849 92.353 2.37007L95.0347 2.93575C95.3208 2.99733 95.4922 3.12365 95.4915 3.41631L97.5717 19.0317C97.5771 19.1247 97.5841 19.2025 97.5623 19.2618C97.5307 19.4125 97.4127 19.5076 97.1858 19.4678L94.5956 18.912C94.279 18.8471 94.1262 18.692 94.11 18.413L93.7613 15.4944L88.2033 14.3112L86.7455 16.8353ZM92.8264 6.56549L89.6039 11.8888L93.5654 12.7308L92.8264 6.56549Z" fill="white"/>
<path d="M115.317 10.6169C115.508 10.6991 115.576 10.9222 115.513 11.0849L114.569 13.1249C114.49 13.2859 114.281 13.3713 114.089 13.289L109.831 11.3367L104.679 22.5691C104.6 22.7301 104.391 22.8154 104.23 22.7365L101.851 21.6487C101.69 21.5698 101.604 21.3603 101.685 21.1841L106.837 9.95167L102.579 7.99926C102.418 7.92032 102.333 7.71089 102.413 7.53467L103.357 5.49452C103.436 5.33353 103.645 5.24817 103.806 5.32711L115.317 10.6169Z" fill="white"/>
<path d="M119.075 13.3476C119.183 13.2051 119.418 13.1687 119.574 13.2934L121.64 14.8559C121.811 14.9822 121.819 15.1987 121.711 15.3412L118.082 20.1432L120.05 21.6182C120.933 22.2833 122.004 23.215 122.592 24.3413C123.27 25.6313 123.323 27.1469 122.028 28.8719C120.807 30.4816 119.296 30.9201 117.844 30.6715C116.723 30.4894 115.615 29.908 114.689 29.2075L110.143 25.7759C109.971 25.6496 109.949 25.4315 110.058 25.2737L119.075 13.3476ZM119.479 24.9156C119.217 24.4868 118.818 24.0434 118.248 23.6123L116.481 22.2821L114.11 25.4167L116.078 26.8917C116.59 27.2857 117.129 27.5748 117.616 27.6272C118.238 27.7248 118.831 27.5113 119.334 26.8413C119.799 26.2441 119.852 25.6028 119.479 24.9156Z" fill="white"/>
<path d="M133.354 52.9231L130.792 47.3784C130.705 47.1841 130.789 46.9774 130.951 46.9024L144.537 40.6289C144.699 40.5539 144.922 40.6242 145.009 40.8184L146.997 45.115C147.548 46.2989 147.962 47.6069 147.704 48.9967C147.478 50.0971 146.834 51.0754 145.635 51.6244C144.192 52.2859 142.835 52.1554 141.793 51.2422L141.712 51.2796C142.163 53.5313 141.292 55.0401 139.412 55.901C136.739 57.1234 134.455 55.2909 133.354 52.9231ZM139.451 50.9594C139.459 50.4519 139.258 49.891 138.884 49.0651L138.047 47.2495L134.48 48.8997L135.503 51.1358C135.728 51.6223 135.987 52.0815 136.324 52.3797C136.844 52.8515 137.499 53.0607 138.376 52.6465C139.024 52.3465 139.452 51.807 139.451 50.9594ZM144.762 47.5556C144.84 47.1172 144.752 46.6455 144.553 46.208L143.817 44.6036L140.478 46.1396L141.125 47.5651C141.301 47.9383 141.529 48.3943 141.897 48.6958C142.337 49.0512 142.956 49.164 143.701 48.8281C144.35 48.5281 144.676 48.0702 144.762 47.5556Z" fill="white"/>
<path d="M143.593 56.9978C148.069 56.0617 152.194 58.9703 153.164 63.5582C153.61 65.7169 153.399 67.2502 153.073 68.417C152.984 68.6693 152.839 68.7308 152.629 68.6774L150.257 68.0987C150.032 68.0437 149.974 67.8681 150.025 67.6733C150.292 66.6235 150.505 65.5062 150.224 64.1048C149.686 61.5201 147.113 59.7953 144.307 60.3871C141.391 60.998 139.798 63.4921 140.356 66.1867C140.653 67.5745 141.264 68.6263 141.988 69.4899C142.122 69.6738 142.141 69.7836 141.957 69.9179L139.963 71.4136C139.779 71.5479 139.642 71.5333 139.508 71.3494C138.651 70.2866 137.843 68.9209 137.394 66.7927C136.368 61.8599 138.753 58.0181 143.593 56.9978Z" fill="white"/>
<path d="M154.06 84.8853C154.054 85.085 153.897 85.253 153.713 85.2486L151.468 85.2075C151.283 85.2031 151.131 85.048 151.123 84.8315L151.289 76.6989L147.907 76.628L147.762 83.5611C147.758 83.7455 147.587 83.8966 147.418 83.8938L145.189 83.8544C144.989 83.8483 144.821 83.6916 144.825 83.5072L144.97 76.5741L141.495 76.5086L141.329 84.6412C141.323 84.8408 141.182 85.0104 140.982 85.0044L138.752 84.9649C138.568 84.9605 138.415 84.8054 138.423 84.5905L138.642 73.521C138.648 73.3214 138.805 73.1533 138.99 73.1578L153.933 73.4551C154.118 73.4595 154.269 73.6298 154.278 73.8311L154.06 84.8853Z" fill="white"/>
<path d="M128.348 111.517C128.442 111.358 128.663 111.305 128.823 111.399L139.49 117.646L142.923 111.806L132.255 105.559C132.095 105.465 132.024 105.272 132.136 105.084L133.456 102.838C133.567 102.665 133.775 102.595 133.935 102.689L146.833 110.254C146.993 110.348 147.046 110.57 146.95 110.744L140.535 121.687C140.441 121.846 140.219 121.899 140.06 121.805L127.161 114.24C127.002 114.146 126.949 113.924 127.043 113.765L128.348 111.517Z" fill="white"/>
<path d="M131.839 131.629C130.922 132.563 129.824 133.323 128.388 133.492C126.876 133.653 125.298 133.144 123.987 131.863C122.634 130.547 122.074 128.884 122.274 127.304C122.439 125.919 123.151 124.886 124.017 123.994L126.51 121.442L123.386 118.395C123.261 118.273 123.238 118.055 123.378 117.901L125.195 116.047C125.335 115.892 125.565 115.902 125.691 116.023L136.4 126.465C136.526 126.587 136.532 126.818 136.392 126.973L131.839 131.629ZM128.522 130.24C129.107 130.103 129.603 129.786 130.07 129.313L132.253 127.067L128.571 123.482L126.44 125.672C125.99 126.132 125.61 126.661 125.502 127.235C125.33 127.971 125.57 128.752 126.324 129.48C127.048 130.19 127.827 130.397 128.522 130.24Z" fill="white"/>
<path d="M114.047 127.02C113.97 126.734 114.067 126.545 114.315 126.386L116.484 124.986C116.682 124.869 116.815 124.914 116.909 125.047C116.948 125.113 116.957 125.176 116.993 125.272L120.545 140.661C120.639 140.933 120.528 141.106 120.28 141.264L117.98 142.742C117.732 142.9 117.529 142.925 117.318 142.733L104.825 133.116C104.755 133.046 104.698 133.009 104.659 132.944C104.565 132.81 104.581 132.658 104.779 132.541L106.997 131.115C107.262 130.943 107.478 130.936 107.689 131.128L109.989 132.947L114.757 129.87L114.047 127.02ZM116.977 138.598L115.503 132.538L112.108 134.731L116.977 138.598Z" fill="white"/>
<path d="M97.6476 135.101L103.389 133.007C103.581 132.935 103.786 133.034 103.844 133.21L108.959 147.257C109.017 147.432 108.918 147.638 108.725 147.709L104.284 149.327C103.049 149.78 101.722 150.084 100.36 149.706C99.285 149.39 98.3757 148.676 97.9095 147.424C97.3611 145.933 97.6119 144.604 98.6099 143.633L98.5724 143.552C96.2946 143.815 94.86 142.829 94.1595 140.889C93.177 138.134 95.1944 135.993 97.6476 135.101ZM102.049 146.899C102.484 147.007 102.951 146.965 103.4 146.798L105.068 146.191L103.805 142.743L102.33 143.278C101.945 143.421 101.477 143.617 101.133 143.95C100.751 144.356 100.577 144.969 100.849 145.738C101.117 146.398 101.539 146.767 102.049 146.899ZM99.0889 141.327C99.6068 141.383 100.178 141.228 101.013 140.917L102.89 140.226L101.545 136.537L99.2357 137.383C98.739 137.561 98.2526 137.786 97.9408 138.107C97.4265 138.59 97.1733 139.226 97.508 140.124C97.7455 140.782 98.2479 141.267 99.0889 141.327Z" fill="white"/>
<path d="M81.6841 147.868L88.0719 139.757L87.8833 138.073C87.8573 137.885 87.9836 137.714 88.1865 137.689L90.7738 137.413C90.9767 137.389 91.1616 137.532 91.1724 137.718L92.778 152.589C92.804 152.777 92.6473 152.945 92.4444 152.969L89.8571 153.245C89.6542 153.27 89.4997 153.13 89.4737 152.942L88.4855 143.792L82.0976 151.903L82.2917 153.68C82.3161 153.883 82.173 154.068 81.9869 154.079L79.3843 154.353C79.1967 154.379 79.027 154.238 79.0043 154.02L77.397 139.164C77.3726 138.961 77.5125 138.807 77.7002 138.78L80.3027 138.506C80.4903 138.48 80.6617 138.606 80.6861 138.809L81.6841 147.868Z" fill="white"/>
<path d="M74.0252 138.57L75.9818 138.858C76.3457 138.912 76.5158 139.192 76.1485 139.6C75.1711 140.666 74.4433 141.989 73.8868 143.439C73.2584 145.128 72.8594 147.119 72.5224 149.394L71.8881 153.717C71.8684 153.899 71.6845 154.034 71.5017 154.014L60.2935 152.362C60.1107 152.342 59.9764 152.159 59.996 151.976L62.1717 137.188C62.1913 137.005 62.3753 136.871 62.5581 136.89L65.1511 137.277C65.3338 137.297 65.4682 137.481 65.4485 137.663L63.6411 149.887L68.9794 150.677L69.244 148.933C69.5363 146.931 70.0137 144.641 70.7918 142.706C71.2912 141.358 72.3014 139.556 73.1498 138.83C73.4246 138.567 73.6156 138.511 74.0252 138.57Z" fill="white"/>
<path d="M58.1015 135.779C58.2952 135.554 58.4998 135.514 58.7793 135.637L61.1714 136.603C61.3781 136.686 61.4243 136.83 61.3623 136.977C61.3405 137.037 61.2882 137.093 61.2327 137.179L50.6808 148.91C50.5175 149.138 50.3146 149.163 50.0351 149.04L47.4956 148.012C47.2144 147.905 47.0768 147.752 47.1232 147.464L47.8151 131.715C47.825 131.624 47.8332 131.548 47.855 131.488C47.917 131.341 48.0487 131.263 48.2554 131.347L50.7068 132.334C51.0016 132.458 51.1375 132.627 51.0911 132.915L50.9155 135.839L56.1706 137.975L58.1015 135.779ZM50.3044 144.817L54.4122 140.144L50.663 138.616L50.3044 144.817Z" fill="white"/>
<path d="M20.1777 118.22L30.4282 119.322L31.7591 118.264C31.9093 118.157 32.109 118.163 32.2465 118.316L33.8608 120.354C33.9815 120.521 33.957 120.75 33.822 120.858L22.0722 130.118C21.922 130.225 21.7088 130.202 21.5712 130.049L19.9569 128.011C19.8362 127.844 19.8727 127.647 20.0093 127.523L27.2296 121.844L16.9792 120.742L15.5654 121.853C15.3984 121.974 15.17 121.95 15.0612 121.815L13.4333 119.76C13.3262 119.61 13.3491 119.396 13.5026 119.259L25.2355 110.013C25.4026 109.892 25.599 109.929 25.7229 110.065L27.3509 112.12C27.458 112.27 27.4519 112.47 27.2985 112.607L20.1777 118.22Z" fill="white"/>
<path d="M24.4179 107.444C24.5049 107.639 24.4363 107.847 24.2589 107.92L10.7378 114.309C10.5757 114.384 10.3521 114.313 10.2651 114.119L6.14727 105.418C6.06031 105.224 6.12885 105.016 6.30622 104.942L8.33621 103.974C8.49834 103.899 8.7219 103.969 8.80886 104.164L11.6554 110.217L22.8391 104.933C23.0013 104.858 23.2112 104.911 23.2998 105.09L24.4179 107.444Z" fill="white"/>
<path d="M2.8894 94.0209C2.5956 92.7413 2.53842 91.4102 3.1868 90.1087C3.85697 88.7479 5.14072 87.6995 6.94257 87.277C8.77651 86.8425 10.4866 87.2729 11.7031 88.2819C12.7788 89.1679 13.2701 90.33 13.5416 91.5302L14.3557 94.9919L18.6068 94.0007C18.7809 93.9578 18.9707 94.0553 19.0256 94.2615L19.6165 96.7902C19.6561 96.9948 19.5434 97.1829 19.3693 97.2258L4.79901 100.62C4.62492 100.663 4.42154 100.549 4.38191 100.344L2.8894 94.0209ZM5.86631 91.9837C5.66699 92.5477 5.66572 93.133 5.81181 93.7804L6.51779 96.8146L11.5279 95.643L10.8305 92.6715C10.6828 92.0393 10.454 91.4447 10.0195 91.0436C9.49146 90.5092 8.71421 90.287 7.68652 90.5308C6.6893 90.778 6.10755 91.3163 5.86631 91.9837Z" fill="white"/>
<path d="M1.14507 83.0176C0.960656 83.0131 0.809505 82.8428 0.817203 82.628L0.926471 80.0359C0.932532 79.8363 1.10126 79.7003 1.28567 79.7047L7.29714 79.9659L7.40691 77.5126C7.44868 76.4078 7.61616 74.993 8.21443 73.871C8.89164 72.588 10.0997 71.6702 12.2604 71.7792C14.284 71.8736 15.5021 72.8674 16.1125 74.2118C16.6017 75.2504 16.7481 76.468 16.6981 77.6489L16.4408 83.3373C16.4347 83.537 16.2628 83.7034 16.08 83.6837L1.14507 83.0176ZM10.4505 76.1452C10.2474 76.601 10.1073 77.1867 10.076 77.9075L9.9773 80.1155L13.9026 80.291L14.0124 77.8377C14.0355 77.1931 13.9758 76.6012 13.7475 76.1453C13.4698 75.5762 12.9542 75.2126 12.1421 75.1715C11.3604 75.1337 10.8033 75.4436 10.4505 76.1452ZM1.57489 65.8386C1.58095 65.639 1.74967 65.5031 1.93408 65.5075L16.869 66.1736C17.0534 66.178 17.2062 66.3331 17.2001 66.5327L17.0908 69.1248C17.0848 69.3244 16.9129 69.4908 16.7301 69.4712L1.79522 68.8051C1.61081 68.8006 1.45956 68.6303 1.46562 68.4307L1.57489 65.8386Z" fill="white"/>
<path d="M25.5815 37.8675C25.9432 34.5036 23.5095 31.4835 20.1457 31.1218C16.7819 30.7601 13.7618 33.1938 13.4001 36.5576C13.0383 39.9214 15.472 42.9415 18.8358 43.3033C22.1997 43.665 25.2198 41.2313 25.5815 37.8675Z" fill="white"/>
</svg>
