<svg viewBox="0 0 26 25" xmlns="http://www.w3.org/2000/svg">
<path d="M1.73727e-05 12.0294C-0.00320368 11.4771 0.441893 11.032 0.994168 11.0352L23.99 11.1693C24.5423 11.1725 24.9926 11.6229 24.9958 12.1751L25.0024 13.2997C25.0056 13.8519 24.5605 14.297 24.0082 14.2938L1.01239 14.1597C0.460115 14.1565 0.00979694 13.7061 0.00657588 13.1539L1.73727e-05 12.0294Z" fill="#D73364"/>
<path d="M13.1528 0.00527115C13.7051 0.00785456 14.1549 0.457659 14.1575 1.00994L14.265 24.0056C14.2676 24.5579 13.822 25.0035 13.2697 25.0009L12.1452 24.9956C11.593 24.993 11.1432 24.5432 11.1406 23.991L11.033 0.995321C11.0304 0.443042 11.476 -0.00257223 12.0283 1.11762e-05L13.1528 0.00527115Z" fill="#D73364"/>
</svg>
