<svg viewBox="0 0 20 20" xmlns="http://www.w3.org/2000/svg">
<path d="M0.0211416 15L0 19.1139C0 19.346 0.0845667 19.5781 0.2537 19.7468C0.422833 19.9156 0.634249 20 0.866808 20L4.96829 19.9789C5.20084 19.9789 5.41226 19.8945 5.5814 19.7257L19.7463 5.59072C20.0846 5.25317 20.0846 4.70464 19.7463 4.34599L15.6871 0.253165C15.3488 -0.0843882 14.7992 -0.0843882 14.4397 0.253165L11.6068 3.10127L0.274841 14.3882C0.12685 14.557 0.0211416 14.7679 0.0211416 15ZM15.074 2.1097L17.9281 4.95781L16.3214 6.56118L13.4672 3.71308L15.074 2.1097ZM1.7759 15.3797L12.2199 4.95781L15.074 7.80591L4.63002 18.2068L1.75476 18.2278L1.7759 15.3797Z" fill="#633DB9"/>
</svg>
