<svg viewBox="0 0 24 8" xmlns="http://www.w3.org/2000/svg">
<path opacity="0.4" d="M22.7262 1.402L22.8987 1.29223C23.2343 1.06829 23.3132 0.626137 23.0809 0.30447C22.8466 -0.0200657 22.3857 -0.09331 22.057 0.127573C10.5576 7.88392 2.18675 0.509289 1.83509 0.192403C1.53834 -0.0755253 1.07072 -0.0619477 0.794392 0.222619C0.516673 0.508332 0.530153 0.955263 0.823928 1.22415C0.839786 1.23868 1.10165 1.46989 1.57958 1.81202L0.106538 4.15568C-0.103585 4.48997 0.00663019 4.92638 0.353333 5.13081C0.471873 5.19966 0.606471 5.23427 0.736707 5.23427C0.984295 5.23427 1.22534 5.11284 1.36549 4.89425L2.80582 2.60452C3.61341 3.0788 4.64895 3.59668 5.88273 4.03424L5.17287 6.32377C5.05532 6.70071 5.27516 7.0939 5.66349 7.20597L5.8752 7.23618C6.18899 7.23618 6.48237 7.03729 6.57792 6.72959L7.28084 4.47142C8.41966 4.77185 9.69368 4.97476 11.0686 5.02295V7.29069C11.0686 7.68311 11.3971 8 11.8038 8C12.2102 8 12.5389 7.68311 12.5389 7.29069V5.01033C13.7385 4.94684 15.01 4.74776 16.3375 4.38249L17.2424 6.68464C17.3552 6.96826 17.6347 7.1419 17.9299 7.1419L18.19 7.09715C18.5696 6.95793 18.7621 6.54886 18.6177 6.18283L17.7366 3.93977C18.9454 3.50661 20.1949 2.93633 21.4853 2.17978L22.6765 3.71372C22.8216 3.89903 23.043 3.99848 23.2642 3.99848C23.4185 3.99848 23.5725 3.95334 23.7047 3.856C24.0306 3.62078 24.0964 3.17614 23.8538 2.86308L22.7262 1.402Z" fill="black"/>
</svg>
