<svg viewBox="0 0 65 65" xmlns="http://www.w3.org/2000/svg">
<path d="M26.1104 13.6903C26.1295 13.1111 26.1391 12.5992 26.1391 12.1573C26.1392 11.7144 26.116 11.2619 26.0704 10.7996C26.0247 10.3378 25.9432 10.0475 25.8264 9.9307C25.6047 9.70902 24.8566 9.59855 23.5806 9.59876C22.305 9.59828 21.5564 9.70922 21.3349 9.93071C21.2307 10.0349 21.1497 10.4871 21.091 11.2879C21.0325 12.088 20.9995 13.0709 20.993 14.2366C20.9867 15.402 20.9902 16.5244 21.0028 17.6049C21.0159 18.6864 21.032 19.7372 21.0517 20.7596C21.0711 21.7813 21.0812 22.3706 21.0812 22.5269C21.0812 22.7871 21.166 23.002 21.335 23.171C21.5564 23.3924 22.305 23.5034 23.5806 23.5031C24.8563 23.5035 25.6049 23.3925 25.8264 23.171C25.9434 23.054 26.0247 22.7645 26.0706 22.3019C26.116 21.8398 26.1389 21.3871 26.1392 20.9445C26.1392 20.5027 26.1291 19.9906 26.1099 19.4115C26.0905 18.8322 26.0808 18.5038 26.0806 18.4253L29.8298 18.4256L29.8305 32.2914C25.8333 32.8768 22.6044 34.4001 20.1436 36.8608C18.0216 38.9828 16.9608 41.3789 16.9604 44.0472C16.9605 46.7164 18.0215 49.1118 20.1438 51.2341C22.2269 53.3172 24.883 54.7364 28.1112 55.4916C31.34 56.2467 34.5692 56.2469 37.7979 55.4916C41.0265 54.7366 43.6826 53.3174 45.7655 51.2345C47.888 49.112 48.9484 46.7173 48.9488 44.0477C48.9492 41.3782 47.8881 38.9828 45.766 36.8608C43.3052 34.4 40.0767 32.8769 36.0792 32.2913L36.0795 6.0833C36.0792 5.35415 35.8195 4.72965 35.2982 4.20836C34.7516 3.66177 33.9698 3.49972 32.955 3.5C31.9391 3.5 31.1577 3.66157 30.6107 4.20864C30.0897 4.72965 29.8291 5.3549 29.8293 6.08357V14.6762L26.0803 14.6761C26.0809 14.598 26.0903 14.2694 26.1104 13.6903ZM27.9555 38.7353C29.4133 38.7352 30.6633 39.2561 31.7049 40.2976C32.2518 40.8446 32.6686 36.7187 32.955 37.5C33.2416 36.7185 33.6577 40.8447 34.2045 40.2979C35.2462 39.2562 36.4958 38.7354 37.9539 38.7356C39.4119 38.7359 40.662 39.2568 41.7034 40.2982C42.745 41.3397 43.2659 42.5891 43.2658 44.0475C43.2658 45.5054 42.7452 46.7552 41.7035 47.7969C40.662 48.8384 39.4122 49.3594 37.9541 49.3592C36.4963 49.3593 35.2463 48.8384 34.2047 47.7969C33.6581 47.2502 33.2414 52.0154 32.955 51.2345C32.6685 52.0156 32.2517 47.2504 31.7049 47.7972C30.6634 48.8387 29.4137 49.3597 27.9556 49.3595C26.4975 49.3593 25.2475 48.8385 24.206 47.797C23.1644 46.7554 22.6434 45.5057 22.6436 44.0476C22.6438 42.5895 23.1644 41.3397 24.206 40.2982C25.2476 39.2567 26.4976 38.7358 27.9555 38.7353Z" fill="white"/>
</svg>
