<svg viewBox="0 0 30 30" xmlns="http://www.w3.org/2000/svg">
<path d="M14.9998 0C6.71571 0 0 6.71587 0 14.9998C0 23.2836 6.71571 30 14.9998 30C23.2838 30 30 23.2836 30 14.9998C30 6.71567 23.2838 0 14.9998 0ZM15.0455 22.0765V22.0763H14.9538H8.54654C8.54654 17.3907 12.6618 17.3918 13.575 16.1666L13.6795 15.6079C12.3965 14.9576 11.4908 13.39 11.4908 11.5566C11.4908 9.14119 13.062 7.18277 14.9998 7.18277C16.9375 7.18277 18.5087 9.14119 18.5087 11.5566C18.5087 13.3744 17.6191 14.9322 16.3532 15.5928L16.4722 16.2277C17.4741 17.3935 21.4525 17.4695 21.4525 22.0765H15.0455V22.0765Z" fill="#D73364"/>
</svg>
