<svg viewBox="0 0 180 100" xmlns="http://www.w3.org/2000/svg">
<path d="M12.3586 24.1308H28.5887V32.8015H1.64355V0H28.0978V8.67077H12.3546V12.1947H24.2787V20.156H12.3546V24.1308H12.3586Z" fill="#573E90"/>
<path d="M52.413 32.7976H42.8633V30.2144C42.7396 30.43 42.5241 30.7083 42.2248 31.0611C41.9215 31.4139 41.2391 31.8646 40.1736 32.4213C39.1081 32.9779 37.9428 33.2562 36.6698 33.2562C34.7622 33.2562 33.13 32.6094 31.7812 31.3119C30.4323 30.0145 29.7539 28.4818 29.7539 26.7139C29.7539 23.0253 32.2241 20.5989 37.1606 19.4386L43.1227 18.0431C43.1227 17.5414 42.8673 17.1024 42.3525 16.7261C41.8417 16.3537 41.1433 16.1655 40.2574 16.1655C39.4952 16.1655 38.733 16.3458 37.9628 16.7025C37.1926 17.0593 36.6379 17.416 36.2986 17.7648L35.716 18.2666L31.1985 13.5784C31.2903 13.4569 31.422 13.2962 31.5936 13.0963C31.7652 12.9003 32.1683 12.5475 32.8028 12.0457C33.4373 11.544 34.1237 11.0971 34.854 10.709C35.5843 10.321 36.5461 9.96035 37.7433 9.635C38.9365 9.30573 40.1736 9.14502 41.4466 9.14502C44.723 9.14502 47.3688 10.0427 49.3881 11.8341C51.4074 13.6254 52.417 15.848 52.417 18.5018V32.7976H52.413ZM40.4889 26.4866C41.2192 26.4866 41.8377 26.2043 42.3525 25.6399C42.8633 25.0754 43.1227 24.3346 43.1227 23.4212V22.7352L40.4929 23.4212C39.5471 23.6643 39.0722 24.213 39.0722 25.0676C39.0682 26.0123 39.5431 26.4866 40.4889 26.4866Z" fill="#573E90"/>
<path d="M74.8176 13.1275L70.5077 17.5648C69.7175 16.7887 68.8476 16.3967 67.8978 16.3967C67.355 16.3967 66.9001 16.5221 66.537 16.773C66.1738 17.0239 65.9902 17.2865 65.9902 17.5609C65.9902 17.8667 66.3175 18.1646 66.9679 18.4547C67.6184 18.7447 68.4166 19.0544 69.3544 19.3797C70.2922 19.709 71.23 20.1049 72.1598 20.5675C73.0897 21.0339 73.8838 21.7356 74.5343 22.6724C75.1848 23.6093 75.512 24.7186 75.512 26.0004C75.512 27.9996 74.5423 29.7478 72.6028 31.2491C70.6633 32.7505 68.0614 33.5031 64.801 33.5031C63.3404 33.5031 61.9477 33.3384 60.6188 33.0131C59.2899 32.6838 58.2243 32.2918 57.4182 31.8332C56.6121 31.3746 55.8978 30.9238 55.2752 30.473C54.6527 30.0222 54.2177 29.6381 53.9703 29.3166L53.5752 28.8149L57.8851 24.3541C58.0088 24.507 58.2084 24.7029 58.4798 24.9381C58.7511 25.1733 59.2579 25.4908 60.0042 25.8867C60.7504 26.2826 61.4728 26.4826 62.1712 26.4826C62.7458 26.4826 63.2087 26.3414 63.5559 26.0592C63.9071 25.777 64.0787 25.4438 64.0787 25.0636C64.0787 24.7578 63.7514 24.4638 63.101 24.1816C62.4505 23.8994 61.6524 23.6015 60.7145 23.2879C59.7767 22.9743 58.8349 22.5823 57.8971 22.108C56.9593 21.6337 56.1612 20.9281 55.5107 19.9912C54.8602 19.0544 54.533 17.9294 54.533 16.6162C54.533 14.6798 55.5027 12.9472 57.4422 11.4224C59.3816 9.89755 61.9118 9.13318 65.0325 9.13318C66.3374 9.13318 67.5586 9.2743 68.6999 9.55653C69.8412 9.83876 70.7671 10.1759 71.4814 10.5639C72.1957 10.952 72.8143 11.3322 73.3451 11.7085C73.8719 12.0809 74.247 12.4063 74.4625 12.6807L74.8176 13.1275Z" fill="#573E90"/>
<path d="M78.8475 33.9656C80.3081 33.9656 81.5333 33.264 82.5269 31.8607L74.3301 9.83093H84.0873L87.6749 22.0218L91.2626 9.83093H101.02L92.4518 33.0249C90.0933 39.4299 86.5137 42.6325 81.7168 42.6325C80.8309 42.6325 79.949 42.558 79.075 42.4051C78.1971 42.2523 77.5346 42.0915 77.0837 41.923L76.4771 41.6956V33.507C77.1116 33.8127 77.9017 33.9656 78.8475 33.9656Z" fill="#573E90"/>
<path d="M43.5664 55.2075C43.5664 57.3399 43.2152 59.3822 42.5168 61.3304C41.8184 63.2785 40.9604 64.8896 39.9468 66.1558C38.9332 67.4258 37.9315 68.5469 36.9458 69.5151C35.9601 70.4833 35.1141 71.1889 34.4157 71.6318L33.3661 72.2668C33.5457 72.4785 33.8091 72.7294 34.1603 73.0194C34.5115 73.3095 35.3535 73.7133 36.6904 74.2229C38.0273 74.7324 39.4879 74.9912 41.0682 74.9912L43.275 74.7011V84.195C42.5367 84.3714 41.7147 84.4616 40.7968 84.4616C38.4822 84.4616 36.2953 84.1441 34.2401 83.509C32.1849 82.874 30.5008 82.1057 29.1919 81.2081C27.8829 80.3104 26.7416 79.4089 25.7719 78.5112C24.8021 77.6135 24.1117 76.8531 23.6967 76.2377L23.1061 75.2577H21.7852C15.6475 75.2577 10.4795 73.286 6.28933 69.3465C2.09911 65.407 0 60.6953 0 55.2075C0 49.7236 2.09511 45.0119 6.28933 41.0685C10.4795 37.1291 15.6475 35.1573 21.7852 35.1573C27.9229 35.1573 33.0908 37.1291 37.281 41.0685C41.4712 45.0119 43.5664 49.7236 43.5664 55.2075ZM15.1167 48.6888C13.293 50.4801 12.3831 52.6557 12.3831 55.2232C12.3831 57.7868 13.293 59.9623 15.1167 61.742C16.9405 63.5216 19.1553 64.4153 21.7692 64.4153C24.3831 64.4153 26.5979 63.5255 28.4217 61.742C30.2454 59.9623 31.1553 57.7868 31.1553 55.2232C31.1553 52.6557 30.2454 50.4801 28.4217 48.6888C26.5979 46.8974 24.3831 46.0036 21.7692 46.0036C19.1553 46.0036 16.9405 46.8974 15.1167 48.6888Z" fill="#D31F3A"/>
<path d="M63.1166 74.1721V71.1812C62.937 71.4281 62.6816 71.7535 62.3504 72.1611C62.0192 72.5688 61.2211 73.0902 59.952 73.733C58.687 74.3759 57.2982 74.6973 55.7937 74.6973C52.9204 74.6973 50.5739 73.7134 48.7541 71.7496C46.9304 69.7818 46.0205 67.1241 46.0205 63.7765V47.6149H57.0627V61.4481C57.0627 62.3811 57.3182 63.1102 57.829 63.6315C58.3398 64.1529 59.0341 64.4116 59.9161 64.4116C60.8659 64.4116 61.6401 64.0823 62.2307 63.4198C62.8213 62.7574 63.1206 61.8284 63.1206 60.6289V47.6149H74.1589V74.1681H63.1166V74.1721Z" fill="#D31F3A"/>
<path d="M87.3835 47.6149V74.1681H76.3691V47.6149H87.3835Z" fill="#D31F3A"/>
<path d="M148.007 63.3257H130.639C130.963 64.1175 131.585 64.8153 132.511 65.415C133.437 66.0147 134.65 66.3126 136.159 66.3126C137.144 66.3126 138.074 66.1598 138.944 65.8501C139.814 65.5404 140.449 65.2268 140.844 64.9093L141.41 64.4076L145.8 71.1772C145.477 71.4595 145.01 71.8122 144.399 72.2356C143.789 72.6589 142.5 73.2234 140.536 73.929C138.569 74.6345 136.566 74.9873 134.518 74.9873C130.173 74.9873 126.513 73.6036 123.532 70.8362C120.551 68.0687 119.062 64.7525 119.062 60.8914C119.062 57.0304 120.499 53.7181 123.372 50.9585C126.246 48.1989 129.774 46.8191 133.956 46.8191C138.03 46.8191 141.486 48.1558 144.324 50.8252C147.161 53.4946 148.578 56.6737 148.578 60.3623C148.578 60.9424 148.534 61.4794 148.442 61.9616C148.35 62.4477 148.242 62.7965 148.119 63.0082L148.007 63.3257ZM136.131 55.8152C135.484 55.2351 134.758 54.9411 133.952 54.9411C133.142 54.9411 132.415 55.2272 131.769 55.7995C131.122 56.3718 130.655 57.0813 130.368 57.928H137.531C137.244 57.1009 136.777 56.3954 136.131 55.8152Z" fill="#D31F3A"/>
<path d="M179.43 63.3257H162.062C162.386 64.1175 163.008 64.8153 163.934 65.415C164.86 66.0147 166.073 66.3126 167.581 66.3126C168.567 66.3126 169.497 66.1598 170.367 65.8501C171.237 65.5404 171.871 65.2268 172.267 64.9093L172.833 64.4076L177.223 71.1772C176.9 71.4595 176.433 71.8122 175.822 72.2356C175.212 72.6589 173.923 73.2234 171.959 73.929C169.992 74.6345 167.989 74.9873 165.941 74.9873C161.595 74.9873 157.936 73.6036 154.955 70.8362C151.974 68.0687 150.485 64.7525 150.485 60.8914C150.485 57.0304 151.922 53.7181 154.795 50.9585C157.669 48.1989 161.196 46.8191 165.379 46.8191C169.453 46.8191 172.909 48.1558 175.746 50.8252C178.584 53.4946 180.001 56.6737 180.001 60.3623C180.001 60.9424 179.957 61.4794 179.865 61.9616C179.773 62.4477 179.665 62.7965 179.542 63.0082L179.43 63.3257ZM167.554 55.8152C166.907 55.2351 166.181 54.9411 165.375 54.9411C164.565 54.9411 163.838 55.2272 163.192 55.7995C162.545 56.3718 162.078 57.0813 161.791 57.928H168.954C168.667 57.1009 168.2 56.3954 167.554 55.8152Z" fill="#D31F3A"/>
<path d="M118.479 17.4121L109.911 42.3347L119.254 40.8255L120.499 45.3648L109.808 65.6933L117.598 64.7799L118.799 69.2799L84.5586 100L111.727 53.0438L105.482 42.9776L118.479 17.4121Z" fill="url(#paint0_linear)"/>
<path d="M90.1179 50.5312L91.3311 55.0195L101.599 54.2159L89.4834 72.5923L90.6926 77.0727L98.0115 76.5867L109.908 54.0003L104.764 49.1396L90.1179 50.5312Z" fill="url(#paint1_linear)"/>
<path d="M118.479 17.4121L106.044 42.6718L119.254 40.8255L104.903 66.1088L117.598 64.7799L84.5586 100L100.525 71.7103L89.4831 72.5923L102.636 49.3748L90.1176 50.5312L118.479 17.4121Z" fill="url(#paint2_linear)"/>
<defs>
<linearGradient id="paint0_linear" x1="101.995" y1="58.8646" x2="123.081" y2="66.1605" gradientUnits="userSpaceOnUse">
<stop stop-color="#F29222"/>
<stop offset="0.4515" stop-color="#F7AC20"/>
<stop offset="1" stop-color="#F8E82F"/>
</linearGradient>
<linearGradient id="paint1_linear" x1="85.2853" y1="60.1707" x2="103.287" y2="64.5735" gradientUnits="userSpaceOnUse">
<stop stop-color="#F8E82F"/>
<stop offset="0.5485" stop-color="#F7AC20"/>
<stop offset="1" stop-color="#F29222"/>
</linearGradient>
<linearGradient id="paint2_linear" x1="101.905" y1="99.9981" x2="101.905" y2="17.4127" gradientUnits="userSpaceOnUse">
<stop stop-color="#F8AF3C"/>
<stop offset="0.5" stop-color="#F8E82F"/>
<stop offset="1" stop-color="#F8AF3C"/>
</linearGradient>
</defs>
</svg>
