<svg viewBox="0 0 263 294" xmlns="http://www.w3.org/2000/svg">
<path d="M262.472 52.2367C262.472 54.5751 260.573 56.4734 258.235 56.4734C255.897 56.4734 253.998 54.5751 253.998 52.2367C253.998 49.8983 255.897 48 258.235 48C260.582 48 262.472 49.8983 262.472 52.2367Z" fill="#F4E729"/>
<path d="M262.472 35.2367C262.472 37.5751 260.573 39.4734 258.235 39.4734C255.897 39.4734 253.998 37.5751 253.998 35.2367C253.998 32.8983 255.897 31 258.235 31C260.582 31 262.472 32.8983 262.472 35.2367Z" fill="#F4E729"/>
<path d="M241.48 56.4726C243.82 56.4726 245.717 54.5758 245.717 52.236C245.717 49.8961 243.82 47.9993 241.48 47.9993C239.141 47.9993 237.244 49.8961 237.244 52.236C237.244 54.5758 239.141 56.4726 241.48 56.4726Z" fill="#F4E729"/>
<path d="M228.77 69.1825C228.77 71.5209 226.872 73.4192 224.533 73.4192C222.195 73.4192 220.297 71.5209 220.297 69.1825C220.297 66.8441 222.195 64.9458 224.533 64.9458C226.872 64.9458 228.77 66.8441 228.77 69.1825Z" fill="#F4E729"/>
<path d="M245.718 69.1825C245.718 71.5209 243.819 73.4192 241.481 73.4192C239.142 73.4192 237.244 71.5209 237.244 69.1825C237.244 66.8441 239.142 64.9458 241.481 64.9458C243.819 64.9458 245.718 66.8441 245.718 69.1825Z" fill="#F4E729"/>
<path d="M262.472 69.2367C262.472 71.5751 260.573 73.4734 258.235 73.4734C255.897 73.4734 253.998 71.5751 253.998 69.2367C253.998 66.8983 255.897 65 258.235 65C260.582 65 262.472 66.8983 262.472 69.2367Z" fill="#F4E729"/>
<path d="M211.823 86.1292C211.823 88.4676 209.925 90.3659 207.586 90.3659C205.248 90.3659 203.35 88.4676 203.35 86.1292C203.35 83.7909 205.248 81.8926 207.586 81.8926C209.925 81.8926 211.823 83.7909 211.823 86.1292Z" fill="#F4E729"/>
<path d="M228.77 86.1295C228.77 88.4678 226.872 90.3662 224.533 90.3662C222.195 90.3662 220.297 88.4678 220.297 86.1295C220.297 83.7911 222.195 81.8928 224.533 81.8928C226.872 81.8928 228.77 83.7911 228.77 86.1295Z" fill="#F4E729"/>
<path d="M245.718 86.1295C245.718 88.4678 243.819 90.3662 241.481 90.3662C239.142 90.3662 237.244 88.4678 237.244 86.1295C237.244 83.7911 239.142 81.8928 241.481 81.8928C243.819 81.8928 245.718 83.7911 245.718 86.1295Z" fill="#F4E729"/>
<path d="M262.656 86.1295C262.656 88.4678 260.758 90.3662 258.419 90.3662C256.081 90.3662 254.183 88.4678 254.183 86.1295C254.183 83.7911 256.081 81.8928 258.419 81.8928C260.766 81.8928 262.656 83.7911 262.656 86.1295Z" fill="#F4E729"/>
<path d="M194.877 103.076C194.877 105.414 192.979 107.313 190.64 107.313C188.302 107.313 186.404 105.414 186.404 103.076C186.404 100.738 188.302 98.8394 190.64 98.8394C192.979 98.8394 194.877 100.738 194.877 103.076Z" fill="#F4E729"/>
<path d="M211.824 103.076C211.824 105.414 209.925 107.313 207.587 107.313C205.249 107.313 203.35 105.414 203.35 103.076C203.35 100.738 205.249 98.8394 207.587 98.8394C209.925 98.8394 211.824 100.738 211.824 103.076Z" fill="#F4E729"/>
<path d="M228.77 103.076C228.77 105.414 226.872 107.313 224.534 107.313C222.195 107.313 220.297 105.414 220.297 103.076C220.297 100.738 222.195 98.8394 224.534 98.8394C226.872 98.8394 228.77 100.738 228.77 103.076Z" fill="#F4E729"/>
<path d="M245.718 103.076C245.718 105.414 243.819 107.312 241.481 107.312C239.143 107.312 237.244 105.414 237.244 103.076C237.244 100.737 239.143 98.8391 241.481 98.8391C243.819 98.8391 245.718 100.737 245.718 103.076Z" fill="#F4E729"/>
<path d="M262.656 103.076C262.656 105.414 260.758 107.312 258.42 107.312C256.081 107.312 254.183 105.414 254.183 103.076C254.183 100.737 256.081 98.8391 258.42 98.8391C260.767 98.8391 262.656 100.737 262.656 103.076Z" fill="#F4E729"/>
<path d="M173.694 124.259C176.034 124.259 177.931 122.363 177.931 120.023C177.931 117.683 176.034 115.786 173.694 115.786C171.355 115.786 169.458 117.683 169.458 120.023C169.458 122.363 171.355 124.259 173.694 124.259Z" fill="#F4E729"/>
<path d="M194.876 120.023C194.876 122.361 192.978 124.259 190.64 124.259C188.301 124.259 186.403 122.361 186.403 120.023C186.403 117.684 188.301 115.786 190.64 115.786C192.978 115.786 194.876 117.684 194.876 120.023Z" fill="#F4E729"/>
<path d="M211.823 120.023C211.823 122.361 209.925 124.259 207.586 124.259C205.248 124.259 203.35 122.361 203.35 120.023C203.35 117.684 205.248 115.786 207.586 115.786C209.925 115.786 211.823 117.684 211.823 120.023Z" fill="#F4E729"/>
<path d="M228.77 120.023C228.77 122.361 226.872 124.259 224.533 124.259C222.195 124.259 220.297 122.361 220.297 120.023C220.297 117.684 222.195 115.786 224.533 115.786C226.872 115.786 228.77 117.684 228.77 120.023Z" fill="#F4E729"/>
<path d="M241.481 124.259C243.82 124.259 245.717 122.363 245.717 120.023C245.717 117.683 243.82 115.786 241.481 115.786C239.141 115.786 237.244 117.683 237.244 120.023C237.244 122.363 239.141 124.259 241.481 124.259Z" fill="#F4E729"/>
<path d="M258.427 124.259C260.767 124.259 262.664 122.363 262.664 120.023C262.664 117.683 260.767 115.786 258.427 115.786C256.087 115.786 254.19 117.683 254.19 120.023C254.19 122.363 256.087 124.259 258.427 124.259Z" fill="#F4E729"/>
<path d="M160.983 136.97C160.983 139.308 159.085 141.206 156.746 141.206C154.408 141.206 152.51 139.308 152.51 136.97C152.51 134.631 154.408 132.733 156.746 132.733C159.085 132.733 160.983 134.631 160.983 136.97Z" fill="#F4E729"/>
<path d="M173.694 141.206C176.034 141.206 177.931 139.309 177.931 136.97C177.931 134.63 176.034 132.733 173.694 132.733C171.355 132.733 169.458 134.63 169.458 136.97C169.458 139.309 171.355 141.206 173.694 141.206Z" fill="#F4E729"/>
<path d="M194.876 136.97C194.876 139.308 192.978 141.206 190.64 141.206C188.301 141.206 186.403 139.308 186.403 136.97C186.403 134.631 188.301 132.733 190.64 132.733C192.978 132.733 194.876 134.631 194.876 136.97Z" fill="#F4E729"/>
<path d="M211.823 136.97C211.823 139.308 209.925 141.206 207.586 141.206C205.248 141.206 203.35 139.308 203.35 136.97C203.35 134.631 205.248 132.733 207.586 132.733C209.925 132.733 211.823 134.631 211.823 136.97Z" fill="#F4E729"/>
<path d="M228.77 136.97C228.77 139.308 226.872 141.206 224.533 141.206C222.195 141.206 220.297 139.308 220.297 136.97C220.297 134.631 222.195 132.733 224.533 132.733C226.872 132.733 228.77 134.631 228.77 136.97Z" fill="#F4E729"/>
<path d="M241.481 141.206C243.82 141.206 245.717 139.309 245.717 136.969C245.717 134.63 243.82 132.733 241.481 132.733C239.141 132.733 237.244 134.63 237.244 136.969C237.244 139.309 239.141 141.206 241.481 141.206Z" fill="#F4E729"/>
<path d="M258.427 141.206C260.767 141.206 262.664 139.309 262.664 136.969C262.664 134.63 260.767 132.733 258.427 132.733C256.087 132.733 254.19 134.63 254.19 136.969C254.19 139.309 256.087 141.206 258.427 141.206Z" fill="#F4E729"/>
<path d="M144.037 153.916C144.037 156.255 142.138 158.153 139.8 158.153C137.462 158.153 135.563 156.255 135.563 153.916C135.563 151.578 137.462 149.68 139.8 149.68C142.138 149.68 144.037 151.578 144.037 153.916Z" fill="#F4E729"/>
<path d="M160.984 153.916C160.984 156.255 159.085 158.153 156.747 158.153C154.409 158.153 152.51 156.255 152.51 153.916C152.51 151.578 154.409 149.68 156.747 149.68C159.085 149.68 160.984 151.578 160.984 153.916Z" fill="#F4E729"/>
<path d="M177.932 153.916C177.932 156.255 176.033 158.153 173.695 158.153C171.357 158.153 169.458 156.255 169.458 153.916C169.458 151.578 171.357 149.68 173.695 149.68C176.033 149.68 177.932 151.578 177.932 153.916Z" fill="#F4E729"/>
<path d="M194.877 153.916C194.877 156.255 192.979 158.153 190.64 158.153C188.302 158.153 186.404 156.255 186.404 153.916C186.404 151.578 188.302 149.68 190.64 149.68C192.979 149.68 194.877 151.578 194.877 153.916Z" fill="#F4E729"/>
<path d="M211.824 153.916C211.824 156.255 209.925 158.153 207.587 158.153C205.249 158.153 203.35 156.255 203.35 153.916C203.35 151.578 205.249 149.68 207.587 149.68C209.925 149.68 211.824 151.578 211.824 153.916Z" fill="#F4E729"/>
<path d="M228.77 153.916C228.77 156.255 226.872 158.153 224.534 158.153C222.195 158.153 220.297 156.255 220.297 153.916C220.297 151.578 222.195 149.68 224.534 149.68C226.872 149.68 228.77 151.578 228.77 153.916Z" fill="#F4E729"/>
<path d="M245.718 153.916C245.718 156.254 243.819 158.153 241.481 158.153C239.142 158.153 237.244 156.254 237.244 153.916C237.244 151.578 239.142 149.679 241.481 149.679C243.819 149.679 245.718 151.578 245.718 153.916Z" fill="#F4E729"/>
<path d="M262.656 153.916C262.656 156.254 260.758 158.153 258.419 158.153C256.081 158.153 254.183 156.254 254.183 153.916C254.183 151.578 256.081 149.679 258.419 149.679C260.766 149.679 262.656 151.578 262.656 153.916Z" fill="#F4E729"/>
<path d="M127.09 170.863C127.09 173.201 125.192 175.099 122.854 175.099C120.515 175.099 118.617 173.201 118.617 170.863C118.617 168.524 120.515 166.626 122.854 166.626C125.192 166.626 127.09 168.524 127.09 170.863Z" fill="#F4E729"/>
<path d="M144.037 170.863C144.037 173.201 142.138 175.099 139.8 175.099C137.462 175.099 135.563 173.201 135.563 170.863C135.563 168.524 137.462 166.626 139.8 166.626C142.138 166.626 144.037 168.524 144.037 170.863Z" fill="#F4E729"/>
<path d="M160.984 170.863C160.984 173.201 159.085 175.099 156.747 175.099C154.409 175.099 152.51 173.201 152.51 170.863C152.51 168.524 154.409 166.626 156.747 166.626C159.085 166.626 160.984 168.524 160.984 170.863Z" fill="#F4E729"/>
<path d="M177.932 170.863C177.932 173.201 176.033 175.099 173.695 175.099C171.357 175.099 169.458 173.201 169.458 170.863C169.458 168.524 171.357 166.626 173.695 166.626C176.033 166.626 177.932 168.524 177.932 170.863Z" fill="#F4E729"/>
<path d="M194.877 170.863C194.877 173.201 192.979 175.099 190.64 175.099C188.302 175.099 186.404 173.201 186.404 170.863C186.404 168.524 188.302 166.626 190.64 166.626C192.979 166.626 194.877 168.524 194.877 170.863Z" fill="#F4E729"/>
<path d="M211.824 170.863C211.824 173.201 209.925 175.099 207.587 175.099C205.249 175.099 203.35 173.201 203.35 170.863C203.35 168.524 205.249 166.626 207.587 166.626C209.925 166.626 211.824 168.524 211.824 170.863Z" fill="#F4E729"/>
<path d="M228.77 170.863C228.77 173.201 226.872 175.099 224.534 175.099C222.195 175.099 220.297 173.201 220.297 170.863C220.297 168.524 222.195 166.626 224.534 166.626C226.872 166.626 228.77 168.524 228.77 170.863Z" fill="#F4E729"/>
<path d="M245.718 170.863C245.718 173.201 243.819 175.099 241.481 175.099C239.142 175.099 237.244 173.201 237.244 170.863C237.244 168.524 239.142 166.626 241.481 166.626C243.819 166.626 245.718 168.524 245.718 170.863Z" fill="#F4E729"/>
<path d="M262.656 170.863C262.656 173.201 260.758 175.099 258.419 175.099C256.081 175.099 254.183 173.201 254.183 170.863C254.183 168.524 256.081 166.626 258.419 166.626C260.766 166.626 262.656 168.524 262.656 170.863Z" fill="#F4E729"/>
<path d="M110.145 187.81C110.145 190.148 108.246 192.046 105.908 192.046C103.569 192.046 101.671 190.148 101.671 187.81C101.671 185.471 103.569 183.573 105.908 183.573C108.246 183.573 110.145 185.471 110.145 187.81Z" fill="#F4E729"/>
<path d="M127.09 187.81C127.09 190.148 125.192 192.046 122.854 192.046C120.515 192.046 118.617 190.148 118.617 187.81C118.617 185.471 120.515 183.573 122.854 183.573C125.192 183.573 127.09 185.471 127.09 187.81Z" fill="#F4E729"/>
<path d="M144.037 187.81C144.037 190.148 142.139 192.046 139.8 192.046C137.462 192.046 135.563 190.148 135.563 187.81C135.563 185.471 137.462 183.573 139.8 183.573C142.139 183.573 144.037 185.471 144.037 187.81Z" fill="#F4E729"/>
<path d="M160.984 187.81C160.984 190.148 159.086 192.046 156.747 192.046C154.409 192.046 152.511 190.148 152.511 187.81C152.511 185.471 154.409 183.573 156.747 183.573C159.086 183.573 160.984 185.471 160.984 187.81Z" fill="#F4E729"/>
<path d="M177.932 187.81C177.932 190.148 176.034 192.046 173.695 192.046C171.357 192.046 169.459 190.148 169.459 187.81C169.459 185.471 171.357 183.573 173.695 183.573C176.034 183.573 177.932 185.471 177.932 187.81Z" fill="#F4E729"/>
<path d="M194.877 187.81C194.877 190.148 192.979 192.046 190.641 192.046C188.302 192.046 186.404 190.148 186.404 187.81C186.404 185.471 188.302 183.573 190.641 183.573C192.979 183.573 194.877 185.471 194.877 187.81Z" fill="#F4E729"/>
<path d="M211.824 187.81C211.824 190.148 209.926 192.046 207.587 192.046C205.249 192.046 203.351 190.148 203.351 187.81C203.351 185.471 205.249 183.573 207.587 183.573C209.926 183.573 211.824 185.471 211.824 187.81Z" fill="#F4E729"/>
<path d="M228.771 187.81C228.771 190.148 226.873 192.046 224.534 192.046C222.196 192.046 220.298 190.148 220.298 187.81C220.298 185.471 222.196 183.573 224.534 183.573C226.873 183.573 228.771 185.471 228.771 187.81Z" fill="#F4E729"/>
<path d="M245.718 187.81C245.718 190.148 243.819 192.046 241.481 192.046C239.143 192.046 237.244 190.148 237.244 187.81C237.244 185.471 239.143 183.573 241.481 183.573C243.819 183.573 245.718 185.471 245.718 187.81Z" fill="#F4E729"/>
<path d="M262.656 187.81C262.656 190.148 260.758 192.046 258.42 192.046C256.081 192.046 254.183 190.148 254.183 187.81C254.183 185.471 256.081 183.573 258.42 183.573C260.767 183.573 262.656 185.471 262.656 187.81Z" fill="#F4E729"/>
<path d="M88.9608 208.993C91.3007 208.993 93.1975 207.096 93.1975 204.756C93.1975 202.416 91.3007 200.519 88.9608 200.519C86.621 200.519 84.7241 202.416 84.7241 204.756C84.7241 207.096 86.621 208.993 88.9608 208.993Z" fill="#F4E729"/>
<path d="M110.144 204.756C110.144 207.094 108.246 208.993 105.908 208.993C103.569 208.993 101.671 207.094 101.671 204.756C101.671 202.418 103.569 200.519 105.908 200.519C108.246 200.519 110.144 202.409 110.144 204.756Z" fill="#F4E729"/>
<path d="M127.09 204.756C127.09 207.094 125.192 208.993 122.853 208.993C120.515 208.993 118.617 207.094 118.617 204.756C118.617 202.418 120.515 200.519 122.853 200.519C125.192 200.519 127.09 202.409 127.09 204.756Z" fill="#F4E729"/>
<path d="M144.037 204.756C144.037 207.094 142.139 208.993 139.8 208.993C137.462 208.993 135.563 207.094 135.563 204.756C135.563 202.418 137.462 200.519 139.8 200.519C142.139 200.519 144.037 202.409 144.037 204.756Z" fill="#F4E729"/>
<path d="M160.984 204.756C160.984 207.094 159.086 208.993 156.747 208.993C154.409 208.993 152.511 207.094 152.511 204.756C152.511 202.418 154.409 200.519 156.747 200.519C159.086 200.519 160.984 202.409 160.984 204.756Z" fill="#F4E729"/>
<path d="M173.695 208.993C176.035 208.993 177.932 207.096 177.932 204.756C177.932 202.416 176.035 200.519 173.695 200.519C171.356 200.519 169.459 202.416 169.459 204.756C169.459 207.096 171.356 208.993 173.695 208.993Z" fill="#F4E729"/>
<path d="M194.877 204.756C194.877 207.094 192.979 208.993 190.641 208.993C188.302 208.993 186.404 207.094 186.404 204.756C186.404 202.418 188.302 200.519 190.641 200.519C192.979 200.519 194.877 202.409 194.877 204.756Z" fill="#F4E729"/>
<path d="M211.824 204.756C211.824 207.094 209.926 208.993 207.587 208.993C205.249 208.993 203.351 207.094 203.351 204.756C203.351 202.418 205.249 200.519 207.587 200.519C209.926 200.519 211.824 202.409 211.824 204.756Z" fill="#F4E729"/>
<path d="M228.771 204.756C228.771 207.094 226.873 208.993 224.534 208.993C222.196 208.993 220.298 207.094 220.298 204.756C220.298 202.418 222.196 200.519 224.534 200.519C226.873 200.519 228.771 202.409 228.771 204.756Z" fill="#F4E729"/>
<path d="M241.481 208.993C243.821 208.993 245.718 207.096 245.718 204.756C245.718 202.416 243.821 200.519 241.481 200.519C239.141 200.519 237.244 202.416 237.244 204.756C237.244 207.096 239.141 208.993 241.481 208.993Z" fill="#F4E729"/>
<path d="M258.427 208.993C260.767 208.993 262.664 207.096 262.664 204.756C262.664 202.416 260.767 200.519 258.427 200.519C256.088 200.519 254.191 202.416 254.191 204.756C254.191 207.096 256.088 208.993 258.427 208.993Z" fill="#F4E729"/>
<path d="M72.0222 225.931C74.3621 225.931 76.2589 224.034 76.2589 221.694C76.2589 219.355 74.3621 217.458 72.0222 217.458C69.6824 217.458 67.7856 219.355 67.7856 221.694C67.7856 224.034 69.6824 225.931 72.0222 225.931Z" fill="#F4E729"/>
<path d="M88.9611 225.931C91.3009 225.931 93.1978 224.034 93.1978 221.694C93.1978 219.355 91.3009 217.458 88.9611 217.458C86.6212 217.458 84.7244 219.355 84.7244 221.694C84.7244 224.034 86.6212 225.931 88.9611 225.931Z" fill="#F4E729"/>
<path d="M110.145 221.694C110.145 224.033 108.246 225.931 105.908 225.931C103.569 225.931 101.671 224.033 101.671 221.694C101.671 219.356 103.569 217.458 105.908 217.458C108.246 217.458 110.145 219.356 110.145 221.694Z" fill="#F4E729"/>
<path d="M127.09 221.694C127.09 224.033 125.192 225.931 122.854 225.931C120.515 225.931 118.617 224.033 118.617 221.694C118.617 219.356 120.515 217.458 122.854 217.458C125.192 217.466 127.09 219.356 127.09 221.694Z" fill="#F4E729"/>
<path d="M144.037 221.694C144.037 224.033 142.139 225.931 139.8 225.931C137.462 225.931 135.563 224.033 135.563 221.694C135.563 219.356 137.462 217.458 139.8 217.458C142.139 217.466 144.037 219.356 144.037 221.694Z" fill="#F4E729"/>
<path d="M160.984 221.694C160.984 224.033 159.086 225.931 156.747 225.931C154.409 225.931 152.511 224.033 152.511 221.694C152.511 219.356 154.409 217.458 156.747 217.458C159.086 217.466 160.984 219.356 160.984 221.694Z" fill="#F4E729"/>
<path d="M173.695 225.931C176.035 225.931 177.932 224.034 177.932 221.694C177.932 219.355 176.035 217.458 173.695 217.458C171.356 217.458 169.459 219.355 169.459 221.694C169.459 224.034 171.356 225.931 173.695 225.931Z" fill="#F4E729"/>
<path d="M194.877 221.694C194.877 224.033 192.979 225.931 190.641 225.931C188.302 225.931 186.404 224.033 186.404 221.694C186.404 219.356 188.302 217.458 190.641 217.458C192.979 217.458 194.877 219.356 194.877 221.694Z" fill="#F4E729"/>
<path d="M211.824 221.694C211.824 224.033 209.926 225.931 207.587 225.931C205.249 225.931 203.351 224.033 203.351 221.694C203.351 219.356 205.249 217.458 207.587 217.458C209.926 217.466 211.824 219.356 211.824 221.694Z" fill="#F4E729"/>
<path d="M228.771 221.694C228.771 224.033 226.873 225.931 224.534 225.931C222.196 225.931 220.298 224.033 220.298 221.694C220.298 219.356 222.196 217.458 224.534 217.458C226.873 217.466 228.771 219.356 228.771 221.694Z" fill="#F4E729"/>
<path d="M241.481 225.931C243.821 225.931 245.718 224.034 245.718 221.694C245.718 219.355 243.821 217.458 241.481 217.458C239.141 217.458 237.244 219.355 237.244 221.694C237.244 224.034 239.141 225.931 241.481 225.931Z" fill="#F4E729"/>
<path d="M258.427 225.931C260.767 225.931 262.664 224.034 262.664 221.694C262.664 219.355 260.767 217.458 258.427 217.458C256.088 217.458 254.191 219.355 254.191 221.694C254.191 224.034 256.088 225.931 258.427 225.931Z" fill="#F4E729"/>
<path d="M59.3127 238.641C59.3127 240.98 57.4143 242.878 55.076 242.878C52.7376 242.878 50.8394 240.98 50.8394 238.641C50.8394 236.303 52.7376 234.405 55.076 234.405C57.4143 234.405 59.3127 236.303 59.3127 238.641Z" fill="#F4E729"/>
<path d="M76.2594 238.641C76.2594 240.98 74.3611 242.878 72.0227 242.878C69.6844 242.878 67.7861 240.98 67.7861 238.641C67.7861 236.303 69.6844 234.405 72.0227 234.405C74.3611 234.405 76.2594 236.303 76.2594 238.641Z" fill="#F4E729"/>
<path d="M93.1983 238.641C93.1983 240.98 91.2999 242.878 88.9616 242.878C86.6232 242.878 84.7249 240.98 84.7249 238.641C84.7249 236.303 86.6232 234.405 88.9616 234.405C91.3086 234.405 93.1983 236.303 93.1983 238.641Z" fill="#F4E729"/>
<path d="M110.145 238.641C110.145 240.98 108.247 242.878 105.908 242.878C103.57 242.878 101.672 240.98 101.672 238.641C101.672 236.303 103.57 234.405 105.908 234.405C108.247 234.405 110.145 236.303 110.145 238.641Z" fill="#F4E729"/>
<path d="M127.091 238.641C127.091 240.98 125.193 242.878 122.854 242.878C120.516 242.878 118.617 240.98 118.617 238.641C118.617 236.303 120.516 234.405 122.854 234.405C125.193 234.405 127.091 236.303 127.091 238.641Z" fill="#F4E729"/>
<path d="M144.037 238.641C144.037 240.98 142.139 242.878 139.801 242.878C137.462 242.878 135.564 240.98 135.564 238.641C135.564 236.303 137.462 234.405 139.801 234.405C142.139 234.405 144.037 236.303 144.037 238.641Z" fill="#F4E729"/>
<path d="M160.985 238.641C160.985 240.98 159.086 242.878 156.748 242.878C154.41 242.878 152.511 240.98 152.511 238.641C152.511 236.303 154.41 234.405 156.748 234.405C159.086 234.405 160.985 236.303 160.985 238.641Z" fill="#F4E729"/>
<path d="M177.933 238.641C177.933 240.98 176.034 242.878 173.696 242.878C171.358 242.878 169.459 240.98 169.459 238.641C169.459 236.303 171.358 234.405 173.696 234.405C176.034 234.405 177.933 236.303 177.933 238.641Z" fill="#F4E729"/>
<path d="M194.878 238.641C194.878 240.98 192.98 242.878 190.641 242.878C188.303 242.878 186.405 240.98 186.405 238.641C186.405 236.303 188.303 234.405 190.641 234.405C192.98 234.405 194.878 236.303 194.878 238.641Z" fill="#F4E729"/>
<path d="M211.825 238.641C211.825 240.98 209.926 242.878 207.588 242.878C205.25 242.878 203.351 240.98 203.351 238.641C203.351 236.303 205.25 234.405 207.588 234.405C209.926 234.405 211.825 236.303 211.825 238.641Z" fill="#F4E729"/>
<path d="M228.771 238.642C228.771 240.98 226.873 242.878 224.535 242.878C222.196 242.878 220.298 240.98 220.298 238.642C220.298 236.303 222.196 234.405 224.535 234.405C226.873 234.405 228.771 236.303 228.771 238.642Z" fill="#F4E729"/>
<path d="M245.718 238.642C245.718 240.98 243.82 242.878 241.482 242.878C239.143 242.878 237.245 240.98 237.245 238.642C237.245 236.303 239.143 234.405 241.482 234.405C243.82 234.405 245.718 236.303 245.718 238.642Z" fill="#F4E729"/>
<path d="M262.657 238.642C262.657 240.98 260.758 242.878 258.42 242.878C256.082 242.878 254.183 240.98 254.183 238.642C254.183 236.303 256.082 234.405 258.42 234.405C260.767 234.405 262.657 236.303 262.657 238.642Z" fill="#F4E729"/>
<path d="M42.3659 255.588C42.3659 257.926 40.4675 259.825 38.1292 259.825C35.7908 259.825 33.8926 257.926 33.8926 255.588C33.8926 253.25 35.7908 251.351 38.1292 251.351C40.4675 251.351 42.3659 253.25 42.3659 255.588Z" fill="#F4E729"/>
<path d="M59.3127 255.588C59.3127 257.926 57.4143 259.825 55.076 259.825C52.7376 259.825 50.8394 257.926 50.8394 255.588C50.8394 253.25 52.7376 251.351 55.076 251.351C57.4143 251.351 59.3127 253.25 59.3127 255.588Z" fill="#F4E729"/>
<path d="M76.2594 255.588C76.2594 257.926 74.3611 259.825 72.0227 259.825C69.6844 259.825 67.7861 257.926 67.7861 255.588C67.7861 253.25 69.6844 251.351 72.0227 251.351C74.3611 251.351 76.2594 253.25 76.2594 255.588Z" fill="#F4E729"/>
<path d="M93.1983 255.588C93.1983 257.926 91.2999 259.825 88.9616 259.825C86.6232 259.825 84.7249 257.926 84.7249 255.588C84.7249 253.25 86.6232 251.351 88.9616 251.351C91.3086 251.351 93.1983 253.25 93.1983 255.588Z" fill="#F4E729"/>
<path d="M110.145 255.588C110.145 257.926 108.247 259.825 105.908 259.825C103.57 259.825 101.672 257.926 101.672 255.588C101.672 253.25 103.57 251.351 105.908 251.351C108.247 251.351 110.145 253.25 110.145 255.588Z" fill="#F4E729"/>
<path d="M127.091 255.588C127.091 257.926 125.193 259.825 122.854 259.825C120.516 259.825 118.617 257.926 118.617 255.588C118.617 253.25 120.516 251.351 122.854 251.351C125.193 251.351 127.091 253.25 127.091 255.588Z" fill="#F4E729"/>
<path d="M144.037 255.588C144.037 257.926 142.139 259.825 139.801 259.825C137.462 259.825 135.564 257.926 135.564 255.588C135.564 253.25 137.462 251.351 139.801 251.351C142.139 251.351 144.037 253.25 144.037 255.588Z" fill="#F4E729"/>
<path d="M160.985 255.588C160.985 257.926 159.086 259.825 156.748 259.825C154.41 259.825 152.511 257.926 152.511 255.588C152.511 253.25 154.41 251.351 156.748 251.351C159.086 251.351 160.985 253.25 160.985 255.588Z" fill="#F4E729"/>
<path d="M177.933 255.588C177.933 257.926 176.034 259.825 173.696 259.825C171.358 259.825 169.459 257.926 169.459 255.588C169.459 253.25 171.358 251.351 173.696 251.351C176.034 251.351 177.933 253.25 177.933 255.588Z" fill="#F4E729"/>
<path d="M194.878 255.588C194.878 257.926 192.98 259.825 190.641 259.825C188.303 259.825 186.405 257.926 186.405 255.588C186.405 253.25 188.303 251.351 190.641 251.351C192.98 251.351 194.878 253.25 194.878 255.588Z" fill="#F4E729"/>
<path d="M211.825 255.588C211.825 257.926 209.926 259.825 207.588 259.825C205.25 259.825 203.351 257.926 203.351 255.588C203.351 253.25 205.25 251.351 207.588 251.351C209.926 251.351 211.825 253.25 211.825 255.588Z" fill="#F4E729"/>
<path d="M228.771 255.588C228.771 257.926 226.873 259.825 224.535 259.825C222.196 259.825 220.298 257.926 220.298 255.588C220.298 253.25 222.196 251.351 224.535 251.351C226.873 251.351 228.771 253.25 228.771 255.588Z" fill="#F4E729"/>
<path d="M245.718 255.588C245.718 257.926 243.82 259.825 241.482 259.825C239.143 259.825 237.245 257.926 237.245 255.588C237.245 253.25 239.143 251.351 241.482 251.351C243.82 251.351 245.718 253.25 245.718 255.588Z" fill="#F4E729"/>
<path d="M262.657 255.588C262.657 257.926 260.758 259.825 258.42 259.825C256.082 259.825 254.183 257.926 254.183 255.588C254.183 253.25 256.082 251.351 258.42 251.351C260.767 251.351 262.657 253.25 262.657 255.588Z" fill="#F4E729"/>
<path d="M25.4201 272.535C25.4201 274.873 23.5218 276.771 21.1835 276.771C18.8451 276.771 16.9468 274.873 16.9468 272.535C16.9468 270.196 18.8451 268.298 21.1835 268.298C23.5218 268.298 25.4201 270.196 25.4201 272.535Z" fill="#F4E729"/>
<path d="M42.3659 272.535C42.3659 274.873 40.4675 276.771 38.1292 276.771C35.7908 276.771 33.8926 274.873 33.8926 272.535C33.8926 270.196 35.7908 268.298 38.1292 268.298C40.4675 268.298 42.3659 270.196 42.3659 272.535Z" fill="#F4E729"/>
<path d="M59.3127 272.535C59.3127 274.873 57.4143 276.771 55.076 276.771C52.7376 276.771 50.8394 274.873 50.8394 272.535C50.8394 270.196 52.7376 268.298 55.076 268.298C57.4143 268.298 59.3127 270.196 59.3127 272.535Z" fill="#F4E729"/>
<path d="M76.2599 272.535C76.2599 274.873 74.3616 276.771 72.0232 276.771C69.6849 276.771 67.7866 274.873 67.7866 272.535C67.7866 270.196 69.6849 268.298 72.0232 268.298C74.3616 268.298 76.2599 270.196 76.2599 272.535Z" fill="#F4E729"/>
<path d="M93.1985 272.535C93.1985 274.873 91.3002 276.771 88.9618 276.771C86.6234 276.771 84.7251 274.873 84.7251 272.535C84.7251 270.196 86.6234 268.298 88.9618 268.298C91.3088 268.298 93.1985 270.196 93.1985 272.535Z" fill="#F4E729"/>
<path d="M110.145 272.535C110.145 274.873 108.247 276.771 105.909 276.771C103.57 276.771 101.672 274.873 101.672 272.535C101.672 270.196 103.57 268.298 105.909 268.298C108.247 268.298 110.145 270.196 110.145 272.535Z" fill="#F4E729"/>
<path d="M127.091 272.535C127.091 274.873 125.193 276.771 122.854 276.771C120.516 276.771 118.618 274.873 118.618 272.535C118.618 270.196 120.516 268.298 122.854 268.298C125.193 268.298 127.091 270.196 127.091 272.535Z" fill="#F4E729"/>
<path d="M144.037 272.535C144.037 274.873 142.139 276.771 139.801 276.771C137.462 276.771 135.564 274.873 135.564 272.535C135.564 270.196 137.462 268.298 139.801 268.298C142.139 268.298 144.037 270.196 144.037 272.535Z" fill="#F4E729"/>
<path d="M160.985 272.535C160.985 274.873 159.086 276.771 156.748 276.771C154.41 276.771 152.511 274.873 152.511 272.535C152.511 270.196 154.41 268.298 156.748 268.298C159.086 268.298 160.985 270.196 160.985 272.535Z" fill="#F4E729"/>
<path d="M177.933 272.535C177.933 274.873 176.034 276.771 173.696 276.771C171.358 276.771 169.459 274.873 169.459 272.535C169.459 270.196 171.358 268.298 173.696 268.298C176.034 268.298 177.933 270.196 177.933 272.535Z" fill="#F4E729"/>
<path d="M194.878 272.535C194.878 274.873 192.98 276.771 190.641 276.771C188.303 276.771 186.405 274.873 186.405 272.535C186.405 270.196 188.303 268.298 190.641 268.298C192.98 268.298 194.878 270.196 194.878 272.535Z" fill="#F4E729"/>
<path d="M211.825 272.535C211.825 274.873 209.926 276.771 207.588 276.771C205.25 276.771 203.351 274.873 203.351 272.535C203.351 270.196 205.25 268.298 207.588 268.298C209.926 268.298 211.825 270.196 211.825 272.535Z" fill="#F4E729"/>
<path d="M228.771 272.535C228.771 274.873 226.873 276.771 224.535 276.771C222.196 276.771 220.298 274.873 220.298 272.535C220.298 270.196 222.196 268.298 224.535 268.298C226.873 268.298 228.771 270.196 228.771 272.535Z" fill="#F4E729"/>
<path d="M245.718 272.535C245.718 274.873 243.82 276.771 241.482 276.771C239.143 276.771 237.245 274.873 237.245 272.535C237.245 270.196 239.143 268.298 241.482 268.298C243.82 268.298 245.718 270.196 245.718 272.535Z" fill="#F4E729"/>
<path d="M262.657 272.535C262.657 274.873 260.758 276.771 258.42 276.771C256.082 276.771 254.183 274.873 254.183 272.535C254.183 270.196 256.082 268.298 258.42 268.298C260.767 268.298 262.657 270.196 262.657 272.535Z" fill="#F4E729"/>
<path d="M4.23682 293.718C6.57667 293.718 8.47342 291.821 8.47342 289.481C8.47342 287.142 6.57667 285.245 4.23682 285.245C1.89697 285.245 0.000122049 287.142 0.000122023 289.481C0.000121997 291.821 1.89697 293.718 4.23682 293.718Z" fill="#F4E729"/>
<path d="M25.4206 289.481C25.4206 291.82 23.5223 293.718 21.184 293.718C18.8456 293.718 16.9473 291.82 16.9473 289.481C16.9473 287.143 18.8456 285.245 21.184 285.245C23.5223 285.245 25.4206 287.143 25.4206 289.481Z" fill="#F4E729"/>
<path d="M42.3664 289.481C42.3664 291.82 40.468 293.718 38.1297 293.718C35.7913 293.718 33.8931 291.82 33.8931 289.481C33.8931 287.143 35.7913 285.245 38.1297 285.245C40.468 285.245 42.3664 287.143 42.3664 289.481Z" fill="#F4E729"/>
<path d="M59.3131 289.481C59.3131 291.82 57.4148 293.718 55.0764 293.718C52.7381 293.718 50.8398 291.82 50.8398 289.481C50.8398 287.143 52.7381 285.245 55.0764 285.245C57.4148 285.245 59.3131 287.143 59.3131 289.481Z" fill="#F4E729"/>
<path d="M72.0232 293.718C74.3631 293.718 76.2599 291.821 76.2599 289.481C76.2599 287.142 74.3631 285.245 72.0232 285.245C69.6834 285.245 67.7866 287.142 67.7866 289.481C67.7866 291.821 69.6834 293.718 72.0232 293.718Z" fill="#F4E729"/>
<path d="M88.9618 293.718C91.3017 293.718 93.1985 291.821 93.1985 289.481C93.1985 287.142 91.3017 285.245 88.9618 285.245C86.622 285.245 84.7251 287.142 84.7251 289.481C84.7251 291.821 86.622 293.718 88.9618 293.718Z" fill="#F4E729"/>
<path d="M110.145 289.481C110.145 291.82 108.247 293.718 105.909 293.718C103.57 293.718 101.672 291.82 101.672 289.481C101.672 287.143 103.57 285.245 105.909 285.245C108.247 285.245 110.145 287.143 110.145 289.481Z" fill="#F4E729"/>
<path d="M127.091 289.481C127.091 291.82 125.193 293.718 122.854 293.718C120.516 293.718 118.618 291.82 118.618 289.481C118.618 287.143 120.516 285.245 122.854 285.245C125.193 285.245 127.091 287.143 127.091 289.481Z" fill="#F4E729"/>
<path d="M144.037 289.481C144.037 291.82 142.139 293.718 139.801 293.718C137.462 293.718 135.564 291.82 135.564 289.481C135.564 287.143 137.462 285.245 139.801 285.245C142.139 285.245 144.037 287.143 144.037 289.481Z" fill="#F4E729"/>
<path d="M160.985 289.481C160.985 291.82 159.086 293.718 156.748 293.718C154.41 293.718 152.511 291.82 152.511 289.481C152.511 287.143 154.41 285.245 156.748 285.245C159.086 285.245 160.985 287.143 160.985 289.481Z" fill="#F4E729"/>
<path d="M173.696 293.718C176.036 293.718 177.933 291.821 177.933 289.481C177.933 287.142 176.036 285.245 173.696 285.245C171.356 285.245 169.459 287.142 169.459 289.481C169.459 291.821 171.356 293.718 173.696 293.718Z" fill="#F4E729"/>
<path d="M194.878 289.481C194.878 291.82 192.98 293.718 190.641 293.718C188.303 293.718 186.405 291.82 186.405 289.481C186.405 287.143 188.303 285.245 190.641 285.245C192.98 285.245 194.878 287.143 194.878 289.481Z" fill="#F4E729"/>
<path d="M211.825 289.481C211.825 291.82 209.926 293.718 207.588 293.718C205.25 293.718 203.351 291.82 203.351 289.481C203.351 287.143 205.25 285.245 207.588 285.245C209.926 285.245 211.825 287.143 211.825 289.481Z" fill="#F4E729"/>
<path d="M228.771 289.481C228.771 291.82 226.873 293.718 224.535 293.718C222.196 293.718 220.298 291.82 220.298 289.481C220.298 287.143 222.196 285.245 224.535 285.245C226.873 285.245 228.771 287.143 228.771 289.481Z" fill="#F4E729"/>
<path d="M241.482 293.718C243.821 293.718 245.718 291.821 245.718 289.481C245.718 287.142 243.821 285.245 241.482 285.245C239.142 285.245 237.245 287.142 237.245 289.481C237.245 291.821 239.142 293.718 241.482 293.718Z" fill="#F4E729"/>
<path d="M258.428 293.718C260.768 293.718 262.665 291.821 262.665 289.481C262.665 287.142 260.768 285.245 258.428 285.245C256.088 285.245 254.191 287.142 254.191 289.481C254.191 291.821 256.088 293.718 258.428 293.718Z" fill="#F4E729"/>
<path d="M55.47 14.8291C53.5523 23.0189 58.6368 31.2127 66.8267 33.1304C75.0166 35.0481 83.2104 29.9635 85.1282 21.7736C87.0459 13.5838 81.9614 5.38999 73.7715 3.47231C65.5817 1.55463 57.3878 6.63922 55.47 14.8291Z" fill="white"/>
</svg>
