<svg viewBox="0 0 267 388" xmlns="http://www.w3.org/2000/svg">
<path d="M115.003 341C88.4902 341 67.0002 362.041 67.0003 388L163 388C163.006 362.041 141.516 341 115.003 341Z" fill="#F4E729"/>
<path d="M194 200.595L200.04 206.635L206.313 200.354L212.586 206.635L218.626 200.595L212.353 194.314L218.626 188.041L212.586 182L206.313 188.274L200.04 182L194 188.041L200.273 194.314L194 200.595Z" fill="white"/>
<path d="M43.0008 142.586L49.0409 148.626L55.3139 142.353L61.5956 148.626L67.627 142.586L61.354 136.313L67.627 130.04L61.5956 124L55.3139 130.273L49.0409 124L43.0008 130.04L49.2739 136.313L43.0008 142.586Z" fill="#4D91CE"/>
<path d="M0.000366211 11.3271L266.738 11.3271L266.738 0.998603L0.000365308 0.998626L0.000366211 11.3271Z" fill="#4D91CE"/>
</svg>
