<svg viewBox="0 0 246 243" xmlns="http://www.w3.org/2000/svg">
<path d="M156.756 90.4736C159.096 90.4736 160.993 88.5768 160.993 86.2369C160.993 83.8971 159.096 82.0002 156.756 82.0002C154.416 82.0002 152.52 83.8971 152.52 86.2369C152.52 88.5768 154.416 90.4736 156.756 90.4736Z" fill="#F4E729"/>
<path d="M144.046 103.183C144.046 105.522 142.147 107.42 139.809 107.42C137.47 107.42 135.572 105.522 135.572 103.183C135.572 100.845 137.47 98.9468 139.809 98.9468C142.147 98.9468 144.046 100.845 144.046 103.183Z" fill="#F4E729"/>
<path d="M160.993 103.183C160.993 105.522 159.095 107.42 156.756 107.42C154.418 107.42 152.52 105.522 152.52 103.183C152.52 100.845 154.418 98.9468 156.756 98.9468C159.095 98.9468 160.993 100.845 160.993 103.183Z" fill="#F4E729"/>
<path d="M177.931 103.183C177.931 105.522 176.033 107.42 173.695 107.42C171.356 107.42 169.458 105.522 169.458 103.183C169.458 100.845 171.356 98.9468 173.695 98.9468C176.042 98.9468 177.931 100.845 177.931 103.183Z" fill="#F4E729"/>
<path d="M127.099 120.13C127.099 122.469 125.201 124.367 122.863 124.367C120.524 124.367 118.626 122.469 118.626 120.13C118.626 117.792 120.524 115.894 122.863 115.894C125.201 115.894 127.099 117.792 127.099 120.13Z" fill="#F4E729"/>
<path d="M144.046 120.13C144.046 122.469 142.147 124.367 139.809 124.367C137.47 124.367 135.572 122.469 135.572 120.13C135.572 117.792 137.47 115.894 139.809 115.894C142.147 115.894 144.046 117.792 144.046 120.13Z" fill="#F4E729"/>
<path d="M160.993 120.13C160.993 122.469 159.095 124.367 156.756 124.367C154.418 124.367 152.52 122.469 152.52 120.13C152.52 117.792 154.418 115.894 156.756 115.894C159.095 115.894 160.993 117.792 160.993 120.13Z" fill="#F4E729"/>
<path d="M177.931 120.13C177.931 122.469 176.033 124.367 173.695 124.367C171.356 124.367 169.458 122.469 169.458 120.13C169.458 117.792 171.356 115.894 173.695 115.894C176.042 115.894 177.931 117.792 177.931 120.13Z" fill="#F4E729"/>
<path d="M194.879 120.13C194.879 122.469 192.98 124.367 190.642 124.367C188.304 124.367 186.405 122.469 186.405 120.13C186.405 117.792 188.304 115.894 190.642 115.894C192.98 115.894 194.879 117.792 194.879 120.13Z" fill="#F4E729"/>
<path d="M110.152 137.077C110.152 139.415 108.254 141.313 105.915 141.313C103.577 141.313 101.679 139.415 101.679 137.077C101.679 134.738 103.577 132.84 105.915 132.84C108.254 132.84 110.152 134.738 110.152 137.077Z" fill="#F4E729"/>
<path d="M127.099 137.077C127.099 139.415 125.201 141.313 122.863 141.313C120.524 141.313 118.626 139.415 118.626 137.077C118.626 134.738 120.524 132.84 122.863 132.84C125.201 132.84 127.099 134.738 127.099 137.077Z" fill="#F4E729"/>
<path d="M144.046 137.077C144.046 139.415 142.147 141.313 139.809 141.313C137.47 141.313 135.572 139.415 135.572 137.077C135.572 134.738 137.47 132.84 139.809 132.84C142.147 132.84 144.046 134.738 144.046 137.077Z" fill="#F4E729"/>
<path d="M160.993 137.077C160.993 139.415 159.095 141.313 156.756 141.313C154.418 141.313 152.52 139.415 152.52 137.077C152.52 134.738 154.418 132.84 156.756 132.84C159.095 132.84 160.993 134.738 160.993 137.077Z" fill="#F4E729"/>
<path d="M177.931 137.077C177.931 139.415 176.033 141.313 173.695 141.313C171.356 141.313 169.458 139.415 169.458 137.077C169.458 134.738 171.356 132.84 173.695 132.84C176.042 132.84 177.931 134.738 177.931 137.077Z" fill="#F4E729"/>
<path d="M194.879 137.077C194.879 139.415 192.98 141.313 190.642 141.313C188.304 141.313 186.405 139.415 186.405 137.077C186.405 134.738 188.304 132.84 190.642 132.84C192.98 132.84 194.879 134.738 194.879 137.077Z" fill="#F4E729"/>
<path d="M211.824 137.077C211.824 139.415 209.926 141.313 207.587 141.313C205.249 141.313 203.351 139.415 203.351 137.077C203.351 134.738 205.249 132.84 207.587 132.84C209.926 132.84 211.824 134.738 211.824 137.077Z" fill="#F4E729"/>
<path d="M88.9701 158.26C91.31 158.26 93.2067 156.364 93.2067 154.024C93.2067 151.684 91.31 149.787 88.9701 149.787C86.6303 149.787 84.7334 151.684 84.7334 154.024C84.7334 156.364 86.6303 158.26 88.9701 158.26Z" fill="#F4E729"/>
<path d="M110.152 154.024C110.152 156.362 108.254 158.26 105.915 158.26C103.577 158.26 101.679 156.362 101.679 154.024C101.679 151.685 103.577 149.787 105.915 149.787C108.254 149.787 110.152 151.685 110.152 154.024Z" fill="#F4E729"/>
<path d="M127.099 154.024C127.099 156.362 125.201 158.26 122.863 158.26C120.524 158.26 118.626 156.362 118.626 154.024C118.626 151.685 120.524 149.787 122.863 149.787C125.201 149.787 127.099 151.685 127.099 154.024Z" fill="#F4E729"/>
<path d="M144.046 154.024C144.046 156.362 142.147 158.26 139.809 158.26C137.47 158.26 135.572 156.362 135.572 154.024C135.572 151.685 137.47 149.787 139.809 149.787C142.147 149.787 144.046 151.685 144.046 154.024Z" fill="#F4E729"/>
<path d="M156.756 158.26C159.096 158.26 160.993 156.364 160.993 154.024C160.993 151.684 159.096 149.787 156.756 149.787C154.416 149.787 152.52 151.684 152.52 154.024C152.52 156.364 154.416 158.26 156.756 158.26Z" fill="#F4E729"/>
<path d="M173.703 158.26C176.042 158.26 177.939 156.364 177.939 154.024C177.939 151.684 176.042 149.787 173.703 149.787C171.363 149.787 169.466 151.684 169.466 154.024C169.466 156.364 171.363 158.26 173.703 158.26Z" fill="#F4E729"/>
<path d="M190.642 158.26C192.982 158.26 194.879 156.364 194.879 154.024C194.879 151.684 192.982 149.787 190.642 149.787C188.302 149.787 186.405 151.684 186.405 154.024C186.405 156.364 188.302 158.26 190.642 158.26Z" fill="#F4E729"/>
<path d="M211.824 154.024C211.824 156.362 209.926 158.26 207.587 158.26C205.249 158.26 203.351 156.362 203.351 154.024C203.351 151.685 205.249 149.787 207.587 149.787C209.926 149.787 211.824 151.685 211.824 154.024Z" fill="#F4E729"/>
<path d="M228.771 154.024C228.771 156.362 226.873 158.26 224.535 158.26C222.196 158.26 220.298 156.362 220.298 154.024C220.298 151.685 222.196 149.787 224.535 149.787C226.873 149.787 228.771 151.685 228.771 154.024Z" fill="#F4E729"/>
<path d="M76.2594 170.971C76.2594 173.309 74.3612 175.207 72.0228 175.207C69.6845 175.207 67.7861 173.309 67.7861 170.971C67.7861 168.632 69.6845 166.734 72.0228 166.734C74.3612 166.734 76.2594 168.632 76.2594 170.971Z" fill="#F4E729"/>
<path d="M88.9701 175.207C91.31 175.207 93.2067 173.31 93.2067 170.971C93.2067 168.631 91.31 166.734 88.9701 166.734C86.6303 166.734 84.7334 168.631 84.7334 170.971C84.7334 173.31 86.6303 175.207 88.9701 175.207Z" fill="#F4E729"/>
<path d="M110.152 170.971C110.152 173.309 108.254 175.207 105.915 175.207C103.577 175.207 101.679 173.309 101.679 170.971C101.679 168.632 103.577 166.734 105.915 166.734C108.254 166.734 110.152 168.632 110.152 170.971Z" fill="#F4E729"/>
<path d="M127.099 170.971C127.099 173.309 125.201 175.207 122.863 175.207C120.524 175.207 118.626 173.309 118.626 170.971C118.626 168.632 120.524 166.734 122.863 166.734C125.201 166.734 127.099 168.632 127.099 170.971Z" fill="#F4E729"/>
<path d="M144.046 170.971C144.046 173.309 142.147 175.207 139.809 175.207C137.47 175.207 135.572 173.309 135.572 170.971C135.572 168.632 137.47 166.734 139.809 166.734C142.147 166.734 144.046 168.632 144.046 170.971Z" fill="#F4E729"/>
<path d="M156.756 175.207C159.096 175.207 160.993 173.31 160.993 170.971C160.993 168.631 159.096 166.734 156.756 166.734C154.416 166.734 152.52 168.631 152.52 170.971C152.52 173.31 154.416 175.207 156.756 175.207Z" fill="#F4E729"/>
<path d="M173.703 175.207C176.042 175.207 177.939 173.31 177.939 170.971C177.939 168.631 176.042 166.734 173.703 166.734C171.363 166.734 169.466 168.631 169.466 170.971C169.466 173.31 171.363 175.207 173.703 175.207Z" fill="#F4E729"/>
<path d="M190.642 175.207C192.982 175.207 194.879 173.31 194.879 170.971C194.879 168.631 192.982 166.734 190.642 166.734C188.302 166.734 186.405 168.631 186.405 170.971C186.405 173.31 188.302 175.207 190.642 175.207Z" fill="#F4E729"/>
<path d="M211.824 170.971C211.824 173.309 209.926 175.207 207.587 175.207C205.249 175.207 203.351 173.309 203.351 170.971C203.351 168.632 205.249 166.734 207.587 166.734C209.926 166.734 211.824 168.632 211.824 170.971Z" fill="#F4E729"/>
<path d="M228.771 170.971C228.771 173.309 226.873 175.207 224.535 175.207C222.196 175.207 220.298 173.309 220.298 170.971C220.298 168.632 222.196 166.734 224.535 166.734C226.873 166.734 228.771 168.632 228.771 170.971Z" fill="#F4E729"/>
<path d="M245.718 170.971C245.718 173.309 243.82 175.207 241.482 175.207C239.143 175.207 237.245 173.309 237.245 170.971C237.245 168.632 239.143 166.734 241.482 166.734C243.82 166.734 245.718 168.632 245.718 170.971Z" fill="#F4E729"/>
<path d="M59.3123 187.917C59.3123 190.256 57.4139 192.154 55.0756 192.154C52.7372 192.154 50.8389 190.256 50.8389 187.917C50.8389 185.579 52.7372 183.681 55.0756 183.681C57.4139 183.681 59.3123 185.579 59.3123 187.917Z" fill="#F4E729"/>
<path d="M76.2594 187.917C76.2594 190.256 74.3612 192.154 72.0228 192.154C69.6845 192.154 67.7861 190.256 67.7861 187.917C67.7861 185.579 69.6845 183.681 72.0228 183.681C74.3612 183.681 76.2594 185.579 76.2594 187.917Z" fill="#F4E729"/>
<path d="M93.2067 187.917C93.2067 190.256 91.3085 192.154 88.9701 192.154C86.6317 192.154 84.7334 190.256 84.7334 187.917C84.7334 185.579 86.6317 183.681 88.9701 183.681C91.3085 183.681 93.2067 185.579 93.2067 187.917Z" fill="#F4E729"/>
<path d="M110.152 187.917C110.152 190.256 108.254 192.154 105.915 192.154C103.577 192.154 101.679 190.256 101.679 187.917C101.679 185.579 103.577 183.681 105.915 183.681C108.254 183.681 110.152 185.579 110.152 187.917Z" fill="#F4E729"/>
<path d="M127.099 187.917C127.099 190.256 125.201 192.154 122.863 192.154C120.524 192.154 118.626 190.256 118.626 187.917C118.626 185.579 120.524 183.681 122.863 183.681C125.201 183.681 127.099 185.579 127.099 187.917Z" fill="#F4E729"/>
<path d="M144.046 187.917C144.046 190.256 142.147 192.154 139.809 192.154C137.47 192.154 135.572 190.256 135.572 187.917C135.572 185.579 137.47 183.681 139.809 183.681C142.147 183.681 144.046 185.579 144.046 187.917Z" fill="#F4E729"/>
<path d="M160.993 187.917C160.993 190.256 159.095 192.154 156.756 192.154C154.418 192.154 152.52 190.256 152.52 187.917C152.52 185.579 154.418 183.681 156.756 183.681C159.095 183.681 160.993 185.579 160.993 187.917Z" fill="#F4E729"/>
<path d="M177.931 187.917C177.931 190.256 176.033 192.154 173.695 192.154C171.356 192.154 169.458 190.256 169.458 187.917C169.458 185.579 171.356 183.681 173.695 183.681C176.042 183.681 177.931 185.579 177.931 187.917Z" fill="#F4E729"/>
<path d="M194.879 187.917C194.879 190.256 192.98 192.154 190.642 192.154C188.304 192.154 186.405 190.256 186.405 187.917C186.405 185.579 188.304 183.681 190.642 183.681C192.98 183.681 194.879 185.579 194.879 187.917Z" fill="#F4E729"/>
<path d="M211.824 187.917C211.824 190.256 209.926 192.154 207.587 192.154C205.249 192.154 203.351 190.256 203.351 187.917C203.351 185.579 205.249 183.681 207.587 183.681C209.926 183.681 211.824 185.579 211.824 187.917Z" fill="#F4E729"/>
<path d="M228.771 187.917C228.771 190.256 226.873 192.154 224.535 192.154C222.196 192.154 220.298 190.256 220.298 187.917C220.298 185.579 222.196 183.681 224.535 183.681C226.873 183.681 228.771 185.579 228.771 187.917Z" fill="#F4E729"/>
<path d="M245.718 187.917C245.718 190.256 243.82 192.154 241.482 192.154C239.143 192.154 237.245 190.256 237.245 187.917C237.245 185.579 239.143 183.681 241.482 183.681C243.82 183.681 245.718 185.579 245.718 187.917Z" fill="#F4E729"/>
<path d="M42.366 204.864C42.366 207.202 40.4676 209.1 38.1293 209.1C35.7909 209.1 33.8926 207.202 33.8926 204.864C33.8926 202.525 35.7909 200.627 38.1293 200.627C40.4676 200.627 42.366 202.525 42.366 204.864Z" fill="#F4E729"/>
<path d="M59.3123 204.864C59.3123 207.202 57.4139 209.1 55.0756 209.1C52.7372 209.1 50.8389 207.202 50.8389 204.864C50.8389 202.525 52.7372 200.627 55.0756 200.627C57.4139 200.627 59.3123 202.525 59.3123 204.864Z" fill="#F4E729"/>
<path d="M76.2594 204.864C76.2594 207.202 74.3612 209.1 72.0228 209.1C69.6845 209.1 67.7861 207.202 67.7861 204.864C67.7861 202.525 69.6845 200.627 72.0228 200.627C74.3612 200.627 76.2594 202.525 76.2594 204.864Z" fill="#F4E729"/>
<path d="M93.2067 204.864C93.2067 207.202 91.3085 209.1 88.9701 209.1C86.6317 209.1 84.7334 207.202 84.7334 204.864C84.7334 202.525 86.6317 200.627 88.9701 200.627C91.3085 200.627 93.2067 202.525 93.2067 204.864Z" fill="#F4E729"/>
<path d="M110.152 204.864C110.152 207.202 108.254 209.1 105.915 209.1C103.577 209.1 101.679 207.202 101.679 204.864C101.679 202.525 103.577 200.627 105.915 200.627C108.254 200.627 110.152 202.525 110.152 204.864Z" fill="#F4E729"/>
<path d="M127.099 204.864C127.099 207.202 125.201 209.1 122.863 209.1C120.524 209.1 118.626 207.202 118.626 204.864C118.626 202.525 120.524 200.627 122.863 200.627C125.201 200.627 127.099 202.525 127.099 204.864Z" fill="#F4E729"/>
<path d="M144.046 204.864C144.046 207.202 142.147 209.1 139.809 209.1C137.47 209.1 135.572 207.202 135.572 204.864C135.572 202.525 137.47 200.627 139.809 200.627C142.147 200.627 144.046 202.525 144.046 204.864Z" fill="#F4E729"/>
<path d="M160.993 204.864C160.993 207.202 159.095 209.1 156.756 209.1C154.418 209.1 152.52 207.202 152.52 204.864C152.52 202.525 154.418 200.627 156.756 200.627C159.095 200.627 160.993 202.525 160.993 204.864Z" fill="#F4E729"/>
<path d="M177.931 204.864C177.931 207.202 176.033 209.1 173.695 209.1C171.356 209.1 169.458 207.202 169.458 204.864C169.458 202.525 171.356 200.627 173.695 200.627C176.042 200.627 177.931 202.525 177.931 204.864Z" fill="#F4E729"/>
<path d="M194.879 204.864C194.879 207.202 192.98 209.1 190.642 209.1C188.304 209.1 186.405 207.202 186.405 204.864C186.405 202.525 188.304 200.627 190.642 200.627C192.98 200.627 194.879 202.525 194.879 204.864Z" fill="#F4E729"/>
<path d="M211.824 204.864C211.824 207.202 209.926 209.1 207.587 209.1C205.249 209.1 203.351 207.202 203.351 204.864C203.351 202.525 205.249 200.627 207.587 200.627C209.926 200.627 211.824 202.525 211.824 204.864Z" fill="#F4E729"/>
<path d="M228.771 204.864C228.771 207.202 226.873 209.1 224.535 209.1C222.196 209.1 220.298 207.202 220.298 204.864C220.298 202.525 222.196 200.627 224.535 200.627C226.873 200.627 228.771 202.525 228.771 204.864Z" fill="#F4E729"/>
<path d="M245.718 204.864C245.718 207.202 243.82 209.1 241.482 209.1C239.143 209.1 237.245 207.202 237.245 204.864C237.245 202.525 239.143 200.627 241.482 200.627C243.82 200.627 245.718 202.525 245.718 204.864Z" fill="#F4E729"/>
<path d="M25.4197 221.811C25.4197 224.149 23.5214 226.047 21.183 226.047C18.8446 226.047 16.9463 224.149 16.9463 221.811C16.9463 219.472 18.8446 217.574 21.183 217.574C23.5214 217.574 25.4197 219.472 25.4197 221.811Z" fill="#F4E729"/>
<path d="M42.366 221.811C42.366 224.149 40.4676 226.047 38.1293 226.047C35.7909 226.047 33.8926 224.149 33.8926 221.811C33.8926 219.472 35.7909 217.574 38.1293 217.574C40.4676 217.574 42.366 219.472 42.366 221.811Z" fill="#F4E729"/>
<path d="M59.3123 221.811C59.3123 224.149 57.4139 226.047 55.0756 226.047C52.7372 226.047 50.8389 224.149 50.8389 221.811C50.8389 219.472 52.7372 217.574 55.0756 217.574C57.4139 217.574 59.3123 219.472 59.3123 221.811Z" fill="#F4E729"/>
<path d="M76.2594 221.811C76.2594 224.149 74.3612 226.047 72.0228 226.047C69.6845 226.047 67.7861 224.149 67.7861 221.811C67.7861 219.472 69.6845 217.574 72.0228 217.574C74.3612 217.574 76.2594 219.472 76.2594 221.811Z" fill="#F4E729"/>
<path d="M93.2067 221.811C93.2067 224.149 91.3085 226.047 88.9701 226.047C86.6317 226.047 84.7334 224.149 84.7334 221.811C84.7334 219.472 86.6317 217.574 88.9701 217.574C91.3085 217.574 93.2067 219.472 93.2067 221.811Z" fill="#F4E729"/>
<path d="M110.152 221.811C110.152 224.149 108.254 226.047 105.915 226.047C103.577 226.047 101.679 224.149 101.679 221.811C101.679 219.472 103.577 217.574 105.915 217.574C108.254 217.574 110.152 219.472 110.152 221.811Z" fill="#F4E729"/>
<path d="M127.099 221.811C127.099 224.149 125.201 226.047 122.863 226.047C120.524 226.047 118.626 224.149 118.626 221.811C118.626 219.472 120.524 217.574 122.863 217.574C125.201 217.574 127.099 219.472 127.099 221.811Z" fill="#F4E729"/>
<path d="M144.046 221.811C144.046 224.149 142.147 226.047 139.809 226.047C137.47 226.047 135.572 224.149 135.572 221.811C135.572 219.472 137.47 217.574 139.809 217.574C142.147 217.574 144.046 219.472 144.046 221.811Z" fill="#F4E729"/>
<path d="M160.993 221.811C160.993 224.149 159.095 226.047 156.756 226.047C154.418 226.047 152.52 224.149 152.52 221.811C152.52 219.472 154.418 217.574 156.756 217.574C159.095 217.574 160.993 219.472 160.993 221.811Z" fill="#F4E729"/>
<path d="M177.931 221.811C177.931 224.149 176.033 226.047 173.695 226.047C171.356 226.047 169.458 224.149 169.458 221.811C169.458 219.472 171.356 217.574 173.695 217.574C176.042 217.574 177.931 219.472 177.931 221.811Z" fill="#F4E729"/>
<path d="M194.879 221.811C194.879 224.149 192.98 226.047 190.642 226.047C188.304 226.047 186.405 224.149 186.405 221.811C186.405 219.472 188.304 217.574 190.642 217.574C192.98 217.574 194.879 219.472 194.879 221.811Z" fill="#F4E729"/>
<path d="M211.824 221.811C211.824 224.149 209.926 226.047 207.587 226.047C205.249 226.047 203.351 224.149 203.351 221.811C203.351 219.472 205.249 217.574 207.587 217.574C209.926 217.574 211.824 219.472 211.824 221.811Z" fill="#F4E729"/>
<path d="M228.771 221.811C228.771 224.149 226.873 226.047 224.535 226.047C222.196 226.047 220.298 224.149 220.298 221.811C220.298 219.472 222.196 217.574 224.535 217.574C226.873 217.574 228.771 219.472 228.771 221.811Z" fill="#F4E729"/>
<path d="M245.718 221.811C245.718 224.149 243.82 226.047 241.482 226.047C239.143 226.047 237.245 224.149 237.245 221.811C237.245 219.472 239.143 217.574 241.482 217.574C243.82 217.574 245.718 219.472 245.718 221.811Z" fill="#F4E729"/>
<path d="M4.2367 242.994C6.57655 242.994 8.47341 241.097 8.47341 238.757C8.47341 236.417 6.57655 234.52 4.2367 234.52C1.89685 234.52 0 236.417 0 238.757C0 241.097 1.89685 242.994 4.2367 242.994Z" fill="#F4E729"/>
<path d="M25.4197 238.757C25.4197 241.095 23.5214 242.994 21.183 242.994C18.8446 242.994 16.9463 241.095 16.9463 238.757C16.9463 236.419 18.8446 234.52 21.183 234.52C23.5214 234.52 25.4197 236.41 25.4197 238.757Z" fill="#F4E729"/>
<path d="M42.366 238.757C42.366 241.095 40.4676 242.994 38.1293 242.994C35.7909 242.994 33.8926 241.095 33.8926 238.757C33.8926 236.419 35.7909 234.52 38.1293 234.52C40.4676 234.52 42.366 236.41 42.366 238.757Z" fill="#F4E729"/>
<path d="M59.3123 238.757C59.3123 241.095 57.4139 242.994 55.0756 242.994C52.7372 242.994 50.8389 241.095 50.8389 238.757C50.8389 236.419 52.7372 234.52 55.0756 234.52C57.4139 234.52 59.3123 236.41 59.3123 238.757Z" fill="#F4E729"/>
<path d="M76.2594 238.757C76.2594 241.095 74.3612 242.994 72.0228 242.994C69.6845 242.994 67.7861 241.095 67.7861 238.757C67.7861 236.419 69.6845 234.52 72.0228 234.52C74.3612 234.52 76.2594 236.41 76.2594 238.757Z" fill="#F4E729"/>
<path d="M88.9701 242.994C91.31 242.994 93.2067 241.097 93.2067 238.757C93.2067 236.417 91.31 234.52 88.9701 234.52C86.6303 234.52 84.7334 236.417 84.7334 238.757C84.7334 241.097 86.6303 242.994 88.9701 242.994Z" fill="#F4E729"/>
<path d="M110.152 238.757C110.152 241.095 108.254 242.994 105.915 242.994C103.577 242.994 101.679 241.095 101.679 238.757C101.679 236.419 103.577 234.52 105.915 234.52C108.254 234.52 110.152 236.41 110.152 238.757Z" fill="#F4E729"/>
<path d="M127.099 238.757C127.099 241.095 125.201 242.994 122.863 242.994C120.524 242.994 118.626 241.095 118.626 238.757C118.626 236.419 120.524 234.52 122.863 234.52C125.201 234.52 127.099 236.41 127.099 238.757Z" fill="#F4E729"/>
<path d="M144.046 238.757C144.046 241.095 142.147 242.994 139.809 242.994C137.47 242.994 135.572 241.095 135.572 238.757C135.572 236.419 137.47 234.52 139.809 234.52C142.147 234.52 144.046 236.41 144.046 238.757Z" fill="#F4E729"/>
<path d="M156.756 242.994C159.096 242.994 160.993 241.097 160.993 238.757C160.993 236.417 159.096 234.52 156.756 234.52C154.416 234.52 152.52 236.417 152.52 238.757C152.52 241.097 154.416 242.994 156.756 242.994Z" fill="#F4E729"/>
<path d="M173.703 242.994C176.042 242.994 177.939 241.097 177.939 238.757C177.939 236.417 176.042 234.52 173.703 234.52C171.363 234.52 169.466 236.417 169.466 238.757C169.466 241.097 171.363 242.994 173.703 242.994Z" fill="#F4E729"/>
<path d="M190.642 242.994C192.982 242.994 194.879 241.097 194.879 238.757C194.879 236.417 192.982 234.52 190.642 234.52C188.302 234.52 186.405 236.417 186.405 238.757C186.405 241.097 188.302 242.994 190.642 242.994Z" fill="#F4E729"/>
<path d="M211.824 238.757C211.824 241.095 209.926 242.994 207.587 242.994C205.249 242.994 203.351 241.095 203.351 238.757C203.351 236.419 205.249 234.52 207.587 234.52C209.926 234.52 211.824 236.41 211.824 238.757Z" fill="#F4E729"/>
<path d="M228.771 238.757C228.771 241.095 226.873 242.994 224.535 242.994C222.196 242.994 220.298 241.095 220.298 238.757C220.298 236.419 222.196 234.52 224.535 234.52C226.873 234.52 228.771 236.41 228.771 238.757Z" fill="#F4E729"/>
<path d="M245.718 238.757C245.718 241.095 243.82 242.994 241.482 242.994C239.143 242.994 237.245 241.095 237.245 238.757C237.245 236.419 239.143 234.52 241.482 234.52C243.82 234.52 245.718 236.41 245.718 238.757Z" fill="#F4E729"/>
<path d="M88.9007 6.04006L82.8606 0L76.5875 6.27303L70.3058 0L64.2744 6.04006L70.5475 12.3131L64.2744 18.5861L70.3058 24.6262L76.5875 18.3532L82.8606 24.6262L88.9007 18.5861L82.6276 12.3131L88.9007 6.04006Z" fill="#4D91CE"/>
</svg>
