<svg viewBox="0 0 326 103" xmlns="http://www.w3.org/2000/svg">
<path d="M325.635 6.04006L319.595 0L313.322 6.28167L307.04 0L301 6.04006L307.282 12.3217L301 18.5948L307.04 24.6348L313.322 18.3532L319.595 24.6348L325.635 18.5948L319.362 12.3217L325.635 6.04006Z" fill="white"/>
<path d="M256.081 72.7384L252.69 79.2219L216.51 60.247L178.656 80.1036L140.785 60.247L102.931 80.1036L65.0688 60.247L27.2148 80.1036L0 65.8314V57.5844L27.2148 71.8567L65.0688 52L102.931 71.8567L140.785 52L178.656 71.8567L216.51 52L256.081 72.7384Z" fill="#4D91CE"/>
<path d="M256.081 94.9981L252.69 101.482L216.51 82.5066L178.656 102.363L140.785 82.5066L102.931 102.363L65.0688 82.5066L27.2148 102.363L0 88.091V79.8354L27.2148 94.0991L65.0688 74.2595L102.931 94.0991L140.785 74.2595L178.656 94.0991L216.51 74.2595L256.081 94.9981Z" fill="#4D91CE"/>
</svg>
