<svg viewBox="0 0 257 51" xmlns="http://www.w3.org/2000/svg">
<path d="M256.081 20.7002L252.69 27.1716L216.51 8.23175L178.656 28.0518L140.785 8.23175L102.931 28.0518L65.0688 8.23175L27.2148 28.0518L0 13.8059V5.57411L27.2148 19.82L65.0688 0L102.931 19.82L140.785 0L178.656 19.82L216.51 0L256.081 20.7002Z" fill="#4D91CE"/>
<path d="M256.081 42.9185L252.69 49.39L216.51 30.4501L178.656 50.2702L140.785 30.4501L102.931 50.2702L65.0688 30.4501L27.2148 50.2702L0 36.0242V27.7839L27.2148 42.0212L65.0688 22.2184L102.931 42.0212L140.785 22.2184L178.656 42.0212L216.51 22.2184L256.081 42.9185Z" fill="#4D91CE"/>
</svg>
