<svg viewBox="0 0 187 158" xmlns="http://www.w3.org/2000/svg">
<path d="M186.293 151.821L181.107 157.007C176.353 152.253 171.676 152.408 165.765 152.615C159.302 152.831 151.985 153.081 144.97 146.075C137.955 139.06 138.214 131.742 138.43 125.28C138.637 119.369 138.801 114.692 134.038 109.938C129.292 105.183 124.607 105.339 118.696 105.546C112.233 105.77 104.916 106.02 97.9181 99.0053C90.903 91.9988 91.1532 84.6731 91.3775 78.2275C91.5846 72.3082 91.7486 67.6315 86.9855 62.8857C82.2312 58.1313 77.5544 58.2866 71.6438 58.4937C65.1809 58.7094 57.8638 58.9683 50.8487 51.9532C43.8422 44.9467 44.0925 37.621 44.3255 31.1754C44.5326 25.2561 44.6964 20.5794 39.9334 15.825C35.179 11.0792 30.5024 11.2431 24.5917 11.4416C18.1289 11.6573 10.8117 11.9162 3.79663 4.90108C2.17444 3.27889 0.949153 1.63945 0 0H9.29303C13.9525 4.45239 18.5516 4.3057 24.3328 4.09862C30.7957 3.87427 38.1128 3.62404 45.1279 10.6391C52.1344 17.6456 51.8842 24.9714 51.6512 31.417C51.4441 37.3362 51.2802 42.013 56.0432 46.7587C60.7976 51.5131 65.4743 51.3578 71.385 51.1507C77.8478 50.935 85.1649 50.6761 92.18 57.6912C99.1865 64.6977 98.9362 72.0235 98.7032 78.4691C98.4961 84.3883 98.3495 89.0651 103.095 93.8195C107.85 98.5652 112.526 98.4013 118.446 98.2028C124.9 97.9871 132.217 97.7369 139.224 104.743C146.239 111.758 145.98 119.076 145.764 125.538C145.557 131.449 145.393 136.126 150.156 140.88C154.91 145.635 159.587 145.479 165.498 145.272C171.969 145.056 179.286 144.806 186.293 151.821Z" fill="white"/>
</svg>
