<svg width="316" height="399" viewBox="0 0 316 399" fill="none" xmlns="http://www.w3.org/2000/svg">
<g clip-path="url(#clip0)">
<path d="M2.00341 -1.98862L-95 95.0234L-95 81.4074L-12.0354 -1.5744C-7.35868 -1.91955 -2.67332 -2.04039 2.00341 -1.98862Z" fill="#4D91CE"/>
<path d="M14.9205 -1.28879C18.9415 -0.900499 22.9452 -0.356898 26.923 0.324766L-95 122.248L-95 108.632L14.9205 -1.28879Z" fill="#4D91CE"/>
<path d="M38.1834 2.68835C41.7298 3.5771 45.2762 4.57803 48.788 5.70838L-95 149.488L-95 135.872L38.1834 2.68835Z" fill="#4D91CE"/>
<path d="M58.78 9.3321C61.9726 10.6091 65.1307 11.9897 68.2543 13.4825L-95 176.737L-95 163.121L58.78 9.3321Z" fill="#4D91CE"/>
<path d="M77.2367 18.1256C80.1101 19.7305 82.9489 21.4304 85.736 23.2338L-95 203.97L-95 190.354L77.2367 18.1256Z" fill="#4D91CE"/>
<path d="M93.7951 28.7985C96.401 30.7054 98.9464 32.6901 101.431 34.7782L-95 231.21L-95 217.594L93.7951 28.7985Z" fill="#4D91CE"/>
<path d="M108.654 41.1901C109.81 42.2773 110.958 43.3904 112.105 44.538C113.253 45.6856 114.366 46.8418 115.47 47.9981L-95 258.451L-95 244.835L108.654 41.1901Z" fill="#4D91CE"/>
<path d="M121.864 55.2124C123.952 57.6974 125.946 60.2601 127.861 62.8487L-94.3097 285.02C-94.5427 284.847 -94.767 284.674 -95 284.502L-95 272.085L121.864 55.2124Z" fill="#4D91CE"/>
<path d="M-77.7508 295.692L138.527 79.4145C136.922 76.5325 135.213 73.7023 133.41 70.9153L-86.25 290.575C-83.4629 292.378 -80.6327 294.078 -77.7508 295.692Z" fill="#4D91CE"/>
<path d="M-59.2944 304.476L147.31 97.8711C146.042 94.6785 144.661 91.5204 143.168 88.3968L-68.7773 300.334C-65.6451 301.827 -62.487 303.207 -59.2944 304.476Z" fill="#4D91CE"/>
<path d="M-38.7066 311.112L153.946 118.46C153.074 114.896 152.056 111.367 150.926 107.872L-49.2939 308.1C-45.7907 309.231 -42.2702 310.24 -38.7066 311.112Z" fill="#4D91CE"/>
<path d="M-15.444 315.098L157.932 141.722C157.543 137.701 157.008 133.697 156.327 129.711L-27.4551 313.493C-23.4686 314.166 -19.4649 314.709 -15.444 315.098Z" fill="#4D91CE"/>
<path d="M11.5125 315.383L158.217 168.679C158.562 164.002 158.7 159.325 158.631 154.64L-2.52637 315.797C2.159 315.866 6.83573 315.72 11.5125 315.383Z" fill="#4D91CE"/>
<path d="M44.8192 309.308L152.142 201.985C153.877 196.126 155.257 190.189 156.293 184.21L27.0527 313.458C33.0324 312.423 38.9689 311.042 44.8192 309.308Z" fill="#4D91CE"/>
<path d="M112.105 269.272C125.669 255.707 136.274 240.288 143.901 223.85L66.6748 301.077C83.1297 293.432 98.5405 282.836 112.105 269.272Z" fill="#4D91CE"/>
<path d="M285.917 390H-16V399.06H285.917V390Z" fill="#F4E729"/>
<path d="M312.13 263.773C314.048 255.584 308.964 247.39 300.774 245.472C292.584 243.554 284.39 248.639 282.472 256.829C280.555 265.019 285.639 273.212 293.829 275.13C302.019 277.048 310.213 271.963 312.13 263.773Z" fill="white"/>
</g>
<defs>
<clipPath id="clip0">
<rect width="316" height="399" fill="white"/>
</clipPath>
</defs>
</svg>
