<svg viewBox="0 0 247 128" xmlns="http://www.w3.org/2000/svg">
<path d="M123.482 8.47335C125.822 8.47335 127.719 6.57655 127.719 4.2367C127.719 1.89685 125.822 0 123.482 0C121.142 0 119.245 1.89685 119.245 4.2367C119.245 6.57655 121.142 8.47335 123.482 8.47335Z" fill="#F4E729"/>
<path d="M110.772 21.1832C110.772 23.5216 108.873 25.4199 106.535 25.4199C104.197 25.4199 102.298 23.5216 102.298 21.1832C102.298 18.8449 104.197 16.9465 106.535 16.9465C108.873 16.9465 110.772 18.8449 110.772 21.1832Z" fill="#F4E729"/>
<path d="M127.719 21.1832C127.719 23.5216 125.82 25.4199 123.482 25.4199C121.143 25.4199 119.245 23.5216 119.245 21.1832C119.245 18.8449 121.143 16.9465 123.482 16.9465C125.82 16.9465 127.719 18.8449 127.719 21.1832Z" fill="#F4E729"/>
<path d="M144.657 21.1832C144.657 23.5216 142.759 25.4199 140.42 25.4199C138.082 25.4199 136.184 23.5216 136.184 21.1832C136.184 18.8449 138.082 16.9465 140.42 16.9465C142.767 16.9465 144.657 18.8449 144.657 21.1832Z" fill="#F4E729"/>
<path d="M93.8249 38.13C93.8249 40.4683 91.9265 42.3667 89.5882 42.3667C87.2498 42.3667 85.3516 40.4683 85.3516 38.13C85.3516 35.7916 87.2498 33.8933 89.5882 33.8933C91.9265 33.8933 93.8249 35.7916 93.8249 38.13Z" fill="#F4E729"/>
<path d="M110.772 38.13C110.772 40.4683 108.873 42.3667 106.535 42.3667C104.197 42.3667 102.298 40.4683 102.298 38.13C102.298 35.7916 104.197 33.8933 106.535 33.8933C108.873 33.8933 110.772 35.7916 110.772 38.13Z" fill="#F4E729"/>
<path d="M127.719 38.13C127.719 40.4683 125.82 42.3667 123.482 42.3667C121.143 42.3667 119.245 40.4683 119.245 38.13C119.245 35.7916 121.143 33.8933 123.482 33.8933C125.82 33.8933 127.719 35.7916 127.719 38.13Z" fill="#F4E729"/>
<path d="M144.657 38.13C144.657 40.4683 142.759 42.3667 140.42 42.3667C138.082 42.3667 136.184 40.4683 136.184 38.13C136.184 35.7916 138.082 33.8933 140.42 33.8933C142.767 33.8933 144.657 35.7916 144.657 38.13Z" fill="#F4E729"/>
<path d="M161.604 38.13C161.604 40.4683 159.705 42.3667 157.367 42.3667C155.029 42.3667 153.13 40.4683 153.13 38.13C153.13 35.7916 155.029 33.8933 157.367 33.8933C159.705 33.8933 161.604 35.7916 161.604 38.13Z" fill="#F4E729"/>
<path d="M76.8776 55.0765C76.8776 57.4149 74.9793 59.3131 72.6409 59.3131C70.3025 59.3131 68.4043 57.4149 68.4043 55.0765C68.4043 52.7381 70.3025 50.8398 72.6409 50.8398C74.9793 50.8398 76.8776 52.7381 76.8776 55.0765Z" fill="#F4E729"/>
<path d="M93.8249 55.0765C93.8249 57.4149 91.9265 59.3131 89.5882 59.3131C87.2498 59.3131 85.3516 57.4149 85.3516 55.0765C85.3516 52.7381 87.2498 50.8398 89.5882 50.8398C91.9265 50.8398 93.8249 52.7381 93.8249 55.0765Z" fill="#F4E729"/>
<path d="M110.772 55.0765C110.772 57.4149 108.873 59.3131 106.535 59.3131C104.197 59.3131 102.298 57.4149 102.298 55.0765C102.298 52.7381 104.197 50.8398 106.535 50.8398C108.873 50.8398 110.772 52.7381 110.772 55.0765Z" fill="#F4E729"/>
<path d="M127.719 55.0765C127.719 57.4149 125.82 59.3131 123.482 59.3131C121.143 59.3131 119.245 57.4149 119.245 55.0765C119.245 52.7381 121.143 50.8398 123.482 50.8398C125.82 50.8398 127.719 52.7381 127.719 55.0765Z" fill="#F4E729"/>
<path d="M144.657 55.0765C144.657 57.4149 142.759 59.3131 140.42 59.3131C138.082 59.3131 136.184 57.4149 136.184 55.0765C136.184 52.7381 138.082 50.8398 140.42 50.8398C142.767 50.8398 144.657 52.7381 144.657 55.0765Z" fill="#F4E729"/>
<path d="M161.604 55.0765C161.604 57.4149 159.705 59.3131 157.367 59.3131C155.029 59.3131 153.13 57.4149 153.13 55.0765C153.13 52.7381 155.029 50.8398 157.367 50.8398C159.705 50.8398 161.604 52.7381 161.604 55.0765Z" fill="#F4E729"/>
<path d="M178.55 55.0765C178.55 57.4149 176.651 59.3131 174.313 59.3131C171.975 59.3131 170.076 57.4149 170.076 55.0765C170.076 52.7381 171.975 50.8398 174.313 50.8398C176.651 50.8398 178.55 52.7381 178.55 55.0765Z" fill="#F4E729"/>
<path d="M55.6962 76.2601C58.036 76.2601 59.9328 74.3633 59.9328 72.0234C59.9328 69.6836 58.036 67.7867 55.6962 67.7867C53.3563 67.7867 51.4595 69.6836 51.4595 72.0234C51.4595 74.3633 53.3563 76.2601 55.6962 76.2601Z" fill="#F4E729"/>
<path d="M76.8776 72.0234C76.8776 74.3618 74.9793 76.2601 72.6409 76.2601C70.3025 76.2601 68.4043 74.3618 68.4043 72.0234C68.4043 69.6851 70.3025 67.7867 72.6409 67.7867C74.9793 67.7867 76.8776 69.6851 76.8776 72.0234Z" fill="#F4E729"/>
<path d="M93.8249 72.0234C93.8249 74.3618 91.9265 76.2601 89.5882 76.2601C87.2498 76.2601 85.3516 74.3618 85.3516 72.0234C85.3516 69.6851 87.2498 67.7867 89.5882 67.7867C91.9265 67.7867 93.8249 69.6851 93.8249 72.0234Z" fill="#F4E729"/>
<path d="M110.772 72.0234C110.772 74.3618 108.873 76.2601 106.535 76.2601C104.197 76.2601 102.298 74.3618 102.298 72.0234C102.298 69.6851 104.197 67.7867 106.535 67.7867C108.873 67.7867 110.772 69.6851 110.772 72.0234Z" fill="#F4E729"/>
<path d="M123.482 76.2601C125.822 76.2601 127.719 74.3633 127.719 72.0234C127.719 69.6836 125.822 67.7867 123.482 67.7867C121.142 67.7867 119.245 69.6836 119.245 72.0234C119.245 74.3633 121.142 76.2601 123.482 76.2601Z" fill="#F4E729"/>
<path d="M140.428 76.2601C142.768 76.2601 144.665 74.3633 144.665 72.0234C144.665 69.6836 142.768 67.7867 140.428 67.7867C138.088 67.7867 136.191 69.6836 136.191 72.0234C136.191 74.3633 138.088 76.2601 140.428 76.2601Z" fill="#F4E729"/>
<path d="M157.367 76.2601C159.707 76.2601 161.604 74.3633 161.604 72.0234C161.604 69.6836 159.707 67.7867 157.367 67.7867C155.027 67.7867 153.13 69.6836 153.13 72.0234C153.13 74.3633 155.027 76.2601 157.367 76.2601Z" fill="#F4E729"/>
<path d="M178.55 72.0234C178.55 74.3618 176.651 76.2601 174.313 76.2601C171.975 76.2601 170.076 74.3618 170.076 72.0234C170.076 69.6851 171.975 67.7867 174.313 67.7867C176.651 67.7867 178.55 69.6851 178.55 72.0234Z" fill="#F4E729"/>
<path d="M195.496 72.0234C195.496 74.3618 193.598 76.2601 191.26 76.2601C188.921 76.2601 187.023 74.3618 187.023 72.0234C187.023 69.6851 188.921 67.7867 191.26 67.7867C193.598 67.7867 195.496 69.6851 195.496 72.0234Z" fill="#F4E729"/>
<path d="M42.9845 88.9702C42.9845 91.3086 41.0863 93.2069 38.7479 93.2069C36.4096 93.2069 34.5112 91.3086 34.5112 88.9702C34.5112 86.6319 36.4096 84.7335 38.7479 84.7335C41.0863 84.7335 42.9845 86.6319 42.9845 88.9702Z" fill="#F4E729"/>
<path d="M55.6962 93.2069C58.036 93.2069 59.9328 91.3101 59.9328 88.9702C59.9328 86.6304 58.036 84.7335 55.6962 84.7335C53.3563 84.7335 51.4595 86.6304 51.4595 88.9702C51.4595 91.3101 53.3563 93.2069 55.6962 93.2069Z" fill="#F4E729"/>
<path d="M76.8776 88.9702C76.8776 91.3086 74.9793 93.2069 72.6409 93.2069C70.3025 93.2069 68.4043 91.3086 68.4043 88.9702C68.4043 86.6319 70.3025 84.7335 72.6409 84.7335C74.9793 84.7335 76.8776 86.6319 76.8776 88.9702Z" fill="#F4E729"/>
<path d="M93.8249 88.9702C93.8249 91.3086 91.9265 93.2069 89.5882 93.2069C87.2498 93.2069 85.3516 91.3086 85.3516 88.9702C85.3516 86.6319 87.2498 84.7335 89.5882 84.7335C91.9265 84.7335 93.8249 86.6319 93.8249 88.9702Z" fill="#F4E729"/>
<path d="M110.772 88.9702C110.772 91.3086 108.873 93.2069 106.535 93.2069C104.197 93.2069 102.298 91.3086 102.298 88.9702C102.298 86.6319 104.197 84.7335 106.535 84.7335C108.873 84.7335 110.772 86.6319 110.772 88.9702Z" fill="#F4E729"/>
<path d="M123.482 93.2069C125.822 93.2069 127.719 91.3101 127.719 88.9702C127.719 86.6304 125.822 84.7335 123.482 84.7335C121.142 84.7335 119.245 86.6304 119.245 88.9702C119.245 91.3101 121.142 93.2069 123.482 93.2069Z" fill="#F4E729"/>
<path d="M140.428 93.2069C142.768 93.2069 144.665 91.3101 144.665 88.9702C144.665 86.6304 142.768 84.7335 140.428 84.7335C138.088 84.7335 136.191 86.6304 136.191 88.9702C136.191 91.3101 138.088 93.2069 140.428 93.2069Z" fill="#F4E729"/>
<path d="M157.367 93.2069C159.707 93.2069 161.604 91.3101 161.604 88.9702C161.604 86.6304 159.707 84.7335 157.367 84.7335C155.027 84.7335 153.13 86.6304 153.13 88.9702C153.13 91.3101 155.027 93.2069 157.367 93.2069Z" fill="#F4E729"/>
<path d="M178.55 88.9702C178.55 91.3086 176.651 93.2069 174.313 93.2069C171.975 93.2069 170.076 91.3086 170.076 88.9702C170.076 86.6319 171.975 84.7335 174.313 84.7335C176.651 84.7335 178.55 86.6319 178.55 88.9702Z" fill="#F4E729"/>
<path d="M195.496 88.9702C195.496 91.3086 193.598 93.2069 191.26 93.2069C188.921 93.2069 187.023 91.3086 187.023 88.9702C187.023 86.6319 188.921 84.7335 191.26 84.7335C193.598 84.7335 195.496 86.6319 195.496 88.9702Z" fill="#F4E729"/>
<path d="M212.444 88.9702C212.444 91.3086 210.546 93.2069 208.207 93.2069C205.869 93.2069 203.971 91.3086 203.971 88.9702C203.971 86.6319 205.869 84.7335 208.207 84.7335C210.546 84.7335 212.444 86.6319 212.444 88.9702Z" fill="#F4E729"/>
<path d="M26.0374 105.917C26.0374 108.255 24.139 110.154 21.8007 110.154C19.4623 110.154 17.564 108.255 17.564 105.917C17.564 103.579 19.4623 101.68 21.8007 101.68C24.139 101.68 26.0374 103.579 26.0374 105.917Z" fill="#F4E729"/>
<path d="M42.9845 105.917C42.9845 108.255 41.0863 110.154 38.7479 110.154C36.4096 110.154 34.5112 108.255 34.5112 105.917C34.5112 103.579 36.4096 101.68 38.7479 101.68C41.0863 101.68 42.9845 103.579 42.9845 105.917Z" fill="#F4E729"/>
<path d="M59.9328 105.917C59.9328 108.255 58.0345 110.154 55.6962 110.154C53.3578 110.154 51.4595 108.255 51.4595 105.917C51.4595 103.579 53.3578 101.68 55.6962 101.68C58.0345 101.68 59.9328 103.579 59.9328 105.917Z" fill="#F4E729"/>
<path d="M76.8776 105.917C76.8776 108.255 74.9793 110.154 72.6409 110.154C70.3025 110.154 68.4043 108.255 68.4043 105.917C68.4043 103.579 70.3025 101.68 72.6409 101.68C74.9793 101.68 76.8776 103.579 76.8776 105.917Z" fill="#F4E729"/>
<path d="M93.8249 105.917C93.8249 108.255 91.9265 110.154 89.5882 110.154C87.2498 110.154 85.3516 108.255 85.3516 105.917C85.3516 103.579 87.2498 101.68 89.5882 101.68C91.9265 101.68 93.8249 103.579 93.8249 105.917Z" fill="#F4E729"/>
<path d="M110.772 105.917C110.772 108.255 108.873 110.154 106.535 110.154C104.197 110.154 102.298 108.255 102.298 105.917C102.298 103.579 104.197 101.68 106.535 101.68C108.873 101.68 110.772 103.579 110.772 105.917Z" fill="#F4E729"/>
<path d="M127.719 105.917C127.719 108.255 125.82 110.154 123.482 110.154C121.143 110.154 119.245 108.255 119.245 105.917C119.245 103.579 121.143 101.68 123.482 101.68C125.82 101.68 127.719 103.579 127.719 105.917Z" fill="#F4E729"/>
<path d="M144.657 105.917C144.657 108.255 142.759 110.154 140.42 110.154C138.082 110.154 136.184 108.255 136.184 105.917C136.184 103.579 138.082 101.68 140.42 101.68C142.767 101.68 144.657 103.579 144.657 105.917Z" fill="#F4E729"/>
<path d="M161.604 105.917C161.604 108.255 159.705 110.154 157.367 110.154C155.029 110.154 153.13 108.255 153.13 105.917C153.13 103.579 155.029 101.68 157.367 101.68C159.705 101.68 161.604 103.579 161.604 105.917Z" fill="#F4E729"/>
<path d="M178.55 105.917C178.55 108.255 176.651 110.154 174.313 110.154C171.975 110.154 170.076 108.255 170.076 105.917C170.076 103.579 171.975 101.68 174.313 101.68C176.651 101.68 178.55 103.579 178.55 105.917Z" fill="#F4E729"/>
<path d="M195.496 105.917C195.496 108.255 193.598 110.154 191.26 110.154C188.921 110.154 187.023 108.255 187.023 105.917C187.023 103.579 188.921 101.68 191.26 101.68C193.598 101.68 195.496 103.579 195.496 105.917Z" fill="#F4E729"/>
<path d="M212.444 105.917C212.444 108.255 210.546 110.154 208.207 110.154C205.869 110.154 203.971 108.255 203.971 105.917C203.971 103.579 205.869 101.68 208.207 101.68C210.546 101.68 212.444 103.579 212.444 105.917Z" fill="#F4E729"/>
<path d="M229.389 105.917C229.389 108.255 227.491 110.154 225.153 110.154C222.814 110.154 220.916 108.255 220.916 105.917C220.916 103.579 222.814 101.68 225.153 101.68C227.491 101.68 229.389 103.579 229.389 105.917Z" fill="#F4E729"/>
<path d="M9.09108 122.863C9.09108 125.202 7.19275 127.1 4.85438 127.1C2.51601 127.1 0.617676 125.202 0.617676 122.863C0.617676 120.525 2.51601 118.627 4.85438 118.627C7.19275 118.627 9.09108 120.525 9.09108 122.863Z" fill="#F4E729"/>
<path d="M26.0374 122.863C26.0374 125.202 24.139 127.1 21.8007 127.1C19.4623 127.1 17.564 125.202 17.564 122.863C17.564 120.525 19.4623 118.627 21.8007 118.627C24.139 118.627 26.0374 120.525 26.0374 122.863Z" fill="#F4E729"/>
<path d="M42.9845 122.863C42.9845 125.202 41.0863 127.1 38.7479 127.1C36.4096 127.1 34.5112 125.202 34.5112 122.863C34.5112 120.525 36.4096 118.627 38.7479 118.627C41.0863 118.627 42.9845 120.525 42.9845 122.863Z" fill="#F4E729"/>
<path d="M59.9328 122.863C59.9328 125.202 58.0345 127.1 55.6962 127.1C53.3578 127.1 51.4595 125.202 51.4595 122.863C51.4595 120.525 53.3578 118.627 55.6962 118.627C58.0345 118.627 59.9328 120.525 59.9328 122.863Z" fill="#F4E729"/>
<path d="M76.8776 122.863C76.8776 125.202 74.9793 127.1 72.6409 127.1C70.3025 127.1 68.4043 125.202 68.4043 122.863C68.4043 120.525 70.3025 118.627 72.6409 118.627C74.9793 118.627 76.8776 120.525 76.8776 122.863Z" fill="#F4E729"/>
<path d="M93.8249 122.863C93.8249 125.202 91.9265 127.1 89.5882 127.1C87.2498 127.1 85.3516 125.202 85.3516 122.863C85.3516 120.525 87.2498 118.627 89.5882 118.627C91.9265 118.627 93.8249 120.525 93.8249 122.863Z" fill="#F4E729"/>
<path d="M110.772 122.863C110.772 125.202 108.873 127.1 106.535 127.1C104.197 127.1 102.298 125.202 102.298 122.863C102.298 120.525 104.197 118.627 106.535 118.627C108.873 118.627 110.772 120.525 110.772 122.863Z" fill="#F4E729"/>
<path d="M127.719 122.863C127.719 125.202 125.82 127.1 123.482 127.1C121.143 127.1 119.245 125.202 119.245 122.863C119.245 120.525 121.143 118.627 123.482 118.627C125.82 118.627 127.719 120.525 127.719 122.863Z" fill="#F4E729"/>
<path d="M144.657 122.863C144.657 125.202 142.759 127.1 140.42 127.1C138.082 127.1 136.184 125.202 136.184 122.863C136.184 120.525 138.082 118.627 140.42 118.627C142.767 118.627 144.657 120.525 144.657 122.863Z" fill="#F4E729"/>
<path d="M161.604 122.863C161.604 125.202 159.705 127.1 157.367 127.1C155.029 127.1 153.13 125.202 153.13 122.863C153.13 120.525 155.029 118.627 157.367 118.627C159.705 118.627 161.604 120.525 161.604 122.863Z" fill="#F4E729"/>
<path d="M178.55 122.863C178.55 125.202 176.651 127.1 174.313 127.1C171.975 127.1 170.076 125.202 170.076 122.863C170.076 120.525 171.975 118.627 174.313 118.627C176.651 118.627 178.55 120.525 178.55 122.863Z" fill="#F4E729"/>
<path d="M195.496 122.863C195.496 125.202 193.598 127.1 191.26 127.1C188.921 127.1 187.023 125.202 187.023 122.863C187.023 120.525 188.921 118.627 191.26 118.627C193.598 118.627 195.496 120.525 195.496 122.863Z" fill="#F4E729"/>
<path d="M212.444 122.863C212.444 125.202 210.546 127.1 208.207 127.1C205.869 127.1 203.971 125.202 203.971 122.863C203.971 120.525 205.869 118.627 208.207 118.627C210.546 118.627 212.444 120.525 212.444 122.863Z" fill="#F4E729"/>
<path d="M229.389 122.863C229.389 125.202 227.491 127.1 225.153 127.1C222.814 127.1 220.916 125.202 220.916 122.863C220.916 120.525 222.814 118.627 225.153 118.627C227.491 118.627 229.389 120.525 229.389 122.863Z" fill="#F4E729"/>
<path d="M246.337 122.863C246.337 125.202 244.438 127.1 242.1 127.1C239.762 127.1 237.863 125.202 237.863 122.863C237.863 120.525 239.762 118.627 242.1 118.627C244.438 118.627 246.337 120.525 246.337 122.863Z" fill="#F4E729"/>
</svg>
