<svg viewBox="0 0 308 367" xmlns="http://www.w3.org/2000/svg">
<path d="M240.278 227.629C277.441 227.629 307.564 198.249 307.564 162H173C172.991 198.249 203.114 227.629 240.278 227.629Z" fill="#F4E729"/>
<path d="M186.293 360.821L181.107 366.007C176.353 361.253 171.676 361.408 165.765 361.615C159.302 361.831 151.985 362.081 144.97 355.074C137.955 348.059 138.214 340.742 138.43 334.279C138.637 328.369 138.801 323.692 134.038 318.938C129.292 314.183 124.607 314.338 118.696 314.546C112.233 314.77 104.916 315.02 97.9181 308.005C90.903 300.999 91.1532 293.673 91.3775 287.227C91.5846 281.308 91.7486 276.631 86.9855 271.885C82.2312 267.131 77.5544 267.286 71.6438 267.493C65.1809 267.709 57.8638 267.968 50.8487 260.953C43.8422 253.946 44.0925 246.621 44.3255 240.175C44.5326 234.256 44.6964 229.579 39.9334 224.825C35.179 220.079 30.5024 220.243 24.5917 220.441C18.1289 220.657 10.8117 220.916 3.79663 213.901C2.17444 212.279 0.949153 210.639 0 209H9.29303C13.9525 213.452 18.5516 213.305 24.3328 213.098C30.7957 212.874 38.1128 212.624 45.1279 219.639C52.1344 226.645 51.8842 233.971 51.6512 240.417C51.4441 246.336 51.2802 251.013 56.0432 255.758C60.7976 260.513 65.4743 260.358 71.385 260.15C77.8478 259.935 85.1649 259.676 92.18 266.691C99.1865 273.697 98.9362 281.023 98.7032 287.469C98.4961 293.388 98.3495 298.065 103.095 302.819C107.85 307.565 112.526 307.401 118.446 307.203C124.9 306.987 132.217 306.737 139.224 313.743C146.239 320.758 145.98 328.075 145.764 334.538C145.557 340.449 145.393 345.126 150.156 349.88C154.91 354.634 159.587 354.479 165.498 354.272C171.969 354.056 179.286 353.806 186.293 360.821Z" fill="white"/>
<path d="M72.6262 6.04006L66.5862 0L60.3131 6.27303L54.0314 0L48 6.04006L54.2731 12.3131L48 18.5861L54.0314 24.6262L60.3131 18.3532L66.5862 24.6262L72.6262 18.5861L66.3532 12.3131L72.6262 6.04006Z" fill="#4D91CE"/>
<path d="M261.166 73.1578L301.324 33H221L261.166 73.1578Z" fill="white"/>
</svg>
