<svg viewBox="0 0 180 100" xmlns="http://www.w3.org/2000/svg">
<path d="M12.3593 24.1308H28.5894V32.8015H1.64429V0H28.0986V8.67077H12.3553V12.1947H24.2795V20.156H12.3553V24.1308H12.3593Z" fill="white"/>
<path d="M52.4135 32.7977H42.8638V30.2145C42.7401 30.4301 42.5246 30.7084 42.2253 31.0612C41.922 31.414 41.2396 31.8648 40.1741 32.4214C39.1086 32.978 37.9433 33.2563 36.6703 33.2563C34.7627 33.2563 33.1305 32.6095 31.7817 31.3121C30.4328 30.0146 29.7544 28.4819 29.7544 26.714C29.7544 23.0254 32.2246 20.599 37.1611 19.4387L43.1232 18.0433C43.1232 17.5415 42.8678 17.1025 42.353 16.7262C41.8422 16.3538 41.1438 16.1656 40.2579 16.1656C39.4957 16.1656 38.7334 16.346 37.9632 16.7027C37.193 17.0594 36.6383 17.4161 36.2991 17.765L35.7165 18.2667L31.199 13.5785C31.2908 13.457 31.4225 13.2963 31.5941 13.0964C31.7657 12.9004 32.1688 12.5476 32.8033 12.0458C33.4378 11.5441 34.1242 11.0972 34.8545 10.7092C35.5848 10.3211 36.5466 9.96048 37.7438 9.63513C38.937 9.30586 40.1741 9.14514 41.4471 9.14514C44.7235 9.14514 47.3693 10.0428 49.3886 11.8342C51.4079 13.6256 52.4175 15.8481 52.4175 18.5019V32.7977H52.4135ZM40.4894 26.4867C41.2197 26.4867 41.8382 26.2045 42.353 25.64C42.8638 25.0755 43.1232 24.3347 43.1232 23.4213V22.7354L40.4934 23.4213C39.5476 23.6644 39.0727 24.2132 39.0727 25.0677C39.0687 26.0124 39.5436 26.4867 40.4894 26.4867Z" fill="white"/>
<path d="M74.8174 13.1275L70.5074 17.5648C69.7173 16.7887 68.8473 16.3967 67.8975 16.3967C67.3548 16.3967 66.8999 16.5221 66.5367 16.773C66.1736 17.0239 65.99 17.2865 65.99 17.5609C65.99 17.8667 66.3172 18.1646 66.9677 18.4547C67.6182 18.7447 68.4163 19.0544 69.3541 19.3798C70.292 19.709 71.2298 20.1049 72.1596 20.5675C73.0894 21.0339 73.8836 21.7356 74.5341 22.6724C75.1845 23.6093 75.5118 24.7186 75.5118 26.0004C75.5118 27.9996 74.542 29.7478 72.6025 31.2491C70.6631 32.7505 68.0612 33.5031 64.8008 33.5031C63.3402 33.5031 61.9474 33.3384 60.6185 33.0131C59.2896 32.6838 58.2241 32.2918 57.418 31.8332C56.6119 31.3746 55.8975 30.9238 55.275 30.473C54.6524 30.0222 54.2174 29.6381 53.97 29.3166L53.575 28.8149L57.8849 24.3541C58.0086 24.507 58.2082 24.7029 58.4795 24.9381C58.7509 25.1733 59.2577 25.4908 60.0039 25.8867C60.7502 26.2826 61.4725 26.4826 62.1709 26.4826C62.7456 26.4826 63.2085 26.3414 63.5557 26.0592C63.9068 25.777 64.0784 25.4438 64.0784 25.0636C64.0784 24.7578 63.7512 24.4638 63.1007 24.1816C62.4502 23.8994 61.6521 23.6015 60.7143 23.2879C59.7765 22.9743 58.8347 22.5823 57.8969 22.108C56.9591 21.6337 56.1609 20.9281 55.5104 19.9913C54.86 19.0544 54.5327 17.9294 54.5327 16.6162C54.5327 14.6798 55.5025 12.9472 57.4419 11.4224C59.3814 9.89755 61.9115 9.13318 65.0322 9.13318C66.3372 9.13318 67.5583 9.2743 68.6997 9.55653C69.841 9.83876 70.7668 10.1759 71.4812 10.5639C72.1955 10.952 72.8141 11.3322 73.3448 11.7085C73.8716 12.0809 74.2467 12.4063 74.4622 12.6807L74.8174 13.1275Z" fill="white"/>
<path d="M78.848 33.9658C80.3086 33.9658 81.5337 33.2641 82.5274 31.8608L74.3306 9.83105H84.0878L87.6754 22.0219L91.2631 9.83105H101.02L92.4523 33.025C90.0938 39.4301 86.5141 42.6326 81.7173 42.6326C80.8314 42.6326 79.9495 42.5581 79.0755 42.4053C78.1975 42.2524 77.5351 42.0917 77.0842 41.9231L76.4776 41.6958V33.5071C77.1121 33.8129 77.9022 33.9658 78.848 33.9658Z" fill="white"/>
<path d="M43.5664 55.2075C43.5664 57.3399 43.2152 59.3822 42.5168 61.3304C41.8184 63.2785 40.9604 64.8896 39.9468 66.1558C38.9332 67.4258 37.9315 68.5469 36.9458 69.5151C35.9601 70.4833 35.1141 71.1889 34.4157 71.6318L33.3661 72.2668C33.5457 72.4785 33.8091 72.7294 34.1603 73.0194C34.5115 73.3095 35.3535 73.7133 36.6904 74.2229C38.0273 74.7324 39.4879 74.9912 41.0682 74.9912L43.275 74.7011V84.195C42.5367 84.3714 41.7147 84.4616 40.7968 84.4616C38.4822 84.4616 36.2953 84.1441 34.2401 83.509C32.1849 82.874 30.5008 82.1057 29.1919 81.2081C27.8829 80.3104 26.7416 79.4089 25.7719 78.5112C24.8021 77.6136 24.1117 76.8531 23.6967 76.2377L23.1061 75.2577H21.7852C15.6475 75.2577 10.4795 73.286 6.28933 69.3465C2.09911 65.407 0 60.6953 0 55.2075C0 49.7236 2.09511 45.0119 6.28933 41.0685C10.4795 37.1291 15.6475 35.1573 21.7852 35.1573C27.9229 35.1573 33.0908 37.1291 37.281 41.0685C41.4712 45.0119 43.5664 49.7236 43.5664 55.2075ZM15.1167 48.6888C13.293 50.4801 12.3831 52.6557 12.3831 55.2232C12.3831 57.7868 13.293 59.9623 15.1167 61.742C16.9405 63.5216 19.1553 64.4153 21.7692 64.4153C24.3831 64.4153 26.5979 63.5255 28.4217 61.742C30.2454 59.9623 31.1553 57.7868 31.1553 55.2232C31.1553 52.6557 30.2454 50.4801 28.4217 48.6888C26.5979 46.8974 24.3831 46.0036 21.7692 46.0036C19.1553 46.0036 16.9405 46.8974 15.1167 48.6888Z" fill="white"/>
<path d="M63.1169 74.1721V71.1812C62.9373 71.4281 62.6819 71.7535 62.3506 72.1611C62.0194 72.5688 61.2213 73.0902 59.9523 73.733C58.6872 74.3759 57.2984 74.6973 55.7939 74.6973C52.9206 74.6973 50.5741 73.7134 48.7544 71.7496C46.9306 69.7818 46.0208 67.1241 46.0208 63.7765V47.6149H57.063V61.4481C57.063 62.3811 57.3184 63.1102 57.8292 63.6315C58.34 64.1529 59.0344 64.4116 59.9163 64.4116C60.8661 64.4116 61.6403 64.0823 62.2309 63.4198C62.8215 62.7574 63.1209 61.8284 63.1209 60.6289V47.6149H74.1591V74.1681H63.1169V74.1721Z" fill="white"/>
<path d="M87.3842 47.6149V74.1681H76.3699V47.6149H87.3842Z" fill="white"/>
<path d="M148.006 63.3257H130.639C130.962 64.1175 131.585 64.8153 132.511 65.415C133.436 66.0147 134.65 66.3126 136.158 66.3126C137.144 66.3126 138.074 66.1598 138.944 65.8501C139.814 65.5404 140.448 65.2268 140.843 64.9093L141.41 64.4076L145.8 71.1772C145.476 71.4595 145.009 71.8122 144.399 72.2356C143.788 72.6589 142.499 73.2234 140.536 73.929C138.569 74.6345 136.565 74.9873 134.518 74.9873C130.172 74.9873 126.513 73.6036 123.532 70.8362C120.551 68.0687 119.062 64.7525 119.062 60.8914C119.062 57.0304 120.499 53.7181 123.372 50.9585C126.245 48.1989 129.773 46.8191 133.955 46.8191C138.03 46.8191 141.486 48.1558 144.323 50.8252C147.16 53.4946 148.577 56.6737 148.577 60.3623C148.577 60.9424 148.533 61.4794 148.441 61.9616C148.35 62.4477 148.242 62.7965 148.118 63.0082L148.006 63.3257ZM136.13 55.8152C135.484 55.2351 134.757 54.9411 133.951 54.9411C133.141 54.9411 132.415 55.2272 131.768 55.7995C131.122 56.3718 130.655 57.0813 130.368 57.928H137.531C137.244 57.1009 136.777 56.3954 136.13 55.8152Z" fill="white"/>
<path d="M179.429 63.3257H162.062C162.385 64.1175 163.008 64.8153 163.934 65.415C164.859 66.0147 166.073 66.3126 167.581 66.3126C168.567 66.3126 169.497 66.1598 170.366 65.8501C171.236 65.5404 171.871 65.2268 172.266 64.9093L172.833 64.4076L177.222 71.1772C176.899 71.4595 176.432 71.8122 175.822 72.2356C175.211 72.6589 173.922 73.2234 171.959 73.929C169.991 74.6345 167.988 74.9873 165.941 74.9873C161.595 74.9873 157.936 73.6036 154.954 70.8362C151.973 68.0687 150.485 64.7525 150.485 60.8914C150.485 57.0304 151.922 53.7181 154.795 50.9585C157.668 48.1989 161.196 46.8191 165.378 46.8191C169.453 46.8191 172.909 48.1558 175.746 50.8252C178.583 53.4946 180 56.6737 180 60.3623C180 60.9424 179.956 61.4794 179.864 61.9616C179.773 62.4477 179.665 62.7965 179.541 63.0082L179.429 63.3257ZM167.553 55.8152C166.907 55.2351 166.18 54.9411 165.374 54.9411C164.564 54.9411 163.838 55.2272 163.191 55.7995C162.545 56.3718 162.078 57.0813 161.791 57.928H168.954C168.666 57.1009 168.2 56.3954 167.553 55.8152Z" fill="white"/>
<path d="M118.479 17.412L109.911 42.3346L119.254 40.8254L120.499 45.3646L109.808 65.6931L117.598 64.7798L118.799 69.2798L84.5586 99.9999L111.727 53.0437L105.482 42.9775L118.479 17.412Z" fill="url(#paint0_linear)"/>
<path d="M90.1177 50.531L91.3308 55.0192L101.599 54.2157L89.4832 72.5921L90.6923 77.0725L98.0113 76.5864L109.907 54.0001L104.763 49.1394L90.1177 50.531Z" fill="url(#paint1_linear)"/>
<path d="M118.479 17.412L106.044 42.6717L119.254 40.8254L104.903 66.1086L117.598 64.7798L84.5586 99.9999L100.525 71.7102L89.4831 72.5921L102.636 49.3747L90.1176 50.531L118.479 17.412Z" fill="url(#paint2_linear)"/>
<defs>
<linearGradient id="paint0_linear" x1="101.995" y1="58.8644" x2="123.081" y2="66.1604" gradientUnits="userSpaceOnUse">
<stop stop-color="#F29222"/>
<stop offset="0.4515" stop-color="#F7AC20"/>
<stop offset="1" stop-color="#F8E82F"/>
</linearGradient>
<linearGradient id="paint1_linear" x1="85.2851" y1="60.1705" x2="103.286" y2="64.5733" gradientUnits="userSpaceOnUse">
<stop stop-color="#F8E82F"/>
<stop offset="0.5485" stop-color="#F7AC20"/>
<stop offset="1" stop-color="#F29222"/>
</linearGradient>
<linearGradient id="paint2_linear" x1="101.905" y1="99.998" x2="101.905" y2="17.4126" gradientUnits="userSpaceOnUse">
<stop stop-color="#F8AF3C"/>
<stop offset="0.5" stop-color="#F8E82F"/>
<stop offset="1" stop-color="#F8AF3C"/>
</linearGradient>
</defs>
</svg>
