<svg viewBox="0 0 231 143" xmlns="http://www.w3.org/2000/svg">
<path d="M32.508 90.072H31.008V91.572H32.508V90.072ZM37.592 79.904L38.5092 81.0909L38.5164 81.0853L38.5236 81.0796L37.592 79.904ZM71.376 12.992L70.2768 14.0127L70.2837 14.02L71.376 12.992ZM4.3 14.14L3.48329 12.8818L3.4613 12.8961L3.43981 12.9111L4.3 14.14ZM3.152 17.912L4.49899 17.252L4.48199 17.2173L4.46324 17.1835L3.152 17.912ZM11.188 34.312L12.5499 33.6834L12.5426 33.6676L12.535 33.652L11.188 34.312ZM15.78 34.968L16.5517 36.2542L16.5824 36.2359L16.6121 36.2161L15.78 34.968ZM49.564 28.244L50.5815 27.1418L50.573 27.1341L49.564 28.244ZM48.58 44.644L49.6087 45.7357L49.6249 45.7204L49.6407 45.7047L48.58 44.644ZM14.632 66.456L13.5948 65.3724L13.5904 65.3766L14.632 66.456ZM34.008 90.072C34.008 88.1184 34.3447 86.5106 35.0419 85.0987C35.7399 83.6854 36.8437 82.3779 38.5092 81.0909L36.6748 78.7171C34.7323 80.2181 33.2941 81.8626 32.3521 83.7703C31.4093 85.6794 31.008 87.7616 31.008 90.072H34.008ZM38.5236 81.0796C42.7207 77.7536 47.7256 75.5114 53.3072 72.6265C58.8275 69.7733 64.7293 66.368 70.3047 60.7927L68.1833 58.6713C62.9347 63.92 57.3565 67.1567 51.9298 69.9615C46.5644 72.7346 41.1553 75.1664 36.6604 78.7284L38.5236 81.0796ZM70.3047 60.7927C77.312 53.7853 81.076 44.8749 81.076 34.476H78.076C78.076 44.0851 74.624 52.2307 68.1833 58.6713L70.3047 60.7927ZM81.076 34.476C81.076 25.7533 77.9938 17.8348 72.4683 11.9639L70.2837 14.02C75.2542 19.3012 78.076 26.4706 78.076 34.476H81.076ZM72.4752 11.9713C65.7597 4.73923 55.5016 0.339991 43.332 0.339991V3.33999C54.7784 3.33999 64.2003 7.46876 70.2768 14.0127L72.4752 11.9713ZM43.332 0.339991C25.051 0.339991 12.9554 6.73328 3.48329 12.8818L5.11671 15.3982C14.3406 9.41072 25.861 3.33999 43.332 3.33999V0.339991ZM3.43981 12.9111C2.49632 13.5716 1.69089 14.3915 1.36676 15.472C1.02738 16.6032 1.31078 17.6865 1.84076 18.6405L4.46324 17.1835C4.17322 16.6615 4.21062 16.4328 4.24024 16.334C4.28511 16.1844 4.46368 15.8564 5.16019 15.3688L3.43981 12.9111ZM1.80502 18.572L9.84101 34.972L12.535 33.652L4.49899 17.252L1.80502 18.572ZM9.82606 34.9406C10.1618 35.668 10.6285 36.2701 11.2433 36.6905C11.863 37.1143 12.543 37.2916 13.2005 37.308C14.4485 37.3392 15.6501 36.7952 16.5517 36.2542L15.0083 33.6818C14.2699 34.1248 13.6675 34.3188 13.2755 34.309C13.113 34.3049 13.014 34.267 12.9367 34.2141C12.8545 34.1579 12.7062 34.022 12.5499 33.6834L9.82606 34.9406ZM16.6121 36.2161C25.3634 30.3818 33.2659 27.12 40.872 27.12V24.12C32.4061 24.12 23.9086 27.7462 14.948 33.7199L16.6121 36.2161ZM40.872 27.12C44.902 27.12 47.1152 28.045 48.555 29.3539L50.573 27.1341C48.4048 25.163 45.37 24.12 40.872 24.12V27.12ZM48.5466 29.3462C50.2924 30.9577 51.016 33.4621 51.016 35.296H54.016C54.016 32.8659 53.0997 29.4663 50.5814 27.1418L48.5466 29.3462ZM51.016 35.296C51.016 38.6476 49.8784 41.2242 47.5193 43.5833L49.6407 45.7047C52.5296 42.8158 54.016 39.4884 54.016 35.296H51.016ZM47.5513 43.5523C43.4788 47.3899 38.0954 49.9917 32.0276 53.1087C26.0304 56.1895 19.5045 59.716 13.5948 65.3724L15.6692 67.5396C21.2395 62.208 27.4236 58.8465 33.3984 55.7772C39.3026 52.7443 45.1532 49.9341 49.6087 45.7357L47.5513 43.5523ZM13.5904 65.3766C3.87554 74.7506 0.0120001 85.6806 0.0120001 102.044H3.012C3.012 86.2634 6.69246 76.2014 15.6736 67.5354L13.5904 65.3766ZM0.0120001 102.044V112.048H3.012V102.044H0.0120001ZM0.0120001 112.048C0.0120001 114.516 1.99557 116.5 4.464 116.5V113.5C3.65243 113.5 3.012 112.86 3.012 112.048H0.0120001ZM4.464 116.5H75.148V113.5H4.464V116.5ZM75.148 116.5C77.6164 116.5 79.6 114.516 79.6 112.048H76.6C76.6 112.86 75.9596 113.5 75.148 113.5V116.5ZM79.6 112.048V93.024H76.6V112.048H79.6ZM79.6 93.024C79.6 90.5556 77.6164 88.572 75.148 88.572V91.572C75.9596 91.572 76.6 92.2124 76.6 93.024H79.6ZM75.148 88.572H32.508V91.572H75.148V88.572ZM133.14 106.964L134.64 106.931L134.639 106.927L133.14 106.964ZM99.5199 131.728L100.352 132.976L99.5199 131.728ZM98.6999 135.828L97.4344 136.633L97.4365 136.637L98.6999 135.828ZM101.324 139.928L100.061 140.737L100.091 140.783L100.124 140.828L101.324 139.928ZM105.588 141.076L105.925 142.538L105.96 142.53L105.994 142.52L105.588 141.076ZM134.639 106.927C134.471 100.092 132.824 94.2645 129.396 90.1205C125.927 85.9261 120.797 83.652 114.116 83.652V86.652C120.063 86.652 124.28 88.6419 127.085 92.0325C129.93 95.4735 131.481 100.552 131.64 107.001L134.639 106.927ZM114.116 83.652C108.888 83.652 104.439 85.2682 101.284 88.2177C98.1194 91.1755 96.3799 95.3602 96.3799 100.24H99.3799C99.3799 96.0998 100.838 92.7405 103.332 90.4093C105.835 88.0698 109.504 86.652 114.116 86.652V83.652ZM96.3799 100.24C96.3799 103.842 97.1971 106.524 98.5029 108.62C99.7968 110.698 101.504 112.092 103.08 113.21C104.746 114.392 106.046 115.142 107.072 116.143C107.983 117.031 108.516 117.984 108.516 119.428H111.516C111.516 117.018 110.532 115.327 109.167 113.995C107.918 112.777 106.183 111.733 104.816 110.763C103.358 109.729 102.031 108.611 101.049 107.035C100.08 105.477 99.3799 103.362 99.3799 100.24H96.3799ZM108.516 119.428C108.516 121.692 107.224 123.742 105.21 125.66C103.196 127.577 100.713 129.13 98.6879 130.48L100.352 132.976C102.262 131.702 105.027 129.975 107.278 127.833C109.527 125.692 111.516 122.904 111.516 119.428H108.516ZM98.6879 130.48C97.7788 131.086 96.9544 131.936 96.6682 133.117C96.3767 134.32 96.7253 135.519 97.4344 136.633L99.9654 135.023C99.5266 134.333 99.5472 133.974 99.5837 133.824C99.6255 133.652 99.7851 133.354 100.352 132.976L98.6879 130.48ZM97.4365 136.637L100.061 140.737L102.587 139.119L99.9633 135.019L97.4365 136.637ZM100.124 140.828C100.759 141.675 101.551 142.331 102.631 142.626C103.655 142.905 104.758 142.807 105.925 142.538L105.251 139.614C104.286 139.837 103.749 139.821 103.42 139.731C103.146 139.657 102.873 139.493 102.524 139.028L100.124 140.828ZM105.994 142.52C113.616 140.379 120.837 135.436 126.113 129.1C131.388 122.767 134.813 114.923 134.64 106.931L131.64 106.997C131.795 114.093 128.742 121.255 123.808 127.181C118.875 133.104 112.156 137.673 105.182 139.632L105.994 142.52ZM153.566 64.98L152.069 64.8797L152.068 64.8882L152.068 64.8968L153.566 64.98ZM156.518 69.244L156.808 67.7724L156.801 67.771L156.794 67.7697L156.518 69.244ZM169.802 71.868L170.196 70.4209L170.145 70.4068L170.092 70.3964L169.802 71.868ZM173.738 70.392L172.435 69.6478L172.428 69.6607L172.421 69.6737L173.738 70.392ZM179.15 64.488L179.921 65.7742L179.963 65.7491L180.003 65.7213L179.15 64.488ZM198.01 66.292L199.181 65.355L199.172 65.3432L199.162 65.3317L198.01 66.292ZM197.682 89.252L196.517 88.3061L196.516 88.3082L197.682 89.252ZM163.57 86.464L162.775 87.736L162.782 87.7407L162.79 87.7453L163.57 86.464ZM159.962 87.448L158.62 86.7772L158.612 86.7935L158.604 86.81L159.962 87.448ZM152.254 103.848L153.595 104.519L153.603 104.503L153.611 104.486L152.254 103.848ZM153.402 107.62L154.228 106.368L154.18 106.337L154.13 106.309L153.402 107.62ZM219.166 104.34L220.249 105.378L220.257 105.369L220.266 105.36L219.166 104.34ZM221.134 51.204L219.965 52.1441L219.969 52.1498L219.974 52.1555L221.134 51.204ZM186.038 40.052L186.25 41.5369L186.278 41.5329L186.306 41.5278L186.038 40.052ZM180.626 41.2L179.13 41.0864L178.93 43.7251L181.296 42.5416L180.626 41.2ZM181.61 28.244V26.744H180.219L180.114 28.1304L181.61 28.244ZM157.502 6.26799L156.009 6.11874L156.007 6.14317L156.005 6.16766L157.502 6.26799ZM152.068 64.8968C151.988 66.3382 152.007 67.7728 152.754 68.8758C153.554 70.056 154.896 70.466 156.241 70.7183L156.794 67.7697C155.516 67.53 155.299 67.284 155.238 67.1932C155.124 67.0252 154.979 66.5738 155.063 65.0632L152.068 64.8968ZM156.227 70.7156L169.511 73.3396L170.092 70.3964L156.808 67.7724L156.227 70.7156ZM169.407 73.3151C170.379 73.5804 171.472 73.7622 172.538 73.4186C173.669 73.0535 174.457 72.2065 175.054 71.1103L172.421 69.6737C172.035 70.3815 171.756 70.5185 171.617 70.5634C171.411 70.6298 171.028 70.6476 170.196 70.4209L169.407 73.3151ZM175.04 71.1362C176.286 68.9554 177.768 67.0661 179.921 65.7742L178.378 63.2018C175.611 64.8619 173.813 67.2366 172.435 69.6478L175.04 71.1362ZM180.003 65.7213C181.879 64.4228 184.368 63.528 187.514 63.528V60.528C183.771 60.528 180.684 61.6012 178.296 63.2547L180.003 65.7213ZM187.514 63.528C191.795 63.528 194.759 64.7338 196.857 67.2523L199.162 65.3317C196.341 61.9462 192.416 60.528 187.514 60.528V63.528ZM196.838 67.229C198.51 69.3186 199.626 72.865 199.626 77.936H202.626C202.626 72.511 201.445 68.1854 199.181 65.355L196.838 67.229ZM199.626 77.936C199.626 82.748 198.391 86.0008 196.517 88.3061L198.846 90.1979C201.237 87.2552 202.626 83.292 202.626 77.936H199.626ZM196.516 88.3082C194.094 91.2993 190.325 92.672 186.038 92.672V95.672C190.934 95.672 195.693 94.0927 198.847 90.1958L196.516 88.3082ZM186.038 92.672C176.483 92.672 171.874 89.7631 164.35 85.1827L162.79 87.7453C170.353 92.3489 175.584 95.672 186.038 95.672V92.672ZM164.365 85.192C163.47 84.6327 162.37 84.3176 161.251 84.5703C160.093 84.8317 159.19 85.6376 158.62 86.7772L161.303 88.1188C161.553 87.6184 161.798 87.5223 161.912 87.4967C162.063 87.4624 162.357 87.4753 162.775 87.736L164.365 85.192ZM158.604 86.81L150.896 103.21L153.611 104.486L161.319 88.086L158.604 86.81ZM150.912 103.177C150.377 104.247 150.183 105.397 150.539 106.502C150.893 107.599 151.707 108.394 152.673 108.931L154.13 106.309C153.621 106.026 153.45 105.755 153.394 105.581C153.341 105.415 153.31 105.089 153.595 104.519L150.912 103.177ZM152.575 108.872C161.022 114.446 170.821 118.14 186.038 118.14V115.14C171.406 115.14 162.182 111.618 154.228 106.368L152.575 108.872ZM186.038 118.14C200.449 118.14 212.358 113.611 220.249 105.378L218.083 103.302C210.885 110.813 199.835 115.14 186.038 115.14V118.14ZM220.266 105.36C226.775 98.3367 230.506 88.9436 230.506 77.608H227.506C227.506 88.2484 224.02 96.8953 218.065 103.32L220.266 105.36ZM230.506 77.608C230.506 66.4 227.83 57.0008 222.293 50.2525L219.974 52.1555C224.933 58.1992 227.506 66.84 227.506 77.608H230.506ZM222.302 50.2639C215.864 42.2595 205.523 38.06 191.614 38.06V41.06C204.928 41.06 214.267 45.0605 219.965 52.1441L222.302 50.2639ZM191.614 38.06C189.726 38.06 187.668 38.231 185.769 38.5762L186.306 41.5278C188.015 41.217 189.893 41.06 191.614 41.06V38.06ZM185.825 38.5671C184.681 38.7306 183.538 38.8995 182.552 39.0924C181.606 39.2775 180.647 39.5124 179.955 39.8584L181.296 42.5416C181.589 42.3956 182.188 42.2205 183.128 42.0366C184.028 41.8605 185.099 41.7014 186.25 41.5369L185.825 38.5671ZM182.121 41.3136L183.105 28.3576L180.114 28.1304L179.13 41.0864L182.121 41.3136ZM181.61 29.744H219.658V26.744H181.61V29.744ZM219.658 29.744C222.126 29.744 224.11 27.7604 224.11 25.292H221.11C221.11 26.1036 220.469 26.744 219.658 26.744V29.744ZM224.11 25.292V6.26799H221.11V25.292H224.11ZM224.11 6.26799C224.11 3.79957 222.126 1.81599 219.658 1.81599V4.81599C220.469 4.81599 221.11 5.45642 221.11 6.26799H224.11ZM219.658 1.81599H160.454V4.81599H219.658V1.81599ZM160.454 1.81599C157.863 1.81599 156.23 3.90531 156.009 6.11874L158.994 6.41725C159.101 5.35068 159.764 4.81599 160.454 4.81599V1.81599ZM156.005 6.16766L152.069 64.8797L155.062 65.0803L158.998 6.36833L156.005 6.16766Z" fill="#F29222"/>
</svg>
