<svg viewBox="0 0 656 149" xmlns="http://www.w3.org/2000/svg">
<path d="M63.9 84.2V102H5.7V32H62.6V49.8H28.9V58H58.5V75H28.9V84.2H63.9ZM96.7852 46.3C106.385 46.3 113.718 48.4667 118.785 52.8C123.852 57.0667 126.385 63.6667 126.385 72.6V102H105.385V94.8C102.785 100.267 97.6185 103 89.8852 103C85.5518 103 81.8518 102.267 78.7852 100.8C75.7852 99.2667 73.4852 97.2333 71.8852 94.7C70.3518 92.1 69.5852 89.2 69.5852 86C69.5852 80.6 71.6518 76.5 75.7852 73.7C79.9185 70.9 86.1852 69.5 94.5852 69.5H103.685C102.952 65.2333 99.5185 63.1 93.3852 63.1C90.9185 63.1 88.4185 63.5 85.8852 64.3C83.3518 65.0333 81.1852 66.0667 79.3852 67.4L72.1852 52.5C75.3185 50.5667 79.0852 49.0667 83.4852 48C87.9518 46.8667 92.3852 46.3 96.7852 46.3ZM96.6852 89.4C98.2852 89.4 99.7185 88.9667 100.985 88.1C102.252 87.2333 103.185 85.9333 103.785 84.2V80.4H98.1852C93.5852 80.4 91.2852 81.9333 91.2852 85C91.2852 86.2667 91.7518 87.3333 92.6852 88.2C93.6852 89 95.0185 89.4 96.6852 89.4ZM157.552 103C152.886 103 148.286 102.5 143.752 101.5C139.219 100.5 135.552 99.2 132.752 97.6L138.952 82.7C141.486 84.2333 144.486 85.4333 147.952 86.3C151.419 87.1667 154.786 87.6 158.052 87.6C160.652 87.6 162.452 87.4 163.452 87C164.519 86.5333 165.052 85.8667 165.052 85C165.052 84.1333 164.386 83.5333 163.052 83.2C161.786 82.8667 159.686 82.5333 156.752 82.2C152.286 81.6667 148.486 81 145.352 80.2C142.219 79.3333 139.452 77.7 137.052 75.3C134.719 72.9 133.552 69.4667 133.552 65C133.552 61.4667 134.619 58.3 136.752 55.5C138.886 52.7 142.052 50.4667 146.252 48.8C150.519 47.1333 155.619 46.3 161.552 46.3C165.686 46.3 169.719 46.7 173.652 47.5C177.652 48.2333 181.052 49.3333 183.852 50.8L177.652 65.7C172.852 63.0333 167.586 61.7 161.852 61.7C156.919 61.7 154.452 62.5667 154.452 64.3C154.452 65.1667 155.119 65.8 156.452 66.2C157.786 66.5333 159.886 66.8667 162.752 67.2C167.219 67.7333 170.986 68.4333 174.052 69.3C177.186 70.1667 179.919 71.8 182.252 74.2C184.652 76.6 185.852 80.0333 185.852 84.5C185.852 87.9 184.786 91 182.652 93.8C180.519 96.6 177.319 98.8333 173.052 100.5C168.786 102.167 163.619 103 157.552 103ZM252.619 47.3L230.119 103.1C227.252 110.233 223.685 115.233 219.419 118.1C215.152 120.967 209.919 122.4 203.719 122.4C200.652 122.4 197.552 121.933 194.419 121C191.352 120.133 188.919 118.967 187.119 117.5L194.619 102C195.752 102.867 197.019 103.567 198.419 104.1C199.885 104.633 201.285 104.9 202.619 104.9C205.085 104.9 206.952 104.167 208.219 102.7L185.219 47.3H208.419L219.719 76.6L231.219 47.3H252.619ZM366.755 110.8C364.288 113.733 361.321 115.933 357.855 117.4C354.388 118.933 350.555 119.7 346.355 119.7C342.155 119.7 338.388 119.167 335.055 118.1C331.721 117.1 328.388 115.367 325.055 112.9C321.721 110.5 317.921 107.067 313.655 102.6C307.788 101.4 302.621 99.1333 298.155 95.8C293.688 92.4 290.188 88.2333 287.655 83.3C285.188 78.3667 283.955 72.9333 283.955 67C283.955 60 285.655 53.7333 289.055 48.2C292.455 42.6 297.155 38.2333 303.155 35.1C309.155 31.9667 315.921 30.4 323.455 30.4C330.988 30.4 337.755 31.9667 343.755 35.1C349.755 38.2333 354.455 42.6 357.855 48.2C361.255 53.7333 362.955 60 362.955 67C362.955 74.6667 360.921 81.4667 356.855 87.4C352.788 93.2667 347.288 97.6 340.355 100.4C341.355 101.467 342.355 102.2 343.355 102.6C344.421 103.067 345.588 103.3 346.855 103.3C350.321 103.3 353.555 101.8 356.555 98.8L366.755 110.8ZM323.455 49.5C320.521 49.5 317.855 50.2333 315.455 51.7C313.121 53.1 311.255 55.1333 309.855 57.8C308.455 60.4 307.755 63.4667 307.755 67C307.755 70.5333 308.455 73.6333 309.855 76.3C311.255 78.9 313.121 80.9333 315.455 82.4C317.855 83.8 320.521 84.5 323.455 84.5C326.388 84.5 329.021 83.8 331.355 82.4C333.755 80.9333 335.655 78.9 337.055 76.3C338.455 73.6333 339.155 70.5333 339.155 67C339.155 63.4667 338.455 60.4 337.055 57.8C335.655 55.1333 333.755 53.1 331.355 51.7C329.021 50.2333 326.388 49.5 323.455 49.5ZM430.62 47.3V102H409.12V96.8C407.12 98.8667 404.787 100.433 402.12 101.5C399.454 102.5 396.62 103 393.62 103C386.687 103 381.12 100.9 376.92 96.7C372.72 92.4333 370.62 86.0333 370.62 77.5V47.3H393.22V73.6C393.22 77.3333 393.82 80 395.02 81.6C396.22 83.2 397.987 84 400.32 84C402.52 84 404.354 83.1333 405.82 81.4C407.287 79.6 408.02 76.8 408.02 73V47.3H430.62ZM440.645 47.3H463.245V102H440.645V47.3ZM451.945 42.9C447.878 42.9 444.578 41.8333 442.045 39.7C439.578 37.5 438.345 34.7333 438.345 31.4C438.345 28.0667 439.578 25.3333 442.045 23.2C444.578 21 447.878 19.9 451.945 19.9C456.078 19.9 459.378 20.9333 461.845 23C464.311 25.0667 465.545 27.7333 465.545 31C465.545 34.4667 464.311 37.3333 461.845 39.6C459.378 41.8 456.078 42.9 451.945 42.9Z" fill="white"/>
<path d="M588.368 74.6C588.368 74.9333 588.268 76.7 588.068 79.9H550.068C550.868 81.9667 552.201 83.5667 554.068 84.7C555.935 85.7667 558.268 86.3 561.068 86.3C563.468 86.3 565.468 86 567.068 85.4C568.735 84.8 570.535 83.7667 572.468 82.3L584.268 94.2C578.935 100.067 570.968 103 560.368 103C553.768 103 547.968 101.8 542.968 99.4C537.968 96.9333 534.101 93.5333 531.368 89.2C528.635 84.8667 527.268 80 527.268 74.6C527.268 69.1333 528.601 64.2667 531.268 60C534.001 55.6667 537.701 52.3 542.368 49.9C547.101 47.5 552.401 46.3 558.268 46.3C563.801 46.3 568.835 47.4 573.368 49.6C577.968 51.8 581.601 55.0333 584.268 59.3C587.001 63.5667 588.368 68.6667 588.368 74.6ZM558.468 61.7C556.135 61.7 554.201 62.3333 552.668 63.6C551.135 64.8667 550.135 66.6667 549.668 69H567.268C566.801 66.7333 565.801 64.9667 564.268 63.7C562.735 62.3667 560.801 61.7 558.468 61.7ZM653.7 74.6C653.7 74.9333 653.6 76.7 653.4 79.9H615.4C616.2 81.9667 617.533 83.5667 619.4 84.7C621.267 85.7667 623.6 86.3 626.4 86.3C628.8 86.3 630.8 86 632.4 85.4C634.067 84.8 635.867 83.7667 637.8 82.3L649.6 94.2C644.267 100.067 636.3 103 625.7 103C619.1 103 613.3 101.8 608.3 99.4C603.3 96.9333 599.433 93.5333 596.7 89.2C593.967 84.8667 592.6 80 592.6 74.6C592.6 69.1333 593.933 64.2667 596.6 60C599.333 55.6667 603.033 52.3 607.7 49.9C612.433 47.5 617.733 46.3 623.6 46.3C629.133 46.3 634.167 47.4 638.7 49.6C643.3 51.8 646.933 55.0333 649.6 59.3C652.333 63.5667 653.7 68.6667 653.7 74.6ZM623.8 61.7C621.467 61.7 619.533 62.3333 618 63.6C616.467 64.8667 615.467 66.6667 615 69H632.6C632.133 66.7333 631.133 64.9667 629.6 63.7C628.067 62.3667 626.133 61.7 623.8 61.7Z" fill="white"/>
<path d="M520.918 0L505.784 44.9147L522.286 42.1949L524.485 50.3754L505.6 87.0107L519.361 85.3648L521.482 93.4746L461 148.837L508.991 64.2143L497.959 46.0733L520.918 0Z" fill="url(#paint0_linear)"/>
<path d="M470.819 59.686L472.962 67.7746L491.1 66.3265L469.698 99.4438L471.834 107.518L484.762 106.642L505.776 65.9379L496.69 57.1782L470.819 59.686Z" fill="url(#paint1_linear)"/>
<path d="M520.918 0L498.953 45.5222L522.286 42.1949L496.937 87.7596L519.361 85.3648L461 148.837L489.204 97.8544L469.699 99.4439L492.933 57.6021L470.82 59.6861L520.918 0Z" fill="url(#paint2_linear)"/>
<defs>
<linearGradient id="paint0_linear" x1="491.8" y1="74.7043" x2="529.204" y2="87.3896" gradientUnits="userSpaceOnUse">
<stop stop-color="#F29222"/>
<stop offset="0.4515" stop-color="#F7AC20"/>
<stop offset="1" stop-color="#F8E82F"/>
</linearGradient>
<linearGradient id="paint1_linear" x1="462.283" y1="77.0581" x2="494.151" y2="84.6979" gradientUnits="userSpaceOnUse">
<stop stop-color="#F8E82F"/>
<stop offset="0.5485" stop-color="#F7AC20"/>
<stop offset="1" stop-color="#F29222"/>
</linearGradient>
<linearGradient id="paint2_linear" x1="491.642" y1="148.834" x2="491.642" y2="0.00106454" gradientUnits="userSpaceOnUse">
<stop stop-color="#F8AF3C"/>
<stop offset="0.5" stop-color="#F8E82F"/>
<stop offset="1" stop-color="#F8AF3C"/>
</linearGradient>
</defs>
</svg>
