<svg viewBox="0 0 11 15" opacity="0.5" xmlns="http://www.w3.org/2000/svg">
<path d="M5.5 2.63654C3.98365 2.63654 2.75 3.8194 2.75 5.27333C2.75 6.71797 3.96358 7.91013 5.5 7.91013C7.05537 7.91013 8.25 6.70209 8.25 5.27333C8.25 3.8194 7.01635 2.63654 5.5 2.63654ZM5.5 7.03705C4.48381 7.03705 3.66056 6.24505 3.66056 5.27333C3.66056 4.30405 4.4891 3.50961 5.5 3.50961C6.5109 3.50961 7.33639 4.30405 7.33639 5.27333C7.33639 6.23087 6.53229 7.03705 5.5 7.03705Z" fill="black"/>
<path d="M5.5 0C2.4673 0 0 2.36566 0 5.27344C0 6.25588 0.283831 7.21465 0.820997 8.04645L5.18693 14.7923C5.27056 14.9215 5.4179 15 5.57636 15C5.57758 15 5.57877 15 5.57999 15C5.73983 14.9988 5.88748 14.9179 5.96958 14.7864L10.2242 7.9752C10.7318 7.16098 11 6.22673 11 5.27344C11 2.36566 8.5327 0 5.5 0ZM9.43757 7.52396L5.56942 13.7164L1.6001 7.58338C1.15298 6.89104 0.910556 6.09229 0.910556 5.27344C0.910556 2.85029 2.97275 0.873047 5.5 0.873047C8.02725 0.873047 10.0864 2.85029 10.0864 5.27344C10.0864 6.068 9.85994 6.84633 9.43757 7.52396Z" fill="black"/>
</svg>
