<svg viewBox="0 0 267 119" xmlns="http://www.w3.org/2000/svg">
<path d="M32.508 90.072H31.2712V91.3088H32.508V90.072ZM37.592 79.904L38.3483 80.8827L38.3543 80.8781L38.3602 80.8734L37.592 79.904ZM71.376 12.992L70.4696 13.8336L70.4753 13.8397L71.376 12.992ZM4.3 14.14L3.62658 13.1026L3.60844 13.1143L3.59072 13.1267L4.3 14.14ZM3.152 17.912L4.26267 17.3678L4.24866 17.3392L4.2332 17.3113L3.152 17.912ZM11.188 34.312L12.311 33.7937L12.305 33.7807L12.2987 33.7678L11.188 34.312ZM15.78 34.968L16.4164 36.0286L16.4416 36.0134L16.4661 35.9971L15.78 34.968ZM49.564 28.244L50.403 27.3351L50.396 27.3288L49.564 28.244ZM48.58 44.644L49.4282 45.5442L49.4416 45.5316L49.4546 45.5186L48.58 44.644ZM14.632 66.456L13.7768 65.5625L13.7732 65.5659L14.632 66.456ZM33.7448 90.072C33.7448 88.0871 34.0872 86.4377 34.806 84.9821C35.5253 83.5255 36.6585 82.1884 38.3483 80.8827L36.8357 78.9253C34.9175 80.4076 33.5087 82.0225 32.588 83.8868C31.6668 85.7523 31.2712 87.7929 31.2712 90.072H33.7448ZM38.3602 80.8734C42.5834 77.5266 47.6237 75.2679 53.1864 72.3928C58.6985 69.5438 64.5719 66.1533 70.1186 60.6066L68.3694 58.8574C63.0921 64.1347 57.4855 67.3862 52.0506 70.1952C46.6663 72.9781 41.2926 75.3933 36.8238 78.9346L38.3602 80.8734ZM70.1186 60.6066C77.0762 53.6489 80.8129 44.8056 80.8129 34.476H78.3392C78.3392 44.1544 74.8598 52.3671 68.3694 58.8574L70.1186 60.6066ZM80.8129 34.476C80.8129 25.8163 77.7535 17.9635 72.2767 12.1443L70.4753 13.8397C75.4945 19.1725 78.3392 26.4077 78.3392 34.476H80.8129ZM72.2824 12.1504C65.6229 4.97866 55.4382 0.603148 43.332 0.603148V3.07683C54.8419 3.07683 64.3371 7.22933 70.4697 13.8336L72.2824 12.1504ZM43.332 0.603148C25.122 0.603148 13.0769 6.96814 3.62658 13.1026L4.97342 15.1774C14.2191 9.17586 25.79 3.07683 43.332 3.07683V0.603148ZM3.59072 13.1267C2.66889 13.772 1.91845 14.5488 1.61882 15.5476C1.30662 16.5883 1.56187 17.5966 2.07081 18.5127L4.2332 17.3113C3.92213 16.7514 3.93139 16.4477 3.98818 16.2584C4.05755 16.0272 4.29111 15.656 5.00928 15.1533L3.59072 13.1267ZM2.04133 18.4562L10.0773 34.8562L12.2987 33.7678L4.26267 17.3678L2.04133 18.4562ZM10.065 34.8303C10.385 35.5236 10.8238 36.0848 11.3918 36.4733C11.964 36.8645 12.593 37.0296 13.2071 37.045C14.38 37.0743 15.5291 36.561 16.4164 36.0286L15.1437 33.9074C14.3909 34.359 13.736 34.5837 13.2689 34.572C13.063 34.5669 12.913 34.5168 12.7882 34.4314C12.6592 34.3432 12.483 34.1664 12.311 33.7937L10.065 34.8303ZM16.4661 35.9971C25.2358 30.1506 33.1905 26.8568 40.872 26.8568V24.3832C32.4815 24.3832 24.0362 27.9774 15.0939 33.9389L16.4661 35.9971ZM40.872 26.8568C44.9431 26.8568 47.2283 27.7922 48.732 29.1592L50.396 27.3288C48.2917 25.4158 45.3289 24.3832 40.872 24.3832V26.8568ZM48.7251 29.1528C50.5386 30.8269 51.2792 33.4098 51.2792 35.296H53.7528C53.7528 32.9182 52.8534 29.5971 50.4029 27.3352L48.7251 29.1528ZM51.2792 35.296C51.2792 38.7213 50.111 41.3638 47.7054 43.7694L49.4546 45.5186C52.297 42.6762 53.7528 39.4147 53.7528 35.296H51.2792ZM47.7318 43.7438C43.6257 47.6131 38.2013 50.2332 32.1478 53.3428C26.1526 56.4226 19.6567 59.9346 13.7768 65.5625L15.4872 67.3495C21.0873 61.9894 27.3014 58.6134 33.2782 55.5432C39.1967 52.5028 45.0063 49.7109 49.4282 45.5442L47.7318 43.7438ZM13.7732 65.5659C4.12263 74.8779 0.275158 85.7317 0.275158 102.044H2.74884C2.74884 86.2123 6.44537 76.0741 15.4908 67.3461L13.7732 65.5659ZM0.275158 102.044V112.048H2.74884V102.044H0.275158ZM0.275158 112.048C0.275158 114.371 2.14091 116.237 4.464 116.237V113.763C3.50709 113.763 2.74884 113.005 2.74884 112.048H0.275158ZM4.464 116.237H75.148V113.763H4.464V116.237ZM75.148 116.237C77.4711 116.237 79.3368 114.371 79.3368 112.048H76.8632C76.8632 113.005 76.1049 113.763 75.148 113.763V116.237ZM79.3368 112.048V93.024H76.8632V112.048H79.3368ZM79.3368 93.024C79.3368 90.7009 77.4711 88.8352 75.148 88.8352V91.3088C76.1049 91.3088 76.8632 92.0671 76.8632 93.024H79.3368ZM75.148 88.8352H32.508V91.3088H75.148V88.8352ZM155.529 83.4368C157.852 83.4368 159.717 81.5711 159.717 79.248H157.244C157.244 80.2049 156.485 80.9632 155.529 80.9632V83.4368ZM159.717 79.248V60.224H157.244V79.248H159.717ZM159.717 60.224C159.717 57.9009 157.852 56.0352 155.529 56.0352V58.5088C156.485 58.5088 157.244 59.2671 157.244 60.224H159.717ZM155.529 56.0352H105.344V58.5088H155.529V56.0352ZM105.344 56.0352C103.021 56.0352 101.156 57.9009 101.156 60.224H103.629C103.629 59.2671 104.388 58.5088 105.344 58.5088V56.0352ZM101.156 60.224V79.248H103.629V60.224H101.156ZM101.156 79.248C101.156 81.5711 103.021 83.4368 105.344 83.4368V80.9632C104.388 80.9632 103.629 80.2049 103.629 79.248H101.156ZM105.344 83.4368H155.529V80.9632H105.344V83.4368ZM236.91 48.416L237.551 49.4737L238.162 49.1032L238.146 48.3885L236.91 48.416ZM195.418 86.136L196.01 85.0502L195.991 85.0396L195.971 85.0297L195.418 86.136ZM191.81 87.284L192.924 87.8202L192.932 87.8034L192.94 87.7863L191.81 87.284ZM183.446 104.668L184.552 105.221L184.556 105.213L184.56 105.204L183.446 104.668ZM184.594 108.44L185.212 107.369L185.18 107.35L185.147 107.334L184.594 108.44ZM235.598 73.016L236.823 73.185L237.125 70.9926L235.1 71.8839L235.598 73.016ZM231.17 84.824L230.174 84.0903L230.172 84.0926L231.17 84.824ZM236.269 47.3583C231.025 50.5364 226.98 51.7712 221.33 51.7712V54.2448C227.488 54.2448 231.971 52.8556 237.551 49.4737L236.269 47.3583ZM221.33 51.7712C219.234 51.7712 216.569 51.377 214.445 49.717C212.379 48.1024 210.594 45.1056 210.594 39.396H208.121C208.121 45.6584 210.109 49.4676 212.922 51.666C215.676 53.819 218.997 54.2448 221.33 54.2448V51.7712ZM210.594 39.396C210.594 32.7485 215.234 27.1848 222.15 27.1848V24.7112C213.649 24.7112 208.121 31.6115 208.121 39.396H210.594ZM222.15 27.1848C224.072 27.1848 227.219 27.2783 229.989 29.795C232.767 32.318 235.431 37.5312 235.673 48.4435L238.146 48.3885C237.897 37.1608 235.149 31.14 231.653 27.964C228.15 24.7817 224.164 24.7112 222.15 24.7112V27.1848ZM216.246 91.2952C207.715 91.2952 203.189 88.9663 196.01 85.0502L194.825 87.2218C202.078 91.1777 207.064 93.7688 216.246 93.7688V91.2952ZM195.971 85.0297C194.183 84.1359 191.688 84.5133 190.679 86.7817L192.94 87.7863C193.244 87.1027 194.028 86.8241 194.865 87.2423L195.971 85.0297ZM190.695 86.7477L182.331 104.132L184.56 105.204L192.924 87.8202L190.695 86.7477ZM182.339 104.115C181.416 105.962 182.044 108.548 184.041 109.546L185.147 107.334C184.519 107.02 184.164 105.998 184.552 105.221L182.339 104.115ZM183.975 109.511C191.485 113.85 200.062 118.041 216.738 118.041V115.567C200.613 115.567 192.462 111.558 185.212 107.369L183.975 109.511ZM216.738 118.041C227.311 118.041 235.742 115.562 242.426 111.429C249.106 107.299 253.974 101.559 257.49 95.1349C264.504 82.3219 266.19 66.7024 266.19 55.304H263.717C263.717 66.5376 262.042 81.6681 255.32 93.9471C251.969 100.069 247.376 105.461 241.125 109.325C234.879 113.187 226.91 115.567 216.738 115.567V118.041ZM266.19 55.304C266.19 32.6303 260.229 18.9185 251.589 10.8966C242.964 2.88935 231.899 0.767157 222.15 0.767157V3.24084C231.588 3.24084 241.925 5.30065 249.906 12.7094C257.87 20.1035 263.717 33.0417 263.717 55.304H266.19ZM222.15 0.767157C210.572 0.767157 200.096 4.50189 192.5 11.3344C184.889 18.1795 180.241 28.0717 180.241 40.216H182.714C182.714 28.7443 187.086 19.5305 194.154 13.1736C201.235 6.80411 211.096 3.24084 222.15 3.24084V0.767157ZM180.241 40.216C180.241 54.1412 185.08 63.6157 192.314 69.5831C199.507 75.5168 208.918 77.8608 217.886 77.8608V75.3872C209.305 75.3872 200.512 73.1392 193.888 67.6749C187.305 62.2443 182.714 53.5148 182.714 40.216H180.241ZM217.886 77.8608C226.626 77.8608 231.881 76.0026 236.096 74.1481L235.1 71.8839C231.114 73.6374 226.201 75.3872 217.886 75.3872V77.8608ZM234.372 72.847C233.738 77.447 232.321 81.1758 230.174 84.0903L232.165 85.5577C234.61 82.2402 236.145 78.097 236.823 73.185L234.372 72.847ZM230.172 84.0926C226.785 88.7111 221.9 91.2952 216.246 91.2952V93.7688C222.727 93.7688 228.338 90.7769 232.167 85.5554L230.172 84.0926Z" fill="#F29222"/>
</svg>
