<svg viewBox="0 0 24 14" xmlns="http://www.w3.org/2000/svg">
<g opacity="0.5" clip-path="url(#clip0)">
<path d="M23.5556 14H0.444403C0.198976 14 0 13.7913 0 13.5334V0.46662C0 0.208924 0.198976 0 0.444403 0H23.5556C23.8012 0 24 0.208924 24 0.46662V13.5334C24 13.7913 23.8012 14 23.5556 14ZM1.14217 12.839H22.7415V1.22564H1.14217V12.839Z" fill="white"/>
<path d="M23 9C20.7944 9 19 10.7944 19 13C19 15.1915 20.7652 17 23 17C25.2624 17 27 15.1674 27 13C27 10.7944 25.2056 9 23 9ZM23 15.6756C21.5219 15.6756 20.3244 14.4741 20.3244 13C20.3244 11.5296 21.5296 10.3244 23 10.3244C24.4704 10.3244 25.6711 11.5296 25.6711 13C25.6711 14.4526 24.5015 15.6756 23 15.6756Z" fill="white"/>
<path d="M23 -3C20.7944 -3 19 -1.2056 19 1C19 3.19151 20.7652 5 23 5C25.2624 5 27 3.16742 27 1C27 -1.2056 25.2056 -3 23 -3ZM23 3.67556C21.5219 3.67556 20.3244 2.47409 20.3244 1C20.3244 -0.4704 21.5296 -1.67556 23 -1.67556C24.4704 -1.67556 25.6711 -0.4704 25.6711 1C25.6711 2.45258 24.5015 3.67556 23 3.67556Z" fill="white"/>
<path d="M1 9C-1.2056 9 -3 10.7944 -3 13C-3 15.1915 -1.2348 17 1 17C3.26236 17 5 15.1674 5 13C5 10.7944 3.2056 9 1 9ZM1 15.6756C-0.478089 15.6756 -1.67556 14.4741 -1.67556 13C-1.67556 11.5296 -0.4704 10.3244 1 10.3244C2.4704 10.3244 3.67111 11.5296 3.67111 13C3.67111 14.4526 2.50151 15.6756 1 15.6756Z" fill="white"/>
<path d="M1 -3C-1.2056 -3 -3 -1.2056 -3 1C-3 3.19151 -1.2348 5 1 5C3.26236 5 5 3.16742 5 1C5 -1.2056 3.2056 -3 1 -3ZM1 3.67556C-0.478089 3.67556 -1.67556 2.47409 -1.67556 1C-1.67556 -0.4704 -0.4704 -1.67556 1 -1.67556C2.4704 -1.67556 3.67111 -0.4704 3.67111 1C3.67111 2.45258 2.50151 3.67556 1 3.67556Z" fill="white"/>
<path d="M12 3C9.7944 3 8 4.7944 8 7C8 9.19151 9.7652 11 12 11C14.2624 11 16 9.16742 16 7C16 4.7944 14.2056 3 12 3ZM12 9.67556C10.5219 9.67556 9.32444 8.47409 9.32444 7C9.32444 5.5296 10.5296 4.32444 12 4.32444C13.4704 4.32444 14.6711 5.5296 14.6711 7C14.6711 8.45258 13.5015 9.67556 12 9.67556Z" fill="white"/>
</g>
<defs>
<clipPath id="clip0">
<rect width="24" height="14" fill="white"/>
</clipPath>
</defs>
</svg>
