<svg viewBox="0 0 18 24" xmlns="http://www.w3.org/2000/svg">
<g opacity="0.5">
<path d="M9 4.21875C6.5187 4.21875 4.5 6.11129 4.5 8.43752C4.5 10.7489 6.48585 12.6563 9 12.6563C11.5452 12.6563 13.5 10.7235 13.5 8.43752C13.5 6.11129 11.4813 4.21875 9 4.21875ZM9 11.2594C7.33715 11.2594 5.99 9.99223 5.99 8.43752C5.99 6.8867 7.3458 5.61563 9 5.61563C10.6542 5.61563 12.005 6.8867 12.005 8.43752C12.005 9.96954 10.6892 11.2594 9 11.2594Z" fill="white"/>
<path d="M9 0C4.0374 0 0 3.78506 0 8.4375C0 10.0094 0.46445 11.5434 1.34345 12.8743L8.4877 23.6676C8.62455 23.8744 8.86565 24 9.12495 24C9.12695 24 9.1289 24 9.1309 24C9.39245 23.9981 9.63405 23.8686 9.7684 23.6582L16.7306 12.7603C17.5611 11.4576 18 9.96277 18 8.4375C18 3.78506 13.9626 0 9 0ZM15.4433 12.0383L9.1136 21.9462L2.61835 12.1334C1.8867 11.0257 1.49 9.74766 1.49 8.4375C1.49 4.56047 4.8645 1.39687 9 1.39687C13.1355 1.39687 16.505 4.56047 16.505 8.4375C16.505 9.7088 16.1345 10.9541 15.4433 12.0383Z" fill="white"/>
</g>
</svg>
