<svg viewBox="0 0 103 247" xmlns="http://www.w3.org/2000/svg">
<path d="M97.2129 0L72.6581 74.5373L99.4316 70.0238L103 83.5995L72.3607 144.397L94.6854 141.665L98.1279 155.124L0 247L77.8618 106.566L59.9632 76.46L97.2129 0Z" fill="url(#paint0_linear)"/>
<path d="M15.931 99.0508L19.4077 112.474L48.8347 110.071L14.1125 165.03L17.5779 178.43L38.553 176.976L72.6461 109.426L57.9041 94.889L15.931 99.0508Z" fill="url(#paint1_linear)"/>
<path d="M97.2129 0L61.5758 75.5455L99.4316 70.0238L58.3049 145.64L94.6854 141.665L0 247L45.7587 162.392L14.1131 165.03L51.8088 95.5925L15.9315 99.0509L97.2129 0Z" fill="url(#paint2_linear)"/>
<defs>
<linearGradient id="paint0_linear" x1="49.9699" y1="123.974" x2="110.934" y2="144.187" gradientUnits="userSpaceOnUse">
<stop stop-color="#F29222"/>
<stop offset="0.4515" stop-color="#F7AC20"/>
<stop offset="1" stop-color="#F8E82F"/>
</linearGradient>
<linearGradient id="paint1_linear" x1="2.08146" y1="127.88" x2="53.9101" y2="140.027" gradientUnits="userSpaceOnUse">
<stop stop-color="#F8E82F"/>
<stop offset="0.5485" stop-color="#F7AC20"/>
<stop offset="1" stop-color="#F29222"/>
</linearGradient>
<linearGradient id="paint2_linear" x1="49.7136" y1="246.994" x2="49.7136" y2="0.00176663" gradientUnits="userSpaceOnUse">
<stop stop-color="#F8AF3C"/>
<stop offset="0.5" stop-color="#F8E82F"/>
<stop offset="1" stop-color="#F8AF3C"/>
</linearGradient>
</defs>
</svg>
