<svg viewBox="0 0 24 14" xmlns="http://www.w3.org/2000/svg">
<path opacity="0.4" d="M23.8475 6.57276C23.6331 6.30433 18.5245 0 11.9999 0C5.4753 0 0.36647 6.30433 0.152297 6.57251C-0.0507658 6.82717 -0.0507658 7.17257 0.152297 7.42723C0.36647 7.69567 5.4753 14 11.9999 14C18.5245 14 23.6331 7.69563 23.8475 7.42745C24.0508 7.17283 24.0508 6.82717 23.8475 6.57276ZM11.9999 12.5517C7.19383 12.5517 3.03127 8.36742 1.79907 6.99951C3.02968 5.63039 7.18352 1.44827 11.9999 1.44827C16.8057 1.44827 20.968 5.63185 22.2007 7.00049C20.9701 8.36957 16.8163 12.5517 11.9999 12.5517Z" fill="#333333"/>
<path opacity="0.4" d="M11.9992 2.65552C9.38163 2.65552 7.25195 4.60466 7.25195 7.00037C7.25195 9.39607 9.38163 11.3452 11.9992 11.3452C14.6168 11.3452 16.7465 9.39607 16.7465 7.00037C16.7465 4.60466 14.6168 2.65552 11.9992 2.65552ZM11.9992 9.8969C10.2541 9.8969 8.83441 8.59754 8.83441 7.00037C8.83441 5.40319 10.2541 4.10383 11.9992 4.10383C13.7443 4.10383 15.164 5.40319 15.164 7.00037C15.164 8.59754 13.7444 9.8969 11.9992 9.8969Z" fill="#333333"/>
</svg>
