<svg viewBox="0 0 91 211" xmlns="http://www.w3.org/2000/svg">
<path d="M85.5 0.179993L64.04 63.76L87.44 59.91L90.56 71.49L63.77 123.35L83.29 121.02L86.3 132.5L0.5 210.87L68.58 91.08L52.93 65.4L85.5 0.179993Z" fill="url(#paint0_linear)"/>
<path d="M14.4298 84.67L17.4698 96.12L43.1998 94.07L12.8398 140.95L15.8699 152.38L34.2098 151.14L64.0198 93.52L51.1298 81.12L14.4298 84.67Z" fill="url(#paint1_linear)"/>
<path d="M85.5 0.179993L54.34 64.62L87.44 59.91L51.48 124.41L83.29 121.02L0.5 210.87L40.51 138.7L12.84 140.95L45.8 81.72L14.43 84.67L85.5 0.179993Z" fill="url(#paint2_linear)"/>
<defs>
<linearGradient id="paint0_linear" x1="44.1921" y1="105.929" x2="97.2306" y2="123.955" gradientUnits="userSpaceOnUse">
<stop stop-color="#9C9C9C"/>
<stop offset="0.4515" stop-color="#AEAEAE"/>
<stop offset="1" stop-color="#D8D8D8"/>
</linearGradient>
<linearGradient id="paint1_linear" x1="2.3202" y1="109.261" x2="47.5183" y2="120.12" gradientUnits="userSpaceOnUse">
<stop stop-color="#D8D8D8"/>
<stop offset="0.5485" stop-color="#AEAEAE"/>
<stop offset="1" stop-color="#9C9C9C"/>
</linearGradient>
<linearGradient id="paint2_linear" x1="43.9681" y1="210.865" x2="43.9681" y2="0.1815" gradientUnits="userSpaceOnUse">
<stop stop-color="#B2B2B2"/>
<stop offset="0.5" stop-color="#D8D8D8"/>
<stop offset="1" stop-color="#B2B2B2"/>
</linearGradient>
</defs>
</svg>
