<svg viewBox="0 0 83 116" xmlns="http://www.w3.org/2000/svg">
<path d="M26.8 27.244V25.744H25.3V27.244H26.8ZM53.86 27.244L55.1586 27.9947L56.4598 25.744H53.86V27.244ZM36.148 58.404L37.4905 59.0731L37.4938 59.0665L36.148 58.404ZM10.892 109.08L9.54949 108.411L9.54089 108.428L9.53273 108.446L10.892 109.08ZM42.38 111.048L43.742 111.677L43.746 111.668L42.38 111.048ZM80.1 27.9L81.466 28.5197L81.4725 28.5053L81.4787 28.4909L80.1 27.9ZM4.824 0.815991C2.35557 0.815991 0.372 2.79957 0.372 5.26799H3.372C3.372 4.45642 4.01243 3.81599 4.824 3.81599V0.815991ZM0.372 5.26799V39.216H3.372V5.26799H0.372ZM0.372 39.216C0.372 41.6844 2.35557 43.668 4.824 43.668V40.668C4.01243 40.668 3.372 40.0276 3.372 39.216H0.372ZM4.824 43.668H23.848V40.668H4.824V43.668ZM23.848 43.668C26.3164 43.668 28.3 41.6844 28.3 39.216H25.3C25.3 40.0276 24.6596 40.668 23.848 40.668V43.668ZM28.3 39.216V27.244H25.3V39.216H28.3ZM26.8 28.744H53.86V25.744H26.8V28.744ZM52.5614 26.4932C46.5385 36.9112 40.0793 47.0225 34.8022 57.7415L37.4938 59.0665C42.7127 48.4655 49.0455 38.5688 55.1586 27.9947L52.5614 26.4932ZM34.8055 57.7349L9.54949 108.411L12.2345 109.749L37.4905 59.0731L34.8055 57.7349ZM9.53273 108.446C8.89124 109.82 8.49218 111.527 9.08929 113.02C9.76829 114.717 11.437 115.5 13.516 115.5V112.5C12.151 112.5 11.9337 112.053 11.8747 111.905C11.7338 111.553 11.7448 110.8 12.2513 109.714L9.53273 108.446ZM13.516 115.5H37.46V112.5H13.516V115.5ZM37.46 115.5C38.8464 115.5 40.125 115.27 41.2355 114.616C42.3629 113.951 43.1579 112.942 43.7419 111.677L41.0181 110.419C40.6181 111.286 40.1831 111.753 39.7115 112.031C39.223 112.32 38.5336 112.5 37.46 112.5V115.5ZM43.746 111.668L81.466 28.5197L78.734 27.2803L41.014 110.428L43.746 111.668ZM81.4787 28.4909C81.9783 27.3251 82.3499 26.3647 82.586 25.3493C82.8254 24.3201 82.912 23.2959 82.912 21.996H79.912C79.912 23.1561 79.8347 23.9359 79.664 24.6697C79.4901 25.4173 79.2057 26.1789 78.7213 27.3091L81.4787 28.4909ZM82.912 21.996V5.26799H79.912V21.996H82.912ZM82.912 5.26799C82.912 2.79957 80.9284 0.815991 78.46 0.815991V3.81599C79.2716 3.81599 79.912 4.45642 79.912 5.26799H82.912ZM78.46 0.815991H4.824V3.81599H78.46V0.815991Z" fill="#F29222"/>
</svg>
