<svg viewBox="0 0 15 9" xmlns="http://www.w3.org/2000/svg">
<g opacity="0.5" clip-path="url(#clip0)">
<path d="M14.7222 9H0.277752C0.12436 9 0 8.86584 0 8.70003V0.29997C0 0.134308 0.12436 0 0.277752 0H14.7222C14.8758 0 15 0.134308 15 0.29997V8.70003C15 8.86584 14.8758 9 14.7222 9ZM0.713856 8.25367H14.2135V0.787911H0.713856V8.25367Z" fill="black"/>
<path d="M14.375 5.78571C12.9965 5.78571 11.875 6.93925 11.875 8.35713C11.875 9.76596 12.9783 10.9286 14.375 10.9286C15.789 10.9286 16.875 9.75048 16.875 8.35713C16.875 6.93925 15.7535 5.78571 14.375 5.78571ZM14.375 10.0771C13.4512 10.0771 12.7028 9.30476 12.7028 8.35713C12.7028 7.41188 13.456 6.63713 14.375 6.63713C15.294 6.63713 16.0444 7.41188 16.0444 8.35713C16.0444 9.29093 15.3134 10.0771 14.375 10.0771Z" fill="black"/>
<path d="M14.375 -1.92859C12.9965 -1.92859 11.875 -0.775046 11.875 0.64284C11.875 2.05167 12.9783 3.21427 14.375 3.21427C15.789 3.21427 16.875 2.03618 16.875 0.64284C16.875 -0.775046 15.7535 -1.92859 14.375 -1.92859ZM14.375 2.36284C13.4512 2.36284 12.7028 1.59047 12.7028 0.64284C12.7028 -0.302417 13.456 -1.07716 14.375 -1.07716C15.294 -1.07716 16.0444 -0.302417 16.0444 0.64284C16.0444 1.57664 15.3134 2.36284 14.375 2.36284Z" fill="black"/>
<path d="M0.625 5.78571C-0.7535 5.78571 -1.875 6.93925 -1.875 8.35713C-1.875 9.76596 -0.77175 10.9286 0.625 10.9286C2.03897 10.9286 3.125 9.75048 3.125 8.35713C3.125 6.93925 2.0035 5.78571 0.625 5.78571ZM0.625 10.0771C-0.298806 10.0771 -1.04722 9.30476 -1.04722 8.35713C-1.04722 7.41188 -0.294 6.63713 0.625 6.63713C1.544 6.63713 2.29444 7.41188 2.29444 8.35713C2.29444 9.29093 1.56344 10.0771 0.625 10.0771Z" fill="black"/>
<path d="M0.625 -1.92859C-0.7535 -1.92859 -1.875 -0.775046 -1.875 0.64284C-1.875 2.05167 -0.77175 3.21427 0.625 3.21427C2.03897 3.21427 3.125 2.03618 3.125 0.64284C3.125 -0.775046 2.0035 -1.92859 0.625 -1.92859ZM0.625 2.36284C-0.298806 2.36284 -1.04722 1.59047 -1.04722 0.64284C-1.04722 -0.302417 -0.294 -1.07716 0.625 -1.07716C1.544 -1.07716 2.29444 -0.302417 2.29444 0.64284C2.29444 1.57664 1.56344 2.36284 0.625 2.36284Z" fill="black"/>
<path d="M7.5 1.92859C6.1215 1.92859 5 3.08213 5 4.50002C5 5.90885 6.10325 7.07145 7.5 7.07145C8.91397 7.07145 10 5.89336 10 4.50002C10 3.08213 8.8785 1.92859 7.5 1.92859ZM7.5 6.22002C6.57619 6.22002 5.82778 5.44765 5.82778 4.50002C5.82778 3.55476 6.581 2.78002 7.5 2.78002C8.419 2.78002 9.16944 3.55476 9.16944 4.50002C9.16944 5.43382 8.43844 6.22002 7.5 6.22002Z" fill="black"/>
</g>
<defs>
<clipPath id="clip0">
<rect width="15" height="9" fill="white"/>
</clipPath>
</defs>
</svg>
