<svg viewBox="0 0 192 119" xmlns="http://www.w3.org/2000/svg">
<path d="M77.72 95.648V94.148H76.22V95.648H77.72ZM77.72 72.032H76.22V73.532H77.72V72.032ZM50.66 5.776L51.8742 6.6568L51.8816 6.64656L51.8889 6.63619L50.66 5.776ZM3.428 70.884L4.64111 71.7663L4.64216 71.7648L3.428 70.884ZM50.004 95.648H51.504V94.148H50.004V95.648ZM50.004 46.94H51.504V42.3181L48.7899 46.0592L50.004 46.94ZM50.004 72.032V73.532H51.504V72.032H50.004ZM31.8 72.032L30.5859 71.1512L28.8586 73.532H31.8V72.032ZM74.768 116.5C77.2364 116.5 79.22 114.516 79.22 112.048H76.22C76.22 112.86 75.5796 113.5 74.768 113.5V116.5ZM79.22 112.048V95.648H76.22V112.048H79.22ZM77.72 97.148H90.84V94.148H77.72V97.148ZM90.84 97.148C93.3084 97.148 95.292 95.1644 95.292 92.696H92.292C92.292 93.5076 91.6516 94.148 90.84 94.148V97.148ZM95.292 92.696V74.984H92.292V92.696H95.292ZM95.292 74.984C95.292 72.5156 93.3084 70.532 90.84 70.532V73.532C91.6516 73.532 92.292 74.1724 92.292 74.984H95.292ZM90.84 70.532H77.72V73.532H90.84V70.532ZM79.22 72.032V6.26799H76.22V72.032H79.22ZM79.22 6.26799C79.22 3.79957 77.2364 1.81599 74.768 1.81599V4.81599C75.5796 4.81599 76.22 5.45642 76.22 6.26799H79.22ZM74.768 1.81599H55.416V4.81599H74.768V1.81599ZM55.416 1.81599C54.0189 1.81599 52.8442 2.04936 51.8175 2.61976C50.7982 3.18604 50.0678 4.00633 49.4312 4.91581L51.8889 6.63619C52.4002 5.90565 52.8178 5.49595 53.2745 5.24223C53.7238 4.99262 54.3531 4.81599 55.416 4.81599V1.81599ZM49.4458 4.8952L2.21384 70.0032L4.64216 71.7648L51.8742 6.6568L49.4458 4.8952ZM2.2149 70.0017C1.50562 70.977 0.997962 71.8622 0.685626 72.8513C0.374189 73.8375 0.288 74.8297 0.288 75.968H3.288C3.288 74.9743 3.36581 74.3265 3.54637 73.7547C3.72604 73.1858 4.03838 72.595 4.6411 71.7663L2.2149 70.0017ZM0.288 75.968V92.696H3.288V75.968H0.288ZM0.288 92.696C0.288 95.1644 2.27157 97.148 4.74 97.148V94.148C3.92843 94.148 3.288 93.5076 3.288 92.696H0.288ZM4.74 97.148H50.004V94.148H4.74V97.148ZM48.504 95.648V112.048H51.504V95.648H48.504ZM48.504 112.048C48.504 114.516 50.4876 116.5 52.956 116.5V113.5C52.1444 113.5 51.504 112.86 51.504 112.048H48.504ZM52.956 116.5H74.768V113.5H52.956V116.5ZM48.504 46.94V72.032H51.504V46.94H48.504ZM50.004 70.532H31.8V73.532H50.004V70.532ZM33.0141 72.9128L51.2181 47.8208L48.7899 46.0592L30.5859 71.1512L33.0141 72.9128ZM157.188 83.512L158.52 84.2025L158.525 84.1927L158.53 84.1828L157.188 83.512ZM136.524 83.512L137.856 82.8215L137.852 82.8149L137.849 82.8083L136.524 83.512ZM136.688 34.968L138.013 35.6717L138.016 35.6651L138.02 35.6585L136.688 34.968ZM191.16 59.24C191.16 40.1352 187.362 25.3719 179.852 15.3519C172.289 5.26018 161.109 0.175993 146.856 0.175993V3.17599C160.32 3.17599 170.542 7.93181 177.451 17.1511C184.415 26.4421 188.16 40.4608 188.16 59.24H191.16ZM146.856 0.175993C132.604 0.175993 121.424 5.26018 113.86 15.3519C106.351 25.3719 102.552 40.1352 102.552 59.24H105.552C105.552 40.4608 109.298 26.4421 116.261 17.1511C123.171 7.93181 133.393 3.17599 146.856 3.17599V0.175993ZM102.552 59.24C102.552 78.264 106.351 92.9865 113.861 102.986C121.425 113.056 132.604 118.14 146.856 118.14V115.14C133.392 115.14 123.17 110.384 116.26 101.184C109.297 91.9135 105.552 77.936 105.552 59.24H102.552ZM146.856 118.14C161.108 118.14 172.288 113.056 179.851 102.986C187.361 92.9865 191.16 78.264 191.16 59.24H188.16C188.16 77.936 184.415 91.9135 177.452 101.184C170.543 110.384 160.32 115.14 146.856 115.14V118.14ZM159.46 59.24C159.46 70.1891 158.305 77.9243 155.847 82.8412L158.53 84.1828C161.319 78.6037 162.46 70.2669 162.46 59.24H159.46ZM155.857 82.8215C154.801 84.858 153.524 86.3219 152.062 87.2796C150.608 88.2316 148.89 88.736 146.856 88.736V91.736C149.414 91.736 151.715 91.0924 153.705 89.7894C155.686 88.4921 157.28 86.594 158.52 84.2025L155.857 82.8215ZM146.856 88.736C144.733 88.736 143.021 88.228 141.596 87.2841C140.16 86.3325 138.92 84.873 137.856 82.8215L135.193 84.2025C136.425 86.579 137.972 88.4816 139.939 89.7849C141.918 91.096 144.224 91.736 146.856 91.736V88.736ZM137.849 82.8083C135.24 77.8979 133.924 70.0071 133.924 59.24H130.924C130.924 70.1209 132.232 78.6301 135.2 84.2157L137.849 82.8083ZM133.924 59.24C133.924 48.6608 135.398 40.5935 138.013 35.6717L135.364 34.2643C132.402 39.8385 130.924 48.4992 130.924 59.24H133.924ZM138.02 35.6585C140.121 31.6072 143.112 29.58 146.856 29.58V26.58C141.744 26.58 137.848 29.4728 135.357 34.2775L138.02 35.6585ZM146.856 29.58C148.98 29.58 150.686 30.0878 152.106 31.0454C153.538 32.0117 154.78 33.5057 155.847 35.6388L158.53 34.2972C157.3 31.8383 155.755 29.8883 153.784 28.5585C151.8 27.2202 149.489 26.58 146.856 26.58V29.58ZM155.847 35.6388C158.305 40.5548 159.46 48.4528 159.46 59.24H162.46C162.46 48.3792 161.32 39.8772 158.53 34.2972L155.847 35.6388Z" fill="#F29222"/>
</svg>
