<svg viewBox="0 0 10 12" xmlns="http://www.w3.org/2000/svg">
<path d="M4.99999 5.86879C6.46177 5.86879 7.64689 4.55503 7.64689 2.93441C7.64689 1.31376 7.25779 0 4.99999 0C2.74219 0 2.35303 1.31376 2.35303 2.93441C2.35303 4.55503 3.53814 5.86879 4.99999 5.86879Z" fill="#2D353A"/>
<path d="M9.99349 10.2308C9.94446 7.40765 9.5405 6.60321 6.44922 6.09399C6.44922 6.09399 6.01407 6.60009 4.99984 6.60009C3.9856 6.60009 3.55038 6.09399 3.55038 6.09399C0.492834 6.59765 0.0643006 7.39017 0.00795419 10.1391C0.00333378 10.3636 0.00119263 10.3754 0.000366211 10.3493C0.000554032 10.3981 0.000779335 10.4884 0.000779335 10.6459C0.000779335 10.6459 0.736739 12.0001 4.99984 12.0001C9.26286 12.0001 9.9989 10.6459 9.9989 10.6459C9.9989 10.5447 9.99897 10.4744 9.99908 10.4265C9.99826 10.4426 9.9966 10.4114 9.99349 10.2308Z" fill="#2D353A"/>
</svg>
