<svg viewBox="0 0 246 260" xmlns="http://www.w3.org/2000/svg">
<path d="M173.695 90.4736C176.035 90.4736 177.931 88.5768 177.931 86.2369C177.931 83.8971 176.035 82.0002 173.695 82.0002C171.355 82.0002 169.458 83.8971 169.458 86.2369C169.458 88.5768 171.355 90.4736 173.695 90.4736Z" fill="#F4E729"/>
<path d="M160.984 103.183C160.984 105.522 159.086 107.42 156.747 107.42C154.409 107.42 152.511 105.522 152.511 103.183C152.511 100.845 154.409 98.9468 156.747 98.9468C159.086 98.9468 160.984 100.845 160.984 103.183Z" fill="#F4E729"/>
<path d="M177.931 103.183C177.931 105.522 176.033 107.42 173.695 107.42C171.356 107.42 169.458 105.522 169.458 103.183C169.458 100.845 171.356 98.9468 173.695 98.9468C176.033 98.9468 177.931 100.845 177.931 103.183Z" fill="#F4E729"/>
<path d="M194.87 103.183C194.87 105.522 192.972 107.42 190.633 107.42C188.295 107.42 186.396 105.522 186.396 103.183C186.396 100.845 188.295 98.9468 190.633 98.9468C192.98 98.9468 194.87 100.845 194.87 103.183Z" fill="#F4E729"/>
<path d="M144.038 120.13C144.038 122.469 142.139 124.367 139.801 124.367C137.463 124.367 135.564 122.469 135.564 120.13C135.564 117.792 137.463 115.894 139.801 115.894C142.139 115.894 144.038 117.792 144.038 120.13Z" fill="#F4E729"/>
<path d="M160.984 120.13C160.984 122.469 159.086 124.367 156.747 124.367C154.409 124.367 152.511 122.469 152.511 120.13C152.511 117.792 154.409 115.894 156.747 115.894C159.086 115.894 160.984 117.792 160.984 120.13Z" fill="#F4E729"/>
<path d="M177.931 120.13C177.931 122.469 176.033 124.367 173.695 124.367C171.356 124.367 169.458 122.469 169.458 120.13C169.458 117.792 171.356 115.894 173.695 115.894C176.033 115.894 177.931 117.792 177.931 120.13Z" fill="#F4E729"/>
<path d="M194.87 120.13C194.87 122.469 192.972 124.367 190.633 124.367C188.295 124.367 186.396 122.469 186.396 120.13C186.396 117.792 188.295 115.894 190.633 115.894C192.98 115.894 194.87 117.792 194.87 120.13Z" fill="#F4E729"/>
<path d="M211.817 120.13C211.817 122.469 209.919 124.367 207.58 124.367C205.242 124.367 203.344 122.469 203.344 120.13C203.344 117.792 205.242 115.894 207.58 115.894C209.919 115.894 211.817 117.792 211.817 120.13Z" fill="#F4E729"/>
<path d="M127.09 137.077C127.09 139.415 125.192 141.313 122.854 141.313C120.515 141.313 118.617 139.415 118.617 137.077C118.617 134.738 120.515 132.84 122.854 132.84C125.192 132.84 127.09 134.738 127.09 137.077Z" fill="#F4E729"/>
<path d="M144.038 137.077C144.038 139.415 142.139 141.313 139.801 141.313C137.463 141.313 135.564 139.415 135.564 137.077C135.564 134.738 137.463 132.84 139.801 132.84C142.139 132.84 144.038 134.738 144.038 137.077Z" fill="#F4E729"/>
<path d="M160.984 137.077C160.984 139.415 159.086 141.313 156.747 141.313C154.409 141.313 152.511 139.415 152.511 137.077C152.511 134.738 154.409 132.84 156.747 132.84C159.086 132.84 160.984 134.738 160.984 137.077Z" fill="#F4E729"/>
<path d="M177.931 137.077C177.931 139.415 176.033 141.313 173.695 141.313C171.356 141.313 169.458 139.415 169.458 137.077C169.458 134.738 171.356 132.84 173.695 132.84C176.033 132.84 177.931 134.738 177.931 137.077Z" fill="#F4E729"/>
<path d="M194.87 137.077C194.87 139.415 192.972 141.313 190.633 141.313C188.295 141.313 186.396 139.415 186.396 137.077C186.396 134.738 188.295 132.84 190.633 132.84C192.98 132.84 194.87 134.738 194.87 137.077Z" fill="#F4E729"/>
<path d="M211.817 137.077C211.817 139.415 209.919 141.313 207.58 141.313C205.242 141.313 203.344 139.415 203.344 137.077C203.344 134.738 205.242 132.84 207.58 132.84C209.919 132.84 211.817 134.738 211.817 137.077Z" fill="#F4E729"/>
<path d="M228.762 137.077C228.762 139.415 226.864 141.313 224.526 141.313C222.187 141.313 220.289 139.415 220.289 137.077C220.289 134.738 222.187 132.84 224.526 132.84C226.864 132.84 228.762 134.738 228.762 137.077Z" fill="#F4E729"/>
<path d="M105.909 158.26C108.248 158.26 110.145 156.364 110.145 154.024C110.145 151.684 108.248 149.787 105.909 149.787C103.569 149.787 101.672 151.684 101.672 154.024C101.672 156.364 103.569 158.26 105.909 158.26Z" fill="#F4E729"/>
<path d="M127.09 154.024C127.09 156.362 125.192 158.26 122.854 158.26C120.515 158.26 118.617 156.362 118.617 154.024C118.617 151.685 120.515 149.787 122.854 149.787C125.192 149.787 127.09 151.685 127.09 154.024Z" fill="#F4E729"/>
<path d="M144.038 154.024C144.038 156.362 142.139 158.26 139.801 158.26C137.463 158.26 135.564 156.362 135.564 154.024C135.564 151.685 137.463 149.787 139.801 149.787C142.139 149.787 144.038 151.685 144.038 154.024Z" fill="#F4E729"/>
<path d="M160.984 154.024C160.984 156.362 159.086 158.26 156.747 158.26C154.409 158.26 152.511 156.362 152.511 154.024C152.511 151.685 154.409 149.787 156.747 149.787C159.086 149.787 160.984 151.685 160.984 154.024Z" fill="#F4E729"/>
<path d="M173.695 158.26C176.035 158.26 177.931 156.364 177.931 154.024C177.931 151.684 176.035 149.787 173.695 149.787C171.355 149.787 169.458 151.684 169.458 154.024C169.458 156.364 171.355 158.26 173.695 158.26Z" fill="#F4E729"/>
<path d="M190.641 158.26C192.981 158.26 194.878 156.364 194.878 154.024C194.878 151.684 192.981 149.787 190.641 149.787C188.301 149.787 186.404 151.684 186.404 154.024C186.404 156.364 188.301 158.26 190.641 158.26Z" fill="#F4E729"/>
<path d="M207.58 158.26C209.92 158.26 211.817 156.364 211.817 154.024C211.817 151.684 209.92 149.787 207.58 149.787C205.241 149.787 203.344 151.684 203.344 154.024C203.344 156.364 205.241 158.26 207.58 158.26Z" fill="#F4E729"/>
<path d="M228.762 154.024C228.762 156.362 226.864 158.26 224.526 158.26C222.187 158.26 220.289 156.362 220.289 154.024C220.289 151.685 222.187 149.787 224.526 149.787C226.864 149.787 228.762 151.685 228.762 154.024Z" fill="#F4E729"/>
<path d="M245.71 154.024C245.71 156.362 243.811 158.26 241.473 158.26C239.135 158.26 237.236 156.362 237.236 154.024C237.236 151.685 239.135 149.787 241.473 149.787C243.811 149.787 245.71 151.685 245.71 154.024Z" fill="#F4E729"/>
<path d="M93.1979 170.971C93.1979 173.309 91.2997 175.207 88.9613 175.207C86.6229 175.207 84.7246 173.309 84.7246 170.971C84.7246 168.632 86.6229 166.734 88.9613 166.734C91.2997 166.734 93.1979 168.632 93.1979 170.971Z" fill="#F4E729"/>
<path d="M105.909 175.207C108.248 175.207 110.145 173.31 110.145 170.971C110.145 168.631 108.248 166.734 105.909 166.734C103.569 166.734 101.672 168.631 101.672 170.971C101.672 173.31 103.569 175.207 105.909 175.207Z" fill="#F4E729"/>
<path d="M127.09 170.971C127.09 173.309 125.192 175.207 122.854 175.207C120.515 175.207 118.617 173.309 118.617 170.971C118.617 168.632 120.515 166.734 122.854 166.734C125.192 166.734 127.09 168.632 127.09 170.971Z" fill="#F4E729"/>
<path d="M144.038 170.971C144.038 173.309 142.139 175.207 139.801 175.207C137.463 175.207 135.564 173.309 135.564 170.971C135.564 168.632 137.463 166.734 139.801 166.734C142.139 166.734 144.038 168.632 144.038 170.971Z" fill="#F4E729"/>
<path d="M160.984 170.971C160.984 173.309 159.086 175.207 156.747 175.207C154.409 175.207 152.511 173.309 152.511 170.971C152.511 168.632 154.409 166.734 156.747 166.734C159.086 166.734 160.984 168.632 160.984 170.971Z" fill="#F4E729"/>
<path d="M173.695 175.207C176.035 175.207 177.931 173.31 177.931 170.971C177.931 168.631 176.035 166.734 173.695 166.734C171.355 166.734 169.458 168.631 169.458 170.971C169.458 173.31 171.355 175.207 173.695 175.207Z" fill="#F4E729"/>
<path d="M190.641 175.207C192.981 175.207 194.878 173.31 194.878 170.971C194.878 168.631 192.981 166.734 190.641 166.734C188.301 166.734 186.404 168.631 186.404 170.971C186.404 173.31 188.301 175.207 190.641 175.207Z" fill="#F4E729"/>
<path d="M207.58 175.207C209.92 175.207 211.817 173.31 211.817 170.971C211.817 168.631 209.92 166.734 207.58 166.734C205.241 166.734 203.344 168.631 203.344 170.971C203.344 173.31 205.241 175.207 207.58 175.207Z" fill="#F4E729"/>
<path d="M228.762 170.971C228.762 173.309 226.864 175.207 224.526 175.207C222.187 175.207 220.289 173.309 220.289 170.971C220.289 168.632 222.187 166.734 224.526 166.734C226.864 166.734 228.762 168.632 228.762 170.971Z" fill="#F4E729"/>
<path d="M245.71 170.971C245.71 173.309 243.811 175.207 241.473 175.207C239.135 175.207 237.236 173.309 237.236 170.971C237.236 168.632 239.135 166.734 241.473 166.734C243.811 166.734 245.71 168.632 245.71 170.971Z" fill="#F4E729"/>
<path d="M76.2507 187.917C76.2507 190.256 74.3524 192.154 72.014 192.154C69.6757 192.154 67.7773 190.256 67.7773 187.917C67.7773 185.579 69.6757 183.681 72.014 183.681C74.3524 183.681 76.2507 185.579 76.2507 187.917Z" fill="#F4E729"/>
<path d="M93.1979 187.917C93.1979 190.256 91.2997 192.154 88.9613 192.154C86.6229 192.154 84.7246 190.256 84.7246 187.917C84.7246 185.579 86.6229 183.681 88.9613 183.681C91.2997 183.681 93.1979 185.579 93.1979 187.917Z" fill="#F4E729"/>
<path d="M110.145 187.917C110.145 190.256 108.247 192.154 105.909 192.154C103.57 192.154 101.672 190.256 101.672 187.917C101.672 185.579 103.57 183.681 105.909 183.681C108.247 183.681 110.145 185.579 110.145 187.917Z" fill="#F4E729"/>
<path d="M127.09 187.917C127.09 190.256 125.192 192.154 122.854 192.154C120.515 192.154 118.617 190.256 118.617 187.917C118.617 185.579 120.515 183.681 122.854 183.681C125.192 183.681 127.09 185.579 127.09 187.917Z" fill="#F4E729"/>
<path d="M144.038 187.917C144.038 190.256 142.139 192.154 139.801 192.154C137.463 192.154 135.564 190.256 135.564 187.917C135.564 185.579 137.463 183.681 139.801 183.681C142.139 183.681 144.038 185.579 144.038 187.917Z" fill="#F4E729"/>
<path d="M160.984 187.917C160.984 190.256 159.086 192.154 156.747 192.154C154.409 192.154 152.511 190.256 152.511 187.917C152.511 185.579 154.409 183.681 156.747 183.681C159.086 183.681 160.984 185.579 160.984 187.917Z" fill="#F4E729"/>
<path d="M177.931 187.917C177.931 190.256 176.033 192.154 173.695 192.154C171.356 192.154 169.458 190.256 169.458 187.917C169.458 185.579 171.356 183.681 173.695 183.681C176.033 183.681 177.931 185.579 177.931 187.917Z" fill="#F4E729"/>
<path d="M194.87 187.917C194.87 190.256 192.972 192.154 190.633 192.154C188.295 192.154 186.396 190.256 186.396 187.917C186.396 185.579 188.295 183.681 190.633 183.681C192.98 183.681 194.87 185.579 194.87 187.917Z" fill="#F4E729"/>
<path d="M211.817 187.917C211.817 190.256 209.919 192.154 207.58 192.154C205.242 192.154 203.344 190.256 203.344 187.917C203.344 185.579 205.242 183.681 207.58 183.681C209.919 183.681 211.817 185.579 211.817 187.917Z" fill="#F4E729"/>
<path d="M228.762 187.917C228.762 190.256 226.864 192.154 224.526 192.154C222.187 192.154 220.289 190.256 220.289 187.917C220.289 185.579 222.187 183.681 224.526 183.681C226.864 183.681 228.762 185.579 228.762 187.917Z" fill="#F4E729"/>
<path d="M245.71 187.917C245.71 190.256 243.811 192.154 241.473 192.154C239.135 192.154 237.236 190.256 237.236 187.917C237.236 185.579 239.135 183.681 241.473 183.681C243.811 183.681 245.71 185.579 245.71 187.917Z" fill="#F4E729"/>
<path d="M59.3045 204.864C59.3045 207.202 57.4061 209.1 55.0678 209.1C52.7294 209.1 50.8311 207.202 50.8311 204.864C50.8311 202.525 52.7294 200.627 55.0678 200.627C57.4061 200.627 59.3045 202.525 59.3045 204.864Z" fill="#F4E729"/>
<path d="M76.2507 204.864C76.2507 207.202 74.3524 209.1 72.014 209.1C69.6757 209.1 67.7773 207.202 67.7773 204.864C67.7773 202.525 69.6757 200.627 72.014 200.627C74.3524 200.627 76.2507 202.525 76.2507 204.864Z" fill="#F4E729"/>
<path d="M93.1979 204.864C93.1979 207.202 91.2997 209.1 88.9613 209.1C86.6229 209.1 84.7246 207.202 84.7246 204.864C84.7246 202.525 86.6229 200.627 88.9613 200.627C91.2997 200.627 93.1979 202.525 93.1979 204.864Z" fill="#F4E729"/>
<path d="M110.145 204.864C110.145 207.202 108.247 209.1 105.909 209.1C103.57 209.1 101.672 207.202 101.672 204.864C101.672 202.525 103.57 200.627 105.909 200.627C108.247 200.627 110.145 202.525 110.145 204.864Z" fill="#F4E729"/>
<path d="M127.09 204.864C127.09 207.202 125.192 209.1 122.854 209.1C120.515 209.1 118.617 207.202 118.617 204.864C118.617 202.525 120.515 200.627 122.854 200.627C125.192 200.627 127.09 202.525 127.09 204.864Z" fill="#F4E729"/>
<path d="M144.038 204.864C144.038 207.202 142.139 209.1 139.801 209.1C137.463 209.1 135.564 207.202 135.564 204.864C135.564 202.525 137.463 200.627 139.801 200.627C142.139 200.627 144.038 202.525 144.038 204.864Z" fill="#F4E729"/>
<path d="M160.984 204.864C160.984 207.202 159.086 209.1 156.747 209.1C154.409 209.1 152.511 207.202 152.511 204.864C152.511 202.525 154.409 200.627 156.747 200.627C159.086 200.627 160.984 202.525 160.984 204.864Z" fill="#F4E729"/>
<path d="M177.931 204.864C177.931 207.202 176.033 209.1 173.695 209.1C171.356 209.1 169.458 207.202 169.458 204.864C169.458 202.525 171.356 200.627 173.695 200.627C176.033 200.627 177.931 202.525 177.931 204.864Z" fill="#F4E729"/>
<path d="M194.87 204.864C194.87 207.202 192.972 209.1 190.633 209.1C188.295 209.1 186.396 207.202 186.396 204.864C186.396 202.525 188.295 200.627 190.633 200.627C192.98 200.627 194.87 202.525 194.87 204.864Z" fill="#F4E729"/>
<path d="M211.817 204.864C211.817 207.202 209.919 209.1 207.58 209.1C205.242 209.1 203.344 207.202 203.344 204.864C203.344 202.525 205.242 200.627 207.58 200.627C209.919 200.627 211.817 202.525 211.817 204.864Z" fill="#F4E729"/>
<path d="M228.762 204.864C228.762 207.202 226.864 209.1 224.526 209.1C222.187 209.1 220.289 207.202 220.289 204.864C220.289 202.525 222.187 200.627 224.526 200.627C226.864 200.627 228.762 202.525 228.762 204.864Z" fill="#F4E729"/>
<path d="M245.71 204.864C245.71 207.202 243.811 209.1 241.473 209.1C239.135 209.1 237.236 207.202 237.236 204.864C237.236 202.525 239.135 200.627 241.473 200.627C243.811 200.627 245.71 202.525 245.71 204.864Z" fill="#F4E729"/>
<path d="M42.3582 221.811C42.3582 224.149 40.4598 226.047 38.1215 226.047C35.7831 226.047 33.8848 224.149 33.8848 221.811C33.8848 219.472 35.7831 217.574 38.1215 217.574C40.4598 217.574 42.3582 219.472 42.3582 221.811Z" fill="#F4E729"/>
<path d="M59.3045 221.811C59.3045 224.149 57.4061 226.047 55.0678 226.047C52.7294 226.047 50.8311 224.149 50.8311 221.811C50.8311 219.472 52.7294 217.574 55.0678 217.574C57.4061 217.574 59.3045 219.472 59.3045 221.811Z" fill="#F4E729"/>
<path d="M76.2507 221.811C76.2507 224.149 74.3524 226.047 72.014 226.047C69.6757 226.047 67.7773 224.149 67.7773 221.811C67.7773 219.472 69.6757 217.574 72.014 217.574C74.3524 217.574 76.2507 219.472 76.2507 221.811Z" fill="#F4E729"/>
<path d="M93.1979 221.811C93.1979 224.149 91.2997 226.047 88.9613 226.047C86.6229 226.047 84.7246 224.149 84.7246 221.811C84.7246 219.472 86.6229 217.574 88.9613 217.574C91.2997 217.574 93.1979 219.472 93.1979 221.811Z" fill="#F4E729"/>
<path d="M110.145 221.811C110.145 224.149 108.247 226.047 105.909 226.047C103.57 226.047 101.672 224.149 101.672 221.811C101.672 219.472 103.57 217.574 105.909 217.574C108.247 217.574 110.145 219.472 110.145 221.811Z" fill="#F4E729"/>
<path d="M127.09 221.811C127.09 224.149 125.192 226.047 122.854 226.047C120.515 226.047 118.617 224.149 118.617 221.811C118.617 219.472 120.515 217.574 122.854 217.574C125.192 217.574 127.09 219.472 127.09 221.811Z" fill="#F4E729"/>
<path d="M144.038 221.811C144.038 224.149 142.139 226.047 139.801 226.047C137.463 226.047 135.564 224.149 135.564 221.811C135.564 219.472 137.463 217.574 139.801 217.574C142.139 217.574 144.038 219.472 144.038 221.811Z" fill="#F4E729"/>
<path d="M160.984 221.811C160.984 224.149 159.086 226.047 156.747 226.047C154.409 226.047 152.511 224.149 152.511 221.811C152.511 219.472 154.409 217.574 156.747 217.574C159.086 217.574 160.984 219.472 160.984 221.811Z" fill="#F4E729"/>
<path d="M177.931 221.811C177.931 224.149 176.033 226.047 173.695 226.047C171.356 226.047 169.458 224.149 169.458 221.811C169.458 219.472 171.356 217.574 173.695 217.574C176.033 217.574 177.931 219.472 177.931 221.811Z" fill="#F4E729"/>
<path d="M194.87 221.811C194.87 224.149 192.972 226.047 190.633 226.047C188.295 226.047 186.396 224.149 186.396 221.811C186.396 219.472 188.295 217.574 190.633 217.574C192.98 217.574 194.87 219.472 194.87 221.811Z" fill="#F4E729"/>
<path d="M211.817 221.811C211.817 224.149 209.919 226.047 207.58 226.047C205.242 226.047 203.344 224.149 203.344 221.811C203.344 219.472 205.242 217.574 207.58 217.574C209.919 217.574 211.817 219.472 211.817 221.811Z" fill="#F4E729"/>
<path d="M228.762 221.811C228.762 224.149 226.864 226.047 224.526 226.047C222.187 226.047 220.289 224.149 220.289 221.811C220.289 219.472 222.187 217.574 224.526 217.574C226.864 217.574 228.762 219.472 228.762 221.811Z" fill="#F4E729"/>
<path d="M245.71 221.811C245.71 224.149 243.811 226.047 241.473 226.047C239.135 226.047 237.236 224.149 237.236 221.811C237.236 219.472 239.135 217.574 241.473 217.574C243.811 217.574 245.71 219.472 245.71 221.811Z" fill="#F4E729"/>
<path d="M21.1752 242.994C23.515 242.994 25.4119 241.097 25.4119 238.757C25.4119 236.417 23.515 234.52 21.1752 234.52C18.8353 234.52 16.9385 236.417 16.9385 238.757C16.9385 241.097 18.8353 242.994 21.1752 242.994Z" fill="#F4E729"/>
<path d="M42.3582 238.757C42.3582 241.095 40.4598 242.994 38.1215 242.994C35.7831 242.994 33.8848 241.095 33.8848 238.757C33.8848 236.419 35.7831 234.52 38.1215 234.52C40.4598 234.52 42.3582 236.41 42.3582 238.757Z" fill="#F4E729"/>
<path d="M59.3045 238.757C59.3045 241.095 57.4061 242.994 55.0678 242.994C52.7294 242.994 50.8311 241.095 50.8311 238.757C50.8311 236.419 52.7294 234.52 55.0678 234.52C57.4061 234.52 59.3045 236.41 59.3045 238.757Z" fill="#F4E729"/>
<path d="M76.2507 238.757C76.2507 241.095 74.3524 242.994 72.014 242.994C69.6757 242.994 67.7773 241.095 67.7773 238.757C67.7773 236.419 69.6757 234.52 72.014 234.52C74.3524 234.52 76.2507 236.41 76.2507 238.757Z" fill="#F4E729"/>
<path d="M93.1979 238.757C93.1979 241.095 91.2997 242.994 88.9613 242.994C86.6229 242.994 84.7246 241.095 84.7246 238.757C84.7246 236.419 86.6229 234.52 88.9613 234.52C91.2997 234.52 93.1979 236.41 93.1979 238.757Z" fill="#F4E729"/>
<path d="M105.909 242.994C108.248 242.994 110.145 241.097 110.145 238.757C110.145 236.417 108.248 234.52 105.909 234.52C103.569 234.52 101.672 236.417 101.672 238.757C101.672 241.097 103.569 242.994 105.909 242.994Z" fill="#F4E729"/>
<path d="M127.09 238.757C127.09 241.095 125.192 242.994 122.854 242.994C120.515 242.994 118.617 241.095 118.617 238.757C118.617 236.419 120.515 234.52 122.854 234.52C125.192 234.52 127.09 236.41 127.09 238.757Z" fill="#F4E729"/>
<path d="M144.038 238.757C144.038 241.095 142.139 242.994 139.801 242.994C137.463 242.994 135.564 241.095 135.564 238.757C135.564 236.419 137.463 234.52 139.801 234.52C142.139 234.52 144.038 236.41 144.038 238.757Z" fill="#F4E729"/>
<path d="M160.984 238.757C160.984 241.095 159.086 242.994 156.747 242.994C154.409 242.994 152.511 241.095 152.511 238.757C152.511 236.419 154.409 234.52 156.747 234.52C159.086 234.52 160.984 236.41 160.984 238.757Z" fill="#F4E729"/>
<path d="M173.695 242.994C176.035 242.994 177.931 241.097 177.931 238.757C177.931 236.417 176.035 234.52 173.695 234.52C171.355 234.52 169.458 236.417 169.458 238.757C169.458 241.097 171.355 242.994 173.695 242.994Z" fill="#F4E729"/>
<path d="M190.641 242.994C192.981 242.994 194.878 241.097 194.878 238.757C194.878 236.417 192.981 234.52 190.641 234.52C188.301 234.52 186.404 236.417 186.404 238.757C186.404 241.097 188.301 242.994 190.641 242.994Z" fill="#F4E729"/>
<path d="M207.58 242.994C209.92 242.994 211.817 241.097 211.817 238.757C211.817 236.417 209.92 234.52 207.58 234.52C205.241 234.52 203.344 236.417 203.344 238.757C203.344 241.097 205.241 242.994 207.58 242.994Z" fill="#F4E729"/>
<path d="M228.762 238.757C228.762 241.095 226.864 242.994 224.526 242.994C222.187 242.994 220.289 241.095 220.289 238.757C220.289 236.419 222.187 234.52 224.526 234.52C226.864 234.52 228.762 236.41 228.762 238.757Z" fill="#F4E729"/>
<path d="M245.71 238.757C245.71 241.095 243.811 242.994 241.473 242.994C239.135 242.994 237.236 241.095 237.236 238.757C237.236 236.419 239.135 234.52 241.473 234.52C243.811 234.52 245.71 236.41 245.71 238.757Z" fill="#F4E729"/>
<path d="M4.2366 259.932C6.57645 259.932 8.4733 258.035 8.4733 255.695C8.4733 253.356 6.57645 251.459 4.2366 251.459C1.89675 251.459 0 253.356 0 255.695C0 258.035 1.89675 259.932 4.2366 259.932Z" fill="#F4E729"/>
<path d="M21.1752 259.932C23.515 259.932 25.4119 258.035 25.4119 255.695C25.4119 253.356 23.515 251.459 21.1752 251.459C18.8353 251.459 16.9385 253.356 16.9385 255.695C16.9385 258.035 18.8353 259.932 21.1752 259.932Z" fill="#F4E729"/>
<path d="M42.3582 255.695C42.3582 258.034 40.4598 259.932 38.1215 259.932C35.7831 259.932 33.8848 258.034 33.8848 255.695C33.8848 253.357 35.7831 251.459 38.1215 251.459C40.4598 251.459 42.3582 253.357 42.3582 255.695Z" fill="#F4E729"/>
<path d="M59.3045 255.695C59.3045 258.034 57.4061 259.932 55.0678 259.932C52.7294 259.932 50.8311 258.034 50.8311 255.695C50.8311 253.357 52.7294 251.459 55.0678 251.459C57.4061 251.467 59.3045 253.357 59.3045 255.695Z" fill="#F4E729"/>
<path d="M76.2507 255.695C76.2507 258.034 74.3524 259.932 72.014 259.932C69.6757 259.932 67.7773 258.034 67.7773 255.695C67.7773 253.357 69.6757 251.459 72.014 251.459C74.3524 251.467 76.2507 253.357 76.2507 255.695Z" fill="#F4E729"/>
<path d="M93.1979 255.695C93.1979 258.034 91.2997 259.932 88.9613 259.932C86.6229 259.932 84.7246 258.034 84.7246 255.695C84.7246 253.357 86.6229 251.459 88.9613 251.459C91.2997 251.467 93.1979 253.357 93.1979 255.695Z" fill="#F4E729"/>
<path d="M105.909 259.932C108.248 259.932 110.145 258.035 110.145 255.695C110.145 253.356 108.248 251.459 105.909 251.459C103.569 251.459 101.672 253.356 101.672 255.695C101.672 258.035 103.569 259.932 105.909 259.932Z" fill="#F4E729"/>
<path d="M127.09 255.695C127.09 258.034 125.192 259.932 122.854 259.932C120.515 259.932 118.617 258.034 118.617 255.695C118.617 253.357 120.515 251.459 122.854 251.459C125.192 251.459 127.09 253.357 127.09 255.695Z" fill="#F4E729"/>
<path d="M144.038 255.695C144.038 258.034 142.139 259.932 139.801 259.932C137.463 259.932 135.564 258.034 135.564 255.695C135.564 253.357 137.463 251.459 139.801 251.459C142.139 251.467 144.038 253.357 144.038 255.695Z" fill="#F4E729"/>
<path d="M160.984 255.695C160.984 258.034 159.086 259.932 156.747 259.932C154.409 259.932 152.511 258.034 152.511 255.695C152.511 253.357 154.409 251.459 156.747 251.459C159.086 251.467 160.984 253.357 160.984 255.695Z" fill="#F4E729"/>
<path d="M173.695 259.932C176.035 259.932 177.931 258.035 177.931 255.695C177.931 253.356 176.035 251.459 173.695 251.459C171.355 251.459 169.458 253.356 169.458 255.695C169.458 258.035 171.355 259.932 173.695 259.932Z" fill="#F4E729"/>
<path d="M190.641 259.932C192.981 259.932 194.878 258.035 194.878 255.695C194.878 253.356 192.981 251.459 190.641 251.459C188.301 251.459 186.404 253.356 186.404 255.695C186.404 258.035 188.301 259.932 190.641 259.932Z" fill="#F4E729"/>
<path d="M207.58 259.932C209.92 259.932 211.817 258.035 211.817 255.695C211.817 253.356 209.92 251.459 207.58 251.459C205.241 251.459 203.344 253.356 203.344 255.695C203.344 258.035 205.241 259.932 207.58 259.932Z" fill="#F4E729"/>
<path d="M228.762 255.695C228.762 258.034 226.864 259.932 224.526 259.932C222.187 259.932 220.289 258.034 220.289 255.695C220.289 253.357 222.187 251.459 224.526 251.459C226.864 251.467 228.762 253.357 228.762 255.695Z" fill="#F4E729"/>
<path d="M245.71 255.695C245.71 258.034 243.811 259.932 241.473 259.932C239.135 259.932 237.236 258.034 237.236 255.695C237.236 253.357 239.135 251.459 241.473 251.459C243.811 251.459 245.71 253.357 245.71 255.695Z" fill="#F4E729"/>
<path d="M105.839 6.04006L99.7991 0L93.526 6.27303L87.2443 0L81.2129 6.04006L87.4859 12.3131L81.2129 18.5861L87.2443 24.6262L93.526 18.3532L99.7991 24.6262L105.839 18.5861L99.5661 12.3131L105.839 6.04006Z" fill="#4D91CE"/>
</svg>
