<svg viewBox="0 0 322 349" xmlns="http://www.w3.org/2000/svg">
<path d="M293.845 303.08L321.647 275.279L321.647 286.496C312.845 293.062 303.518 298.585 293.845 303.08Z" fill="#4D91CE"/>
<path d="M254.214 315.471L321.638 248.029L321.638 261.645L271.98 311.303C266.138 313.046 260.193 314.427 254.214 315.471Z" fill="#4D91CE"/>
<path d="M224.644 317.802L321.648 220.79L321.648 234.406L238.683 317.388C234.006 317.733 229.321 317.854 224.644 317.802Z" fill="#4D91CE"/>
<path d="M211.726 317.102C207.705 316.714 203.702 316.17 199.724 315.489L321.647 193.566L321.647 207.182L211.726 317.102Z" fill="#4D91CE"/>
<path d="M188.466 313.125C184.919 312.237 181.373 311.236 177.861 310.105L321.649 166.326L321.649 179.942L188.466 313.125Z" fill="#4D91CE"/>
<path d="M167.867 306.482C164.674 305.205 161.516 303.824 158.392 302.331L321.647 139.077L321.647 152.693L167.867 306.482Z" fill="#4D91CE"/>
<path d="M149.41 297.688C146.537 296.083 143.698 294.384 140.911 292.58L321.647 111.844L321.647 125.46L149.41 297.688Z" fill="#4D91CE"/>
<path d="M132.854 287.015C130.248 285.109 127.703 283.124 125.217 281.036L321.649 84.6042L321.649 98.2203L132.854 287.015Z" fill="#4D91CE"/>
<path d="M117.995 274.624C116.839 273.536 115.691 272.423 114.544 271.276C113.396 270.128 112.283 268.972 111.179 267.816L321.649 57.3625L321.649 70.9786L117.995 274.624Z" fill="#4D91CE"/>
<path d="M104.783 260.601C102.694 258.116 100.701 255.553 98.7857 252.964L320.956 30.7936C321.189 30.9662 321.414 31.1387 321.647 31.3113L321.647 43.728L104.783 260.601Z" fill="#4D91CE"/>
<path d="M304.398 20.1211L88.1206 236.399C89.7256 239.281 91.434 242.111 93.2374 244.898L312.897 25.2379C310.11 23.4345 307.28 21.7347 304.398 20.1211Z" fill="#4D91CE"/>
<path d="M285.942 11.3378L79.3372 217.943C80.6057 221.135 81.9862 224.293 83.479 227.417L295.425 15.4796C292.293 13.9868 289.135 12.6062 285.942 11.3378Z" fill="#4D91CE"/>
<path d="M265.353 4.70136L72.7012 197.354C73.5727 200.917 74.5909 204.446 75.7212 207.941L275.941 7.71275C272.437 6.5824 268.917 5.57285 265.353 4.70136Z" fill="#4D91CE"/>
<path d="M242.093 0.716005L68.7172 174.092C69.1055 178.113 69.6405 182.116 70.3221 186.103L254.104 2.32092C250.118 1.64789 246.114 1.10429 242.093 0.716005Z" fill="#4D91CE"/>
<path d="M215.134 0.430776L68.4298 147.135C68.0846 151.812 67.9466 156.489 68.0156 161.174L229.173 0.0166148C224.488 -0.0524139 219.811 0.0942572 215.134 0.430776Z" fill="#4D91CE"/>
<path d="M181.828 6.50586L74.505 113.829C72.7706 119.688 71.3901 125.625 70.3546 131.604L199.595 2.35547C193.615 3.39091 187.679 4.77149 181.828 6.50586Z" fill="#4D91CE"/>
<path d="M114.542 46.542C100.978 60.1063 90.3732 75.5257 82.7454 91.9633L159.972 14.7368C143.517 22.3818 128.106 32.9778 114.542 46.542Z" fill="#4D91CE"/>
<path d="M-1.76942e-05 342.585L6.04005 348.625L12.3131 342.352L18.5948 348.625L24.6262 342.585L18.3532 336.312L24.6262 330.039L18.5948 323.999L12.3131 330.272L6.04004 323.999L-1.87911e-05 330.039L6.27304 336.312L-1.76942e-05 342.585Z" fill="#4D91CE"/>
</svg>
