<svg viewBox="0 0 318 254" xmlns="http://www.w3.org/2000/svg">
<path d="M303.081 27.8015L275.279 0H286.497C293.063 8.80124 298.585 18.1288 303.081 27.8015Z" fill="#4D91CE"/>
<path d="M315.471 67.4334L248.03 0.0090332H261.646L311.304 49.667C313.047 55.5086 314.427 61.4537 315.471 67.4334Z" fill="#4D91CE"/>
<path d="M317.802 97.0034L220.79 0H234.406L317.388 82.9646C317.733 87.6413 317.854 92.3267 317.802 97.0034Z" fill="#4D91CE"/>
<path d="M317.103 109.921C316.714 113.941 316.171 117.945 315.489 121.923L193.566 0H207.182L317.103 109.921Z" fill="#4D91CE"/>
<path d="M313.125 133.183C312.237 136.73 311.236 140.276 310.105 143.788L166.326 0H179.942L313.125 133.183Z" fill="#4D91CE"/>
<path d="M306.482 153.78C305.205 156.973 303.824 160.131 302.331 163.254L139.077 0H152.693L306.482 153.78Z" fill="#4D91CE"/>
<path d="M297.688 172.237C296.083 175.11 294.384 177.949 292.58 180.736L111.844 0H125.46L297.688 172.237Z" fill="#4D91CE"/>
<path d="M287.015 188.795C285.109 191.401 283.124 193.946 281.036 196.431L84.6042 0H98.2203L287.015 188.795Z" fill="#4D91CE"/>
<path d="M274.624 203.654C273.536 204.81 272.423 205.958 271.276 207.105C270.128 208.253 268.972 209.366 267.816 210.47L57.3625 0H70.9786L274.624 203.654Z" fill="#4D91CE"/>
<path d="M260.601 216.864C258.116 218.952 255.554 220.946 252.965 222.861L30.7942 0.690296C30.9668 0.457322 31.1393 0.232974 31.3119 0H43.7286L260.601 216.864Z" fill="#4D91CE"/>
<path d="M20.1218 17.249L236.399 233.526C239.281 231.921 242.111 230.213 244.898 228.41L25.2386 8.74976C23.4352 11.5368 21.7354 14.367 20.1218 17.249Z" fill="#4D91CE"/>
<path d="M11.3381 35.7058L217.943 242.311C221.135 241.042 224.294 239.661 227.417 238.169L15.4799 26.2229C13.9871 29.3551 12.6065 32.5132 11.3381 35.7058Z" fill="#4D91CE"/>
<path d="M4.70215 56.2937L197.354 248.946C200.918 248.074 204.447 247.056 207.942 245.926L7.71354 45.7063C6.58319 49.2095 5.57364 52.73 4.70215 56.2937Z" fill="#4D91CE"/>
<path d="M0.716064 79.556L174.092 252.932C178.113 252.543 182.116 252.008 186.103 251.327L2.32098 67.5449C1.64795 71.5314 1.10435 75.5351 0.716064 79.556Z" fill="#4D91CE"/>
<path d="M0.430835 106.512L147.135 253.217C151.812 253.562 156.489 253.7 161.174 253.631L0.0166758 92.4736C-0.0523535 97.159 0.0943169 101.836 0.430835 106.512Z" fill="#4D91CE"/>
<path d="M6.50561 139.819L113.829 247.142C119.688 248.877 125.624 250.257 131.604 251.293L2.35522 122.053C3.39066 128.032 4.77125 133.969 6.50561 139.819Z" fill="#4D91CE"/>
<path d="M46.5421 207.105C60.1063 220.669 75.5257 231.274 91.9633 238.902L14.7368 161.675C22.3818 178.13 32.9778 193.541 46.5421 207.105Z" fill="#4D91CE"/>
</svg>
