<svg viewBox="0 0 377 409" xmlns="http://www.w3.org/2000/svg">
<g clip-path="url(#clip0)">
<path d="M9.00341 3.01138L-88 100.023L-88 86.4074L-5.03542 3.4256C-0.358681 3.08045 4.32668 2.95961 9.00341 3.01138Z" fill="#4D91CE"/>
<path d="M21.9205 3.71121C25.9415 4.0995 29.9452 4.6431 33.923 5.32477L-88 127.248L-88 113.632L21.9205 3.71121Z" fill="#4D91CE"/>
<path d="M45.1834 7.68835C48.7298 8.5771 52.2762 9.57803 55.788 10.7084L-88 154.488L-88 140.872L45.1834 7.68835Z" fill="#4D91CE"/>
<path d="M65.78 14.3321C68.9726 15.6091 72.1307 16.9897 75.2543 18.4825L-88 181.737L-88 168.121L65.78 14.3321Z" fill="#4D91CE"/>
<path d="M84.2367 23.1256C87.1101 24.7305 89.9489 26.4304 92.736 28.2338L-88 208.97L-88 195.354L84.2367 23.1256Z" fill="#4D91CE"/>
<path d="M100.795 33.7985C103.401 35.7054 105.946 37.6901 108.431 39.7782L-88 236.21L-88 222.594L100.795 33.7985Z" fill="#4D91CE"/>
<path d="M115.654 46.1901C116.81 47.2773 117.958 48.3904 119.105 49.538C120.253 50.6856 121.366 51.8418 122.47 52.9981L-88 263.451L-88 249.835L115.654 46.1901Z" fill="#4D91CE"/>
<path d="M128.864 60.2124C130.952 62.6974 132.946 65.2601 134.861 67.8487L-87.3097 290.02C-87.5427 289.847 -87.767 289.674 -88 289.502L-88 277.085L128.864 60.2124Z" fill="#4D91CE"/>
<path d="M-70.7508 300.692L145.527 84.4145C143.922 81.5325 142.213 78.7023 140.41 75.9153L-79.25 295.575C-76.4629 297.378 -73.6327 299.078 -70.7508 300.692Z" fill="#4D91CE"/>
<path d="M-52.2944 309.476L154.31 102.871C153.042 99.6785 151.661 96.5204 150.168 93.3968L-61.7773 305.334C-58.6451 306.827 -55.487 308.207 -52.2944 309.476Z" fill="#4D91CE"/>
<path d="M-31.7066 316.112L160.946 123.46C160.074 119.896 159.056 116.367 157.926 112.872L-42.2939 313.1C-38.7907 314.231 -35.2702 315.24 -31.7066 316.112Z" fill="#4D91CE"/>
<path d="M-8.44398 320.098L164.932 146.722C164.543 142.701 164.008 138.697 163.327 134.711L-20.4551 318.493C-16.4686 319.166 -12.4649 319.709 -8.44398 320.098Z" fill="#4D91CE"/>
<path d="M18.5125 320.383L165.217 173.679C165.562 169.002 165.7 164.325 165.631 159.64L4.47363 320.797C9.159 320.866 13.8357 320.72 18.5125 320.383Z" fill="#4D91CE"/>
<path d="M51.8192 314.308L159.142 206.985C160.877 201.126 162.257 195.189 163.293 189.21L34.0527 318.458C40.0324 317.423 45.9689 316.042 51.8192 314.308Z" fill="#4D91CE"/>
<path d="M119.105 274.272C132.669 260.707 143.274 245.288 150.901 228.85L73.6748 306.077C90.1297 298.432 105.54 287.836 119.105 274.272Z" fill="#4D91CE"/>
<path d="M292.917 395H-9V404.06H292.917V395Z" fill="#F4E729"/>
<path d="M319.13 268.773C321.048 260.584 315.964 252.39 307.774 250.472C299.584 248.554 291.39 253.639 289.472 261.829C287.555 270.019 292.639 278.212 300.829 280.13C309.019 282.048 317.213 276.963 319.13 268.773Z" fill="white"/>
</g>
<defs>
<clipPath id="clip0">
<rect width="377" height="409" fill="white"/>
</clipPath>
</defs>
</svg>
