<svg viewBox="0 0 411 155" xmlns="http://www.w3.org/2000/svg">
<path d="M311 55L316.358 84.7344L340.734 60.3584L311 55Z" fill="white"/>
<path d="M328.551 72.5511L333.909 102.285L358.285 77.9095L328.551 72.5511Z" fill="white"/>
<path d="M346.092 90.093L351.45 119.827L375.835 95.4514L346.092 90.093Z" fill="white"/>
<path d="M363.643 107.644L369.001 137.378L393.377 113.002L363.643 107.644Z" fill="white"/>
<path d="M381.193 125.186L386.543 154.92L410.928 130.545L381.193 125.186Z" fill="white"/>
<path d="M218.626 6.04006L212.586 0L206.313 6.28164L200.04 0L194 6.04006L200.273 12.3217L194 18.5948L200.04 24.6348L206.313 18.3618L212.586 24.6348L218.626 18.5948L212.353 12.3217L218.626 6.04006Z" fill="white"/>
<path d="M0 74.1664C0 96.3507 17.9821 114.333 40.1664 114.333V34C17.9821 34 0 51.9821 0 74.1664Z" fill="#F4E729"/>
</svg>
