<svg viewBox="0 0 128 246" xmlns="http://www.w3.org/2000/svg">
<path d="M118.627 122.864C118.627 125.204 120.523 127.101 122.863 127.101C125.203 127.101 127.1 125.204 127.1 122.864C127.1 120.524 125.203 118.627 122.863 118.627C120.523 118.627 118.627 120.524 118.627 122.864Z" fill="#F4E729"/>
<path d="M105.917 110.154C103.578 110.154 101.68 108.255 101.68 105.917C101.68 103.579 103.578 101.68 105.917 101.68C108.255 101.68 110.153 103.579 110.153 105.917C110.153 108.255 108.255 110.154 105.917 110.154Z" fill="#F4E729"/>
<path d="M105.917 127.101C103.578 127.101 101.68 125.202 101.68 122.864C101.68 120.526 103.578 118.627 105.917 118.627C108.255 118.627 110.153 120.526 110.153 122.864C110.153 125.202 108.255 127.101 105.917 127.101Z" fill="#F4E729"/>
<path d="M105.917 144.039C103.578 144.039 101.68 142.141 101.68 139.803C101.68 137.464 103.578 135.566 105.917 135.566C108.255 135.566 110.153 137.464 110.153 139.803C110.153 142.15 108.255 144.039 105.917 144.039Z" fill="#F4E729"/>
<path d="M88.9699 93.2069C86.6315 93.2069 84.7332 91.3086 84.7332 88.9702C84.7332 86.6319 86.6315 84.7336 88.9699 84.7336C91.3083 84.7336 93.2065 86.6319 93.2065 88.9702C93.2065 91.3086 91.3083 93.2069 88.9699 93.2069Z" fill="#F4E729"/>
<path d="M88.9699 110.154C86.6315 110.154 84.7332 108.255 84.7332 105.917C84.7332 103.579 86.6315 101.68 88.9699 101.68C91.3083 101.68 93.2065 103.579 93.2065 105.917C93.2065 108.255 91.3083 110.154 88.9699 110.154Z" fill="#F4E729"/>
<path d="M88.9699 127.101C86.6315 127.101 84.7332 125.202 84.7332 122.864C84.7332 120.526 86.6315 118.627 88.9699 118.627C91.3083 118.627 93.2065 120.526 93.2065 122.864C93.2065 125.202 91.3083 127.101 88.9699 127.101Z" fill="#F4E729"/>
<path d="M88.9699 144.039C86.6315 144.039 84.7332 142.141 84.7332 139.803C84.7332 137.464 86.6315 135.566 88.9699 135.566C91.3083 135.566 93.2065 137.464 93.2065 139.803C93.2065 142.15 91.3083 144.039 88.9699 144.039Z" fill="#F4E729"/>
<path d="M88.9699 160.986C86.6315 160.986 84.7332 159.088 84.7332 156.749C84.7332 154.411 86.6315 152.513 88.9699 152.513C91.3083 152.513 93.2065 154.411 93.2065 156.749C93.2065 159.088 91.3083 160.986 88.9699 160.986Z" fill="#F4E729"/>
<path d="M72.0234 76.2602C69.685 76.2602 67.7867 74.3618 67.7867 72.0235C67.7867 69.6851 69.685 67.7869 72.0234 67.7869C74.3617 67.7869 76.26 69.6851 76.26 72.0235C76.26 74.3618 74.3617 76.2602 72.0234 76.2602Z" fill="#F4E729"/>
<path d="M72.0234 93.2069C69.685 93.2069 67.7867 91.3086 67.7867 88.9702C67.7867 86.6319 69.685 84.7336 72.0234 84.7336C74.3617 84.7336 76.26 86.6319 76.26 88.9702C76.26 91.3086 74.3617 93.2069 72.0234 93.2069Z" fill="#F4E729"/>
<path d="M72.0234 110.154C69.685 110.154 67.7867 108.255 67.7867 105.917C67.7867 103.579 69.685 101.68 72.0234 101.68C74.3617 101.68 76.26 103.579 76.26 105.917C76.26 108.255 74.3617 110.154 72.0234 110.154Z" fill="#F4E729"/>
<path d="M72.0234 127.101C69.685 127.101 67.7867 125.202 67.7867 122.864C67.7867 120.526 69.685 118.627 72.0234 118.627C74.3617 118.627 76.26 120.526 76.26 122.864C76.26 125.202 74.3617 127.101 72.0234 127.101Z" fill="#F4E729"/>
<path d="M72.0234 144.039C69.685 144.039 67.7867 142.141 67.7867 139.803C67.7867 137.464 69.685 135.566 72.0234 135.566C74.3617 135.566 76.26 137.464 76.26 139.803C76.26 142.15 74.3617 144.039 72.0234 144.039Z" fill="#F4E729"/>
<path d="M72.0234 160.986C69.685 160.986 67.7867 159.088 67.7867 156.749C67.7867 154.411 69.685 152.513 72.0234 152.513C74.3617 152.513 76.26 154.411 76.26 156.749C76.26 159.088 74.3617 160.986 72.0234 160.986Z" fill="#F4E729"/>
<path d="M72.0234 177.932C69.685 177.932 67.7867 176.034 67.7867 173.695C67.7867 171.357 69.685 169.458 72.0234 169.458C74.3617 169.458 76.26 171.357 76.26 173.695C76.26 176.034 74.3617 177.932 72.0234 177.932Z" fill="#F4E729"/>
<path d="M50.8396 55.0783C50.8396 57.4181 52.7364 59.3149 55.0763 59.3149C57.4161 59.3149 59.313 57.4181 59.313 55.0783C59.313 52.7384 57.4161 50.8416 55.0763 50.8416C52.7364 50.8416 50.8396 52.7384 50.8396 55.0783Z" fill="#F4E729"/>
<path d="M55.0763 76.2602C52.7379 76.2602 50.8396 74.3618 50.8396 72.0235C50.8396 69.6851 52.7379 67.7869 55.0763 67.7869C57.4147 67.7869 59.313 69.6851 59.313 72.0235C59.313 74.3618 57.4147 76.2602 55.0763 76.2602Z" fill="#F4E729"/>
<path d="M55.0763 93.2069C52.7379 93.2069 50.8396 91.3086 50.8396 88.9702C50.8396 86.6319 52.7379 84.7336 55.0763 84.7336C57.4147 84.7336 59.313 86.6319 59.313 88.9702C59.313 91.3086 57.4147 93.2069 55.0763 93.2069Z" fill="#F4E729"/>
<path d="M55.0763 110.154C52.7379 110.154 50.8396 108.255 50.8396 105.917C50.8396 103.579 52.7379 101.68 55.0763 101.68C57.4147 101.68 59.313 103.579 59.313 105.917C59.313 108.255 57.4147 110.154 55.0763 110.154Z" fill="#F4E729"/>
<path d="M50.8396 122.864C50.8396 125.204 52.7364 127.101 55.0763 127.101C57.4161 127.101 59.313 125.204 59.313 122.864C59.313 120.524 57.4161 118.627 55.0763 118.627C52.7364 118.627 50.8396 120.524 50.8396 122.864Z" fill="#F4E729"/>
<path d="M50.8396 139.81C50.8396 142.15 52.7364 144.047 55.0763 144.047C57.4161 144.047 59.313 142.15 59.313 139.81C59.313 137.47 57.4161 135.573 55.0763 135.573C52.7364 135.573 50.8396 137.47 50.8396 139.81Z" fill="#F4E729"/>
<path d="M50.8396 156.749C50.8396 159.089 52.7364 160.986 55.0763 160.986C57.4161 160.986 59.313 159.089 59.313 156.749C59.313 154.41 57.4161 152.513 55.0763 152.513C52.7364 152.513 50.8396 154.41 50.8396 156.749Z" fill="#F4E729"/>
<path d="M55.0763 177.932C52.7379 177.932 50.8396 176.034 50.8396 173.695C50.8396 171.357 52.7379 169.458 55.0763 169.458C57.4147 169.458 59.313 171.357 59.313 173.695C59.313 176.034 57.4147 177.932 55.0763 177.932Z" fill="#F4E729"/>
<path d="M55.0763 194.879C52.7379 194.879 50.8396 192.98 50.8396 190.642C50.8396 188.304 52.7379 186.405 55.0763 186.405C57.4147 186.405 59.313 188.304 59.313 190.642C59.313 192.98 57.4147 194.879 55.0763 194.879Z" fill="#F4E729"/>
<path d="M38.1295 42.3671C35.7911 42.3671 33.8929 40.4689 33.8929 38.1305C33.8929 35.7921 35.7911 33.8938 38.1295 33.8938C40.4679 33.8938 42.3662 35.7921 42.3662 38.1305C42.3662 40.4689 40.4679 42.3671 38.1295 42.3671Z" fill="#F4E729"/>
<path d="M33.8929 55.0783C33.8929 57.4181 35.7897 59.3149 38.1295 59.3149C40.4694 59.3149 42.3662 57.4181 42.3662 55.0783C42.3662 52.7384 40.4694 50.8416 38.1295 50.8416C35.7897 50.8416 33.8929 52.7384 33.8929 55.0783Z" fill="#F4E729"/>
<path d="M38.1295 76.2602C35.7911 76.2602 33.8929 74.3618 33.8929 72.0235C33.8929 69.6851 35.7911 67.7869 38.1295 67.7869C40.4679 67.7869 42.3662 69.6851 42.3662 72.0235C42.3662 74.3618 40.4679 76.2602 38.1295 76.2602Z" fill="#F4E729"/>
<path d="M38.1295 93.2069C35.7911 93.2069 33.8929 91.3086 33.8929 88.9702C33.8929 86.6319 35.7911 84.7336 38.1295 84.7336C40.4679 84.7336 42.3662 86.6319 42.3662 88.9702C42.3662 91.3086 40.4679 93.2069 38.1295 93.2069Z" fill="#F4E729"/>
<path d="M38.1295 110.154C35.7911 110.154 33.8929 108.255 33.8929 105.917C33.8929 103.579 35.7911 101.68 38.1295 101.68C40.4679 101.68 42.3662 103.579 42.3662 105.917C42.3662 108.255 40.4679 110.154 38.1295 110.154Z" fill="#F4E729"/>
<path d="M33.8929 122.864C33.8929 125.204 35.7897 127.101 38.1295 127.101C40.4694 127.101 42.3662 125.204 42.3662 122.864C42.3662 120.524 40.4694 118.627 38.1295 118.627C35.7897 118.627 33.8929 120.524 33.8929 122.864Z" fill="#F4E729"/>
<path d="M33.8929 139.81C33.8929 142.15 35.7897 144.047 38.1295 144.047C40.4694 144.047 42.3662 142.15 42.3662 139.81C42.3662 137.47 40.4694 135.573 38.1295 135.573C35.7897 135.573 33.8929 137.47 33.8929 139.81Z" fill="#F4E729"/>
<path d="M33.8929 156.749C33.8929 159.089 35.7897 160.986 38.1295 160.986C40.4694 160.986 42.3662 159.089 42.3662 156.749C42.3662 154.41 40.4694 152.513 38.1295 152.513C35.7897 152.513 33.8929 154.41 33.8929 156.749Z" fill="#F4E729"/>
<path d="M38.1295 177.932C35.7911 177.932 33.8929 176.034 33.8929 173.695C33.8929 171.357 35.7911 169.458 38.1295 169.458C40.4679 169.458 42.3662 171.357 42.3662 173.695C42.3662 176.034 40.4679 177.932 38.1295 177.932Z" fill="#F4E729"/>
<path d="M38.1295 194.879C35.7911 194.879 33.8929 192.98 33.8929 190.642C33.8929 188.304 35.7911 186.405 38.1295 186.405C40.4679 186.405 42.3662 188.304 42.3662 190.642C42.3662 192.98 40.4679 194.879 38.1295 194.879Z" fill="#F4E729"/>
<path d="M38.1295 211.826C35.7911 211.826 33.8929 209.928 33.8929 207.59C33.8929 205.251 35.7911 203.353 38.1295 203.353C40.4679 203.353 42.3662 205.251 42.3662 207.59C42.3662 209.928 40.4679 211.826 38.1295 211.826Z" fill="#F4E729"/>
<path d="M21.1828 25.4197C18.8444 25.4197 16.9461 23.5214 16.9461 21.183C16.9461 18.8446 18.8444 16.9463 21.1828 16.9463C23.5212 16.9463 25.4194 18.8446 25.4194 21.183C25.4194 23.5214 23.5212 25.4197 21.1828 25.4197Z" fill="#F4E729"/>
<path d="M21.1828 42.3671C18.8444 42.3671 16.9461 40.4689 16.9461 38.1305C16.9461 35.7921 18.8444 33.8938 21.1828 33.8938C23.5212 33.8938 25.4194 35.7921 25.4194 38.1305C25.4194 40.4689 23.5212 42.3671 21.1828 42.3671Z" fill="#F4E729"/>
<path d="M21.1828 59.3149C18.8444 59.3149 16.9461 57.4166 16.9461 55.0783C16.9461 52.7399 18.8444 50.8416 21.1828 50.8416C23.5212 50.8416 25.4194 52.7399 25.4194 55.0783C25.4194 57.4166 23.5212 59.3149 21.1828 59.3149Z" fill="#F4E729"/>
<path d="M21.1828 76.2602C18.8444 76.2602 16.9461 74.3618 16.9461 72.0235C16.9461 69.6851 18.8444 67.7869 21.1828 67.7869C23.5212 67.7869 25.4194 69.6851 25.4194 72.0235C25.4194 74.3618 23.5212 76.2602 21.1828 76.2602Z" fill="#F4E729"/>
<path d="M21.1828 93.2069C18.8444 93.2069 16.9461 91.3086 16.9461 88.9702C16.9461 86.6319 18.8444 84.7336 21.1828 84.7336C23.5212 84.7336 25.4194 86.6319 25.4194 88.9702C25.4194 91.3086 23.5212 93.2069 21.1828 93.2069Z" fill="#F4E729"/>
<path d="M21.1828 110.154C18.8444 110.154 16.9461 108.255 16.9461 105.917C16.9461 103.579 18.8444 101.68 21.1828 101.68C23.5212 101.68 25.4194 103.579 25.4194 105.917C25.4194 108.255 23.5212 110.154 21.1828 110.154Z" fill="#F4E729"/>
<path d="M21.1828 127.101C18.8444 127.101 16.9461 125.202 16.9461 122.864C16.9461 120.526 18.8444 118.627 21.1828 118.627C23.5212 118.627 25.4194 120.526 25.4194 122.864C25.4194 125.202 23.5212 127.101 21.1828 127.101Z" fill="#F4E729"/>
<path d="M21.1828 144.039C18.8444 144.039 16.9461 142.141 16.9461 139.803C16.9461 137.464 18.8444 135.566 21.1828 135.566C23.5212 135.566 25.4194 137.464 25.4194 139.803C25.4194 142.15 23.5212 144.039 21.1828 144.039Z" fill="#F4E729"/>
<path d="M21.1828 160.986C18.8444 160.986 16.9461 159.088 16.9461 156.749C16.9461 154.411 18.8444 152.513 21.1828 152.513C23.5212 152.513 25.4194 154.411 25.4194 156.749C25.4194 159.088 23.5212 160.986 21.1828 160.986Z" fill="#F4E729"/>
<path d="M21.1828 177.932C18.8444 177.932 16.9461 176.034 16.9461 173.695C16.9461 171.357 18.8444 169.458 21.1828 169.458C23.5212 169.458 25.4194 171.357 25.4194 173.695C25.4194 176.034 23.5212 177.932 21.1828 177.932Z" fill="#F4E729"/>
<path d="M21.1828 194.879C18.8444 194.879 16.9461 192.98 16.9461 190.642C16.9461 188.304 18.8444 186.405 21.1828 186.405C23.5212 186.405 25.4194 188.304 25.4194 190.642C25.4194 192.98 23.5212 194.879 21.1828 194.879Z" fill="#F4E729"/>
<path d="M21.1828 211.826C18.8444 211.826 16.9461 209.928 16.9461 207.59C16.9461 205.251 18.8444 203.353 21.1828 203.353C23.5212 203.353 25.4194 205.251 25.4194 207.59C25.4194 209.928 23.5212 211.826 21.1828 211.826Z" fill="#F4E729"/>
<path d="M21.1828 228.772C18.8444 228.772 16.9461 226.873 16.9461 224.535C16.9461 222.197 18.8444 220.298 21.1828 220.298C23.5212 220.298 25.4194 222.197 25.4194 224.535C25.4194 226.873 23.5212 228.772 21.1828 228.772Z" fill="#F4E729"/>
<path d="M4.23649 8.47341C1.89813 8.47341 -0.000208855 6.57507 -0.000208855 4.2367C-0.000208855 1.89834 1.89813 0 4.23649 0C6.57486 0 8.47314 1.89834 8.47314 4.2367C8.47314 6.57507 6.57486 8.47341 4.23649 8.47341Z" fill="#F4E729"/>
<path d="M4.23649 25.4197C1.89813 25.4197 -0.000208855 23.5214 -0.000208855 21.183C-0.000208855 18.8446 1.89813 16.9463 4.23649 16.9463C6.57486 16.9463 8.47314 18.8446 8.47314 21.183C8.47314 23.5214 6.57486 25.4197 4.23649 25.4197Z" fill="#F4E729"/>
<path d="M4.23649 42.3671C1.89813 42.3671 -0.000208855 40.4689 -0.000208855 38.1305C-0.000208855 35.7921 1.89813 33.8938 4.23649 33.8938C6.57486 33.8938 8.47314 35.7921 8.47314 38.1305C8.47314 40.4689 6.57486 42.3671 4.23649 42.3671Z" fill="#F4E729"/>
<path d="M4.23649 59.3149C1.89813 59.3149 -0.000208855 57.4166 -0.000208855 55.0783C-0.000208855 52.7399 1.89813 50.8416 4.23649 50.8416C6.57486 50.8416 8.47314 52.7399 8.47314 55.0783C8.47314 57.4166 6.57486 59.3149 4.23649 59.3149Z" fill="#F4E729"/>
<path d="M4.23649 76.2602C1.89813 76.2602 -0.000208855 74.3618 -0.000208855 72.0235C-0.000208855 69.6851 1.89813 67.7869 4.23649 67.7869C6.57486 67.7869 8.47314 69.6851 8.47314 72.0235C8.47314 74.3618 6.57486 76.2602 4.23649 76.2602Z" fill="#F4E729"/>
<path d="M4.23649 93.2069C1.89813 93.2069 -0.000208855 91.3086 -0.000208855 88.9702C-0.000208855 86.6319 1.89813 84.7336 4.23649 84.7336C6.57486 84.7336 8.47314 86.6319 8.47314 88.9702C8.47314 91.3086 6.57486 93.2069 4.23649 93.2069Z" fill="#F4E729"/>
<path d="M4.23649 110.154C1.89813 110.154 -0.000208855 108.255 -0.000208855 105.917C-0.000208855 103.579 1.89813 101.68 4.23649 101.68C6.57486 101.68 8.47314 103.579 8.47314 105.917C8.47314 108.255 6.57486 110.154 4.23649 110.154Z" fill="#F4E729"/>
<path d="M4.23649 127.101C1.89813 127.101 -0.000208855 125.202 -0.000208855 122.864C-0.000208855 120.526 1.89813 118.627 4.23649 118.627C6.57486 118.627 8.47314 120.526 8.47314 122.864C8.47314 125.202 6.57486 127.101 4.23649 127.101Z" fill="#F4E729"/>
<path d="M4.23649 144.039C1.89813 144.039 -0.000208855 142.141 -0.000208855 139.803C-0.000208855 137.464 1.89813 135.566 4.23649 135.566C6.57486 135.566 8.47314 137.464 8.47314 139.803C8.47314 142.15 6.57486 144.039 4.23649 144.039Z" fill="#F4E729"/>
<path d="M4.23649 160.986C1.89813 160.986 -0.000208855 159.088 -0.000208855 156.749C-0.000208855 154.411 1.89813 152.513 4.23649 152.513C6.57486 152.513 8.47314 154.411 8.47314 156.749C8.47314 159.088 6.57486 160.986 4.23649 160.986Z" fill="#F4E729"/>
<path d="M4.23649 177.932C1.89813 177.932 -0.000208855 176.034 -0.000208855 173.695C-0.000208855 171.357 1.89813 169.458 4.23649 169.458C6.57486 169.458 8.47314 171.357 8.47314 173.695C8.47314 176.034 6.57486 177.932 4.23649 177.932Z" fill="#F4E729"/>
<path d="M4.23649 194.879C1.89813 194.879 -0.000208855 192.98 -0.000208855 190.642C-0.000208855 188.304 1.89813 186.405 4.23649 186.405C6.57486 186.405 8.47314 188.304 8.47314 190.642C8.47314 192.98 6.57486 194.879 4.23649 194.879Z" fill="#F4E729"/>
<path d="M4.23649 211.826C1.89813 211.826 -0.000208855 209.928 -0.000208855 207.59C-0.000208855 205.251 1.89813 203.353 4.23649 203.353C6.57486 203.353 8.47314 205.251 8.47314 207.59C8.47314 209.928 6.57486 211.826 4.23649 211.826Z" fill="#F4E729"/>
<path d="M4.23649 228.772C1.89813 228.772 -0.000208855 226.873 -0.000208855 224.535C-0.000208855 222.197 1.89813 220.298 4.23649 220.298C6.57486 220.298 8.47314 222.197 8.47314 224.535C8.47314 226.873 6.57486 228.772 4.23649 228.772Z" fill="#F4E729"/>
<path d="M4.23649 245.719C1.89813 245.719 -0.000208855 243.821 -0.000208855 241.482C-0.000208855 239.144 1.89813 237.246 4.23649 237.246C6.57486 237.246 8.47314 239.144 8.47314 241.482C8.47314 243.821 6.57486 245.719 4.23649 245.719Z" fill="#F4E729"/>
</svg>
