<svg viewBox="0 0 187 332" xmlns="http://www.w3.org/2000/svg">
<path d="M0.000948031 5.18564L5.18678 -0.000182531C9.94118 4.75421 14.6178 4.59889 20.5285 4.39181C26.9913 4.17609 34.3084 3.92586 41.3235 10.9323C48.3386 17.9474 48.0798 25.2645 47.8641 31.7274C47.657 37.638 47.4931 42.3148 52.2561 47.0692C57.0019 51.8236 61.6872 51.6682 67.5979 51.4612C74.0607 51.2368 81.3778 50.9866 88.3757 58.0017C95.3908 65.0082 95.1406 72.3339 94.9162 78.7795C94.7092 84.6988 94.5452 89.3755 99.3082 94.1213C104.063 98.8757 108.739 98.7203 114.65 98.5133C121.113 98.2975 128.43 98.0387 135.445 105.054C142.452 112.06 142.201 119.386 141.968 125.832C141.761 131.751 141.597 136.428 146.36 141.182C151.115 145.928 155.791 145.764 161.702 145.565C168.165 145.35 175.482 145.091 182.497 152.106C184.119 153.728 185.345 155.368 186.294 157.007L177.001 157.007C172.341 152.555 167.742 152.701 161.961 152.908C155.498 153.133 148.181 153.383 141.166 146.368C134.159 139.361 134.41 132.036 134.643 125.59C134.85 119.671 135.014 114.994 130.251 110.248C125.496 105.494 120.819 105.649 114.909 105.856C108.446 106.072 101.129 106.331 94.1137 99.3157C87.1073 92.3093 87.3575 84.9835 87.5905 78.5379C87.7976 72.6186 87.9442 67.9419 83.1985 63.1875C78.4441 58.4418 73.7674 58.6057 67.8481 58.8041C61.3939 59.0199 54.0767 59.2701 47.0702 52.2636C40.0552 45.2485 40.314 37.9314 40.5298 31.4686C40.7369 25.5579 40.9008 20.8812 36.1378 16.1268C31.3834 11.3724 26.7066 11.5277 20.796 11.7348C14.3245 11.9505 7.00742 12.2007 0.000948031 5.18564Z" fill="white"/>
<path d="M86.0005 325.589L92.0406 331.629L98.3137 325.356L104.595 331.629L110.627 325.589L104.354 319.316L110.627 313.043L104.595 307.003L98.3136 313.276L92.0406 307.003L86.0005 313.043L92.2736 319.316L86.0005 325.589Z" fill="#4D91CE"/>
</svg>
