<svg viewBox="0 0 167 260" xmlns="http://www.w3.org/2000/svg">
<path d="M166.927 259.913L161.569 230.178L137.193 254.554L166.927 259.913Z" fill="white"/>
<path d="M149.377 242.362L144.019 212.627L119.643 237.003L149.377 242.362Z" fill="white"/>
<path d="M131.836 224.82L126.478 195.085L102.093 219.461L131.836 224.82Z" fill="white"/>
<path d="M114.284 207.268L108.926 177.534L84.55 201.91L114.284 207.268Z" fill="white"/>
<path d="M96.7341 189.726L91.3843 159.992L66.9997 184.368L96.7341 189.726Z" fill="white"/>
<path d="M40.1665 40.1664C40.1665 17.9821 22.1844 -6.05733e-06 6.92711e-05 -4.11791e-06L7.62939e-05 80.3328C22.1844 80.3328 40.1665 62.3507 40.1665 40.1664Z" fill="#F4E729"/>
</svg>
