<svg viewBox="0 0 325 102" xmlns="http://www.w3.org/2000/svg">
<g clip-path="url(#clip0)">
<path d="M324.635 6.04006L318.595 0L312.322 6.28167L306.04 0L300 6.04006L306.282 12.3217L300 18.5948L306.04 24.6348L312.322 18.3532L318.595 24.6348L324.635 18.5948L318.362 12.3217L324.635 6.04006Z" fill="white"/>
<path d="M255.081 72.7384L251.69 79.2219L215.51 60.247L177.656 80.1036L139.785 60.247L101.931 80.1036L64.0688 60.247L26.2148 80.1036L-1 65.8314V57.5844L26.2148 71.8567L64.0688 52L101.931 71.8567L139.785 52L177.656 71.8567L215.51 52L255.081 72.7384Z" fill="#4D91CE"/>
<path d="M255.081 94.9979L251.69 101.481L215.51 82.5063L177.656 102.363L139.785 82.5063L101.931 102.363L64.0688 82.5063L26.2148 102.363L-1 88.0908V79.8351L26.2148 94.0988L64.0688 74.2593L101.931 94.0988L139.785 74.2593L177.656 94.0988L215.51 74.2593L255.081 94.9979Z" fill="#4D91CE"/>
</g>
<defs>
<clipPath id="clip0">
<rect width="325" height="102" fill="white"/>
</clipPath>
</defs>
</svg>
