<svg viewBox="0 0 254 318" xmlns="http://www.w3.org/2000/svg">
<path d="M27.8015 14.7332L0 42.5348L-4.90322e-07 31.3175C8.80123 24.7511 18.1288 19.2287 27.8015 14.7332Z" fill="#4D91CE"/>
<path d="M67.4332 2.3424L0.00878906 69.7841L0.00878847 56.168L49.6667 6.51006C55.5083 4.76706 61.4535 3.38646 67.4332 2.3424Z" fill="#4D91CE"/>
<path d="M97.0034 0.0115085L0 97.0236L-5.95174e-07 83.4076L82.9646 0.425717C87.6413 0.0805702 92.3267 -0.0402644 97.0034 0.0115085Z" fill="#4D91CE"/>
<path d="M109.921 0.711459C113.941 1.09974 117.945 1.64334 121.923 2.32501L0 124.248L-5.95177e-07 110.632L109.921 0.711459Z" fill="#4D91CE"/>
<path d="M133.183 4.68859C136.73 5.57736 140.276 6.57827 143.788 7.70863L0 151.488L-5.95178e-07 137.872L133.183 4.68859Z" fill="#4D91CE"/>
<path d="M153.78 11.3323C156.973 12.6094 160.131 13.99 163.254 15.4827L0 178.737L-5.95174e-07 165.121L153.78 11.3323Z" fill="#4D91CE"/>
<path d="M172.237 20.1257C175.11 21.7306 177.949 23.4305 180.736 25.2339L0 205.97L-5.95174e-07 192.354L172.237 20.1257Z" fill="#4D91CE"/>
<path d="M188.795 30.7986C191.401 32.7055 193.946 34.6902 196.431 36.7783L0 233.21L-5.95174e-07 219.594L188.795 30.7986Z" fill="#4D91CE"/>
<path d="M203.654 43.1903C204.81 44.2775 205.958 45.3906 207.105 46.5382C208.253 47.6859 209.366 48.8421 210.47 49.9983L0 260.451L-5.95174e-07 246.835L203.654 43.1903Z" fill="#4D91CE"/>
<path d="M216.864 57.2124C218.952 59.6974 220.946 62.2601 222.861 64.8487L0.690296 287.02C0.457322 286.847 0.232974 286.674 -2.26305e-08 286.502L-5.6538e-07 274.085L216.864 57.2124Z" fill="#4D91CE"/>
<path d="M17.2492 297.692L233.527 81.4146C231.922 78.5326 230.213 75.7025 228.41 72.9154L8.75 292.575C11.5371 294.379 14.3673 296.078 17.2492 297.692Z" fill="#4D91CE"/>
<path d="M35.7056 306.476L242.31 99.8711C241.042 96.6785 239.661 93.5204 238.168 90.3968L26.2227 302.334C29.3549 303.827 32.513 305.207 35.7056 306.476Z" fill="#4D91CE"/>
<path d="M56.2934 313.112L248.946 120.46C248.074 116.896 247.056 113.367 245.926 109.872L45.7061 310.1C49.2093 311.231 52.7298 312.24 56.2934 313.112Z" fill="#4D91CE"/>
<path d="M79.556 317.098L252.932 143.722C252.543 139.701 252.008 135.698 251.327 131.711L67.5449 315.493C71.5314 316.166 75.5351 316.71 79.556 317.098Z" fill="#4D91CE"/>
<path d="M106.512 317.383L253.217 170.679C253.562 166.002 253.7 161.325 253.631 156.64L92.4736 317.797C97.159 317.866 101.836 317.72 106.512 317.383Z" fill="#4D91CE"/>
<path d="M139.819 311.308L247.142 203.985C248.877 198.126 250.257 192.19 251.293 186.21L122.053 315.459C128.032 314.423 133.969 313.043 139.819 311.308Z" fill="#4D91CE"/>
<path d="M207.105 271.272C220.669 257.708 231.274 242.288 238.901 225.851L161.675 303.077C178.13 295.432 193.54 284.836 207.105 271.272Z" fill="#4D91CE"/>
</svg>
